<svg width="105" height="66" viewBox="0 0 105 66" fill="none" xmlns="http://www.w3.org/2000/svg">
<g id="&#208;&#187;&#208;&#190;&#208;&#179;&#208;&#190;">
<rect id="Rectangle 152" y="0.5" width="105" height="32.5001" fill="url(#paint0_linear_18_323)"/>
<rect id="Rectangle 153" x="0.659864" y="33.6597" width="103.68" height="31.1804" fill="white" stroke="url(#paint1_linear_18_323)" stroke-width="1.31973"/>
<g id="&#208;&#163;&#208;&#154;&#208;&#160;&#208;&#144;&#208;&#135;&#208;&#157;&#208;&#144;">
<path d="M19.0039 10.9998L15.562 17.5798L12.2276 10.9998H9.12622L14.074 19.9948L13.9665 20.1348C13.4824 20.8698 12.9267 21.1848 12.2096 21.1848C11.8332 21.1848 11.4209 21.0973 10.9548 20.9573L10.2556 23.1098C10.9548 23.3898 11.636 23.5298 12.2993 23.5298C13.9844 23.5298 15.4723 22.5848 16.5121 20.6948L21.8543 10.9998H19.0039Z" fill="white"/>
<path d="M31.3552 23.2498H34.6537L30.423 16.9148L34.5282 10.9998H31.4628L28.1642 15.9523H26.0847V10.9998H23.1985V23.2498H26.0847V18.3148H28.0925L31.3552 23.2498Z" fill="white"/>
<path d="M41.446 10.9998H36.0142V23.2498H38.9184V19.8723H41.446C44.7984 19.8723 46.8958 18.1748 46.8958 15.4448C46.8958 12.6973 44.7984 10.9998 41.446 10.9998ZM41.2847 17.5623H38.9184V13.3098H41.2847C43.0595 13.3098 43.9558 14.0973 43.9558 15.4448C43.9558 16.7748 43.0595 17.5623 41.2847 17.5623Z" fill="white"/>
<path d="M57.7901 23.2498H60.8377L55.2266 10.9998H52.3583L46.7651 23.2498H49.741L50.8524 20.6248H56.6787L57.7901 23.2498ZM51.7846 18.4723L53.7745 13.7823L55.7644 18.4723H51.7846Z" fill="white"/>
<path d="M62.0716 9.91476C62.7707 9.91476 63.3085 9.42476 63.3085 8.70726C63.3085 7.98976 62.7707 7.49976 62.0716 7.49976C61.3724 7.49976 60.8167 7.98976 60.8167 8.70726C60.8167 9.42476 61.3724 9.91476 62.0716 9.91476ZM65.6928 9.91476C66.3919 9.91476 66.9477 9.42476 66.9477 8.70726C66.9477 7.98976 66.3919 7.49976 65.6928 7.49976C65.0116 7.49976 64.4558 7.98976 64.4558 8.70726C64.4558 9.42476 65.0116 9.91476 65.6928 9.91476ZM62.4301 23.2498H65.3342V10.9998H62.4301V23.2498Z" fill="white"/>
<path d="M76.9889 10.9998V15.8298H71.2882V10.9998H68.384V23.2498H71.2882V18.2273H76.9889V23.2498H79.8931V10.9998H76.9889Z" fill="white"/>
<path d="M92.6459 23.2498H95.6935L90.0824 10.9998H87.2141L81.6209 23.2498H84.5967L85.7082 20.6248H91.5344L92.6459 23.2498ZM86.6404 18.4723L88.6303 13.7823L90.6202 18.4723H86.6404Z" fill="white"/>
</g>
<g id="&#208;&#147;&#208;&#160;&#208;&#158;&#208;&#156;&#208;&#144;&#208;&#148;">
<path d="M20.4044 43.5009H11.5485V55.7509H14.4347L14.4168 45.8109H20.3864L20.4044 43.5009Z" fill="url(#paint2_linear_18_323)"/>
<path d="M27.6069 43.5009H22.1751V55.7509H25.0792V52.3734H27.6069C30.9592 52.3734 33.0567 50.6759 33.0567 47.9459C33.0567 45.1984 30.9592 43.5009 27.6069 43.5009ZM27.4456 50.0634H25.0792V45.8109H27.4456C29.2203 45.8109 30.1167 46.5984 30.1167 47.9459C30.1167 49.2759 29.2203 50.0634 27.4456 50.0634Z" fill="url(#paint3_linear_18_323)"/>
<path d="M41.1351 55.9609C45.079 55.9609 48.001 53.2834 48.001 49.6259C48.001 45.9684 45.079 43.2909 41.1351 43.2909C37.1732 43.2909 34.2691 45.9859 34.2691 49.6259C34.2691 53.2659 37.1732 55.9609 41.1351 55.9609ZM41.1351 53.5459C38.8942 53.5459 37.2091 51.9534 37.2091 49.6259C37.2091 47.2984 38.8942 45.7059 41.1351 45.7059C43.3759 45.7059 45.0611 47.2984 45.0611 49.6259C45.0611 51.9534 43.3759 53.5459 41.1351 53.5459Z" fill="url(#paint4_linear_18_323)"/>
<path d="M64.3825 55.7509L64.3646 43.5009H61.9624L57.3373 51.1134L52.6405 43.5009H50.2383V55.7509H52.9631V48.5584L56.6561 54.4559H57.9468L61.6397 48.4184L61.6576 55.7509H64.3825Z" fill="url(#paint5_linear_18_323)"/>
<path d="M77.1086 55.7509H80.1562L74.5451 43.5009H71.6768L66.0836 55.7509H69.0595L70.1709 53.1259H75.9972L77.1086 55.7509ZM71.1031 50.9734L73.093 46.2834L75.0829 50.9734H71.1031Z" fill="url(#paint6_linear_18_323)"/>
<path d="M93.1117 53.4409V43.5009H83.467L83.3236 47.3334C83.1981 50.7634 82.7858 53.3884 81.1545 53.4409H80.6525L80.6346 58.2884H83.3236V55.7509H92.1795V58.2884H94.8685V53.4409H93.1117ZM85.8872 47.5959L85.9409 45.8109H90.2434V53.4409H84.6323C85.4928 52.4434 85.7796 50.2034 85.8872 47.5959Z" fill="url(#paint7_linear_18_323)"/>
</g>
</g>
<defs>
<linearGradient id="paint0_linear_18_323" x1="52.5" y1="0.5" x2="52.5" y2="33.0001" gradientUnits="userSpaceOnUse">
<stop stop-color="#79B1FE"/>
<stop offset="1" stop-color="#4F93EB"/>
</linearGradient>
<linearGradient id="paint1_linear_18_323" x1="52.5" y1="32.9999" x2="52.5" y2="65.5" gradientUnits="userSpaceOnUse">
<stop stop-color="#79B1FE"/>
<stop offset="1" stop-color="#4F93EB"/>
</linearGradient>
<linearGradient id="paint2_linear_18_323" x1="53.2085" y1="43.2909" x2="53.2085" y2="58.2884" gradientUnits="userSpaceOnUse">
<stop stop-color="#79B1FE"/>
<stop offset="1" stop-color="#4F93EB"/>
</linearGradient>
<linearGradient id="paint3_linear_18_323" x1="53.2085" y1="43.2909" x2="53.2085" y2="58.2884" gradientUnits="userSpaceOnUse">
<stop stop-color="#79B1FE"/>
<stop offset="1" stop-color="#4F93EB"/>
</linearGradient>
<linearGradient id="paint4_linear_18_323" x1="53.2085" y1="43.2909" x2="53.2085" y2="58.2884" gradientUnits="userSpaceOnUse">
<stop stop-color="#79B1FE"/>
<stop offset="1" stop-color="#4F93EB"/>
</linearGradient>
<linearGradient id="paint5_linear_18_323" x1="53.2085" y1="43.2909" x2="53.2085" y2="58.2884" gradientUnits="userSpaceOnUse">
<stop stop-color="#79B1FE"/>
<stop offset="1" stop-color="#4F93EB"/>
</linearGradient>
<linearGradient id="paint6_linear_18_323" x1="53.2085" y1="43.2909" x2="53.2085" y2="58.2884" gradientUnits="userSpaceOnUse">
<stop stop-color="#79B1FE"/>
<stop offset="1" stop-color="#4F93EB"/>
</linearGradient>
<linearGradient id="paint7_linear_18_323" x1="53.2085" y1="43.2909" x2="53.2085" y2="58.2884" gradientUnits="userSpaceOnUse">
<stop stop-color="#79B1FE"/>
<stop offset="1" stop-color="#4F93EB"/>
</linearGradient>
</defs>
</svg>
