<svg width="219" height="66" viewBox="0 0 219 66" fill="none" xmlns="http://www.w3.org/2000/svg">
<g id="logo1 2">
<path id="Vector" d="M88.6094 33.8687H93.4691L87.5772 16.687H82.1221L76.2422 33.8687H80.6643L81.7941 30.0942H87.5163L88.6094 33.8687ZM84.5638 20.5568H84.7949L86.6783 26.9508H82.6442L84.5638 20.5568Z" fill="#333333"/>
<path id="Vector_2" d="M96.1523 33.8687H100.441V15.6511H96.1523V33.8687Z" fill="#333333"/>
<path id="Vector_3" d="M104.997 17.58V20.7948H102.92V23.9263H104.997V30.237C104.997 32.8328 106.395 33.8925 109.954 33.8925C110.769 33.8925 111.558 33.8211 112.007 33.7258V30.7252C111.691 30.7609 111.424 30.7848 110.926 30.7848C109.809 30.7848 109.286 30.2966 109.286 29.2964V23.9263H112.007V20.7948H109.286V17.58H104.997Z" fill="#333333"/>
<path id="Vector_4" d="M120.876 23.2952C122.309 23.2952 123.208 24.2121 123.281 25.76H118.373C118.482 24.2597 119.466 23.2952 120.876 23.2952ZM123.438 29.9631C123.147 30.7371 122.285 31.1896 121.034 31.1896C119.394 31.1896 118.385 30.118 118.348 28.3915V28.1771H127.448V27.0102C127.448 22.7833 125.018 20.3066 120.851 20.3066C116.66 20.3066 114.121 22.9618 114.121 27.3317C114.121 31.6778 116.599 34.1782 120.912 34.1782C124.411 34.1782 126.889 32.547 127.363 29.9631H123.438Z" fill="#333333"/>
<path id="Vector_5" d="M130.121 33.8687H134.409V26.8555C134.409 25.01 135.673 23.9621 137.568 23.9621C138.225 23.9621 139.086 24.0693 139.415 24.2003V20.6162C139.099 20.4852 138.431 20.4138 137.859 20.4138C136.171 20.4138 134.859 21.4616 134.531 22.7952H134.3V20.6162H130.121V33.8687Z" fill="#333333"/>
<path id="Vector_6" d="M141.734 33.8686H146.023V26.2958C146.023 24.7717 146.861 23.7478 148.258 23.7478C149.716 23.7478 150.384 24.6407 150.384 26.2482V33.8686H154.684V25.3075C154.684 22.1284 153.118 20.3066 150.104 20.3066C148.149 20.3066 146.739 21.2711 146.144 22.7714H145.913V20.6162H141.734V33.8686Z" fill="#333333"/>
<path id="Vector_7" d="M163.166 31.1302C162.085 31.1302 161.367 30.6063 161.367 29.7608C161.367 28.9631 162.036 28.4749 163.312 28.3796L165.583 28.2368V29.106C165.583 30.2491 164.526 31.1302 163.166 31.1302ZM161.599 34.0712C163.312 34.0712 164.794 33.3568 165.401 32.2257H165.632V33.8687H169.811V24.8314C169.811 21.9737 167.685 20.3068 163.956 20.3068C160.299 20.3068 157.906 21.9023 157.711 24.4742H161.575C161.853 23.7717 162.583 23.4026 163.712 23.4026C164.903 23.4026 165.583 23.9384 165.583 24.8314V25.8673L162.631 26.034C159.144 26.2364 157.225 27.6414 157.225 30.0585C157.225 32.4875 158.999 34.0712 161.599 34.0712Z" fill="#333333"/>
<path id="Vector_8" d="M174.148 17.58V20.7948H172.07V23.9263H174.148V30.237C174.148 32.8328 175.545 33.8925 179.105 33.8925C179.919 33.8925 180.708 33.8211 181.158 33.7258V30.7252C180.842 30.7609 180.574 30.7848 180.077 30.7848C178.959 30.7848 178.437 30.2966 178.437 29.2964V23.9263H181.158V20.7948H178.437V17.58H174.148Z" fill="#333333"/>
<path id="Vector_9" d="M183.989 33.8688H188.289V20.6163H183.989V33.8688ZM186.139 18.8422C187.39 18.8422 188.423 17.8778 188.423 16.6513C188.423 15.4249 187.39 14.4485 186.139 14.4485C184.888 14.4485 183.855 15.4249 183.855 16.6513C183.855 17.8778 184.888 18.8422 186.139 18.8422Z" fill="#333333"/>
<path id="Vector_10" d="M204.519 20.6162H200L197.704 30.0942H197.473L195.129 20.6162H190.5L195.055 33.8687H200.012L204.519 20.6162Z" fill="#333333"/>
<path id="Vector_11" d="M212.212 23.2952C213.645 23.2952 214.544 24.2121 214.616 25.76H209.709C209.818 24.2597 210.802 23.2952 212.212 23.2952ZM214.775 29.9631C214.483 30.7371 213.621 31.1896 212.37 31.1896C210.73 31.1896 209.721 30.118 209.684 28.3915V28.1771H218.784V27.0102C218.784 22.7833 216.354 20.3066 212.187 20.3066C207.996 20.3066 205.457 22.9618 205.457 27.3317C205.457 31.6778 207.935 34.1782 212.248 34.1782C215.747 34.1782 218.225 32.547 218.699 29.9631H214.775Z" fill="#333333"/>
<path id="Vector_12" d="M131.212 50.334C133.168 50.334 134.608 49.2029 134.851 47.5062H133.496C133.253 48.4766 132.373 49.0898 131.212 49.0898C129.633 49.0898 128.649 47.8336 128.649 45.8332C128.649 43.8268 129.633 42.5707 131.206 42.5707C132.36 42.5707 133.241 43.2494 133.496 44.3032H134.851C134.632 42.5529 133.138 41.3264 131.206 41.3264C128.77 41.3264 127.258 43.047 127.258 45.8332C127.258 48.6135 128.777 50.334 131.212 50.334Z" fill="#333333"/>
<path id="Vector_13" d="M143.239 41.3264C140.724 41.3264 139.145 43.0529 139.145 45.8273C139.145 48.5956 140.687 50.334 143.239 50.334C145.772 50.334 147.327 48.5897 147.327 45.8273C147.327 43.0589 145.76 41.3264 143.239 41.3264ZM143.239 42.5707C144.897 42.5707 145.936 43.8328 145.936 45.8273C145.936 47.8097 144.903 49.0898 143.239 49.0898C141.55 49.0898 140.536 47.8097 140.536 45.8273C140.536 43.8328 141.581 42.5707 143.239 42.5707Z" fill="#333333"/>
<path id="Vector_14" d="M160.904 50.1258V41.5349H159.313L156.518 48.1075H156.415L153.627 41.5349H152.035V50.1258H153.299V43.9223H153.384L155.953 49.9234H156.986L159.556 43.9223H159.64V50.1258H160.904Z" fill="#333333"/>
<path id="Vector_15" d="M174.834 50.1256V41.5348H173.242L170.448 48.1074H170.345L167.556 41.5348H165.965V50.1256H167.229V43.9221H167.314L169.883 49.9232H170.916L173.485 43.9221H173.57V50.1256H174.834Z" fill="#333333"/>
<path id="Vector_16" d="M185.459 48.9113H181.256V46.3334H185.234V45.1784H181.256V42.7494H185.459V41.5349H179.895V50.1258H185.459V48.9113Z" fill="#333333"/>
<path id="Vector_17" d="M191.647 42.7077H193.567C194.618 42.7077 195.262 43.2734 195.262 44.208C195.262 45.1665 194.654 45.7142 193.603 45.7142H191.647V42.7077ZM191.647 46.8514H193.567L195.353 50.1258H196.926L194.958 46.6311C196.027 46.2739 196.659 45.3332 196.659 44.1783C196.659 42.5648 195.523 41.5349 193.755 41.5349H190.287V50.1258H191.647V46.8514Z" fill="#333333"/>
<path id="Vector_18" d="M205.054 50.334C207.01 50.334 208.45 49.2029 208.692 47.5062H207.338C207.095 48.4766 206.214 49.0898 205.054 49.0898C203.475 49.0898 202.49 47.8336 202.49 45.8332C202.49 43.8268 203.475 42.5707 205.048 42.5707C206.202 42.5707 207.083 43.2494 207.338 44.3032H208.692C208.474 42.5529 206.979 41.3264 205.048 41.3264C202.612 41.3264 201.1 43.047 201.1 45.8332C201.1 48.6135 202.618 50.334 205.054 50.334Z" fill="#333333"/>
<path id="Vector_19" d="M218.91 48.9113H214.706V46.3334H218.685V45.1784H214.706V42.7494H218.91V41.5349H213.346V50.1258H218.91V48.9113Z" fill="#333333"/>
<path id="Vector_20" d="M17.7188 28.9664L0 44.7287L7.18308 47.0158L17.7188 28.9664Z" fill="#333333"/>
<path id="Vector_21" d="M41.4141 57.9155L62.048 64.4857L60.6505 57.9155H41.4141Z" fill="#333333"/>
<path id="Vector_22" d="M53.4485 24.061L48.6408 1.45825L43.1211 6.36848L53.4485 24.061Z" fill="#333333"/>
<path id="Vector_23" fill-rule="evenodd" clip-rule="evenodd" d="M37.0147 0L4.39453 55.8834H69.6348L37.0147 0ZM37.0147 20.4612L22.269 45.7228H51.7603L37.0147 20.4612Z" fill="#019AD2"/>
</g>
</svg>
