<svg width="206" height="34" viewBox="0 0 206 34" fill="none" xmlns="http://www.w3.org/2000/svg">
<g id="Group 83">
<g id="helpdesk">
<path d="M14.5885 17.7307V33.192H10.9073V26.8529H3.68122V33.192H0V17.7307H3.68122V23.8269H10.9073V17.7307H14.5885Z" fill="#333333"/>
<path d="M31.8043 30.3206V33.192H19.4881V17.7307H31.5089V20.6021H23.1466V23.9594H30.5318V26.7425H23.1466V30.3206H31.8043Z" fill="#333333"/>
<path d="M35.8695 17.7307H39.5507V30.2765H47.5267V33.192H35.8695V17.7307Z" fill="#333333"/>
<path d="M57.605 17.7307C59.0139 17.7307 60.2333 17.959 61.2635 18.4155C62.3088 18.8719 63.1117 19.5198 63.6722 20.3592C64.2327 21.1985 64.513 22.1924 64.513 23.341C64.513 24.4748 64.2327 25.4687 63.6722 26.3228C63.1117 27.1621 62.3088 27.81 61.2635 28.2665C60.2333 28.7083 59.0139 28.9291 57.605 28.9291H54.401V33.192H50.7197V17.7307H57.605ZM57.4005 26.0136C58.5064 26.0136 59.3471 25.7853 59.9228 25.3289C60.4985 24.8577 60.7863 24.195 60.7863 23.341C60.7863 22.4722 60.4985 21.8096 59.9228 21.3531C59.3471 20.8819 58.5064 20.6463 57.4005 20.6463H54.401V26.0136H57.4005Z" fill="#333333"/>
<path d="M68.2773 17.7307H75.5034C77.2303 17.7307 78.7528 18.0547 80.0708 18.7026C81.4039 19.3358 82.4341 20.234 83.1612 21.3973C83.9035 22.5606 84.2747 23.9153 84.2747 25.4614C84.2747 27.0075 83.9035 28.3622 83.1612 29.5255C82.4341 30.6888 81.4039 31.5944 80.0708 32.2423C78.7528 32.8754 77.2303 33.192 75.5034 33.192H68.2773V17.7307ZM75.3216 30.2544C76.9122 30.2544 78.1772 29.8274 79.1164 28.9733C80.0708 28.1045 80.548 26.9339 80.548 25.4614C80.548 23.9889 80.0708 22.8256 79.1164 21.9716C78.1772 21.1028 76.9122 20.6684 75.3216 20.6684H71.9585V30.2544H75.3216Z" fill="#333333"/>
<path d="M100.503 30.3206V33.192H88.187V17.7307H100.208V20.6021H91.8455V23.9594H99.2307V26.7425H91.8455V30.3206H100.503Z" fill="#333333"/>
<path d="M109.795 33.4571C108.537 33.4571 107.318 33.2951 106.136 32.9711C104.97 32.6325 104.031 32.1981 103.319 31.668L104.568 28.9733C105.25 29.4592 106.061 29.8494 107 30.1439C107.939 30.4384 108.878 30.5857 109.818 30.5857C110.863 30.5857 111.635 30.4384 112.135 30.1439C112.635 29.8347 112.885 29.4298 112.885 28.9291C112.885 28.561 112.734 28.2591 112.431 28.0235C112.143 27.7732 111.764 27.5744 111.295 27.4272C110.84 27.2799 110.219 27.118 109.431 26.9413C108.219 26.6615 107.227 26.3817 106.454 26.1019C105.682 25.8221 105.015 25.373 104.455 24.7546C103.909 24.1361 103.637 23.3115 103.637 22.2808C103.637 21.3826 103.887 20.5727 104.387 19.8512C104.887 19.1149 105.636 18.5333 106.636 18.1062C107.651 17.6792 108.886 17.4657 110.34 17.4657C111.355 17.4657 112.347 17.5835 113.317 17.8191C114.287 18.0547 115.135 18.3934 115.862 18.8351L114.726 21.5519C113.256 20.742 111.787 20.3371 110.317 20.3371C109.287 20.3371 108.522 20.4991 108.022 20.823C107.538 21.147 107.295 21.574 107.295 22.1041C107.295 22.6342 107.576 23.0318 108.136 23.2968C108.712 23.5471 109.583 23.7975 110.749 24.0478C111.961 24.3276 112.953 24.6073 113.726 24.8871C114.499 25.1669 115.158 25.6086 115.703 26.2124C116.263 26.8161 116.544 27.6333 116.544 28.6641C116.544 29.5476 116.286 30.3575 115.771 31.0937C115.271 31.8152 114.514 32.3895 113.499 32.8165C112.484 33.2436 111.249 33.4571 109.795 33.4571Z" fill="#333333"/>
<path d="M125.99 27.118L123.854 29.2825V33.192H120.195V17.7307H123.854V24.9534L130.898 17.7307H134.988L128.399 24.6221L135.375 33.192H131.08L125.99 27.118Z" fill="#333333"/>
</g>
<g id="Group 41">
<g id="star">
<path d="M147.545 33.5C146.257 33.5 145.008 33.3454 143.796 33.0362C142.584 32.727 141.599 32.3147 140.842 31.7993L142.319 28.5745C143.031 29.031 143.856 29.3991 144.795 29.6789C145.735 29.9586 146.659 30.0985 147.568 30.0985C149.295 30.0985 150.158 29.6789 150.158 28.8395C150.158 28.3978 149.908 28.0738 149.408 27.8677C148.924 27.6468 148.136 27.4186 147.045 27.183C145.848 26.9327 144.848 26.6676 144.046 26.3878C143.243 26.0933 142.553 25.6295 141.978 24.9963C141.402 24.3631 141.114 23.5091 141.114 22.4342C141.114 21.4918 141.379 20.6451 141.91 19.8941C142.44 19.1284 143.228 18.5247 144.273 18.0829C145.333 17.6412 146.628 17.4203 148.159 17.4203C149.204 17.4203 150.234 17.5381 151.249 17.7737C152.264 17.9946 153.158 18.3259 153.93 18.7676L152.544 22.0145C151.029 21.2193 149.56 20.8218 148.136 20.8218C147.242 20.8218 146.591 20.9543 146.182 21.2193C145.773 21.4697 145.568 21.801 145.568 22.2133C145.568 22.6256 145.81 22.9348 146.295 23.141C146.78 23.3471 147.56 23.5606 148.636 23.7815C149.848 24.0318 150.848 24.3042 151.635 24.5987C152.438 24.8785 153.127 25.335 153.703 25.9682C154.294 26.5866 154.589 27.4333 154.589 28.5082C154.589 29.4359 154.324 30.2752 153.794 31.0262C153.264 31.7772 152.468 32.3809 151.408 32.8374C150.348 33.2791 149.06 33.5 147.545 33.5Z" fill="#0085FF"/>
<path d="M160.968 21.1973H156.082V17.7295H170.33V21.1973H165.467V33.1908H160.968V21.1973Z" fill="#0085FF"/>
<path d="M183.001 30.1869H176.275L175.025 33.1908H170.435L177.456 17.7295H181.887L188.932 33.1908H184.251L183.001 30.1869ZM181.683 26.9621L179.638 22.0145L177.593 26.9621H181.683Z" fill="#0085FF"/>
<path d="M198.297 29.0825H195.843V33.1908H191.343V17.7295H198.615C200.054 17.7295 201.304 17.9651 202.364 18.4363C203.425 18.8928 204.243 19.5554 204.818 20.4242C205.394 21.2782 205.682 22.2869 205.682 23.4502C205.682 24.5693 205.409 25.5485 204.864 26.3878C204.334 27.2124 203.569 27.8603 202.569 28.3315L206 33.1908H201.183L198.297 29.0825ZM201.137 23.4502C201.137 22.7287 200.902 22.1691 200.433 21.7715C199.963 21.374 199.266 21.1752 198.342 21.1752H195.843V25.7031H198.342C199.266 25.7031 199.963 25.5117 200.433 25.1288C200.902 24.7313 201.137 24.1717 201.137 23.4502Z" fill="#0085FF"/>
</g>
</g>
<g id="Group 77">
<g id="Group 78">
<g id="Group 79">
<path id="Vector" d="M106.272 9.38989C106.272 10.7905 105.118 11.9298 103.7 11.9298C105.118 11.9298 106.272 13.0691 106.272 14.4696C106.272 13.0691 107.426 11.9298 108.844 11.9298C107.426 11.937 106.272 10.7977 106.272 9.38989Z" fill="#0085FF"/>
<path id="Vector_2" d="M119.989 10.6593C117.86 10.6593 116.131 8.95671 116.131 6.84949C116.131 8.95145 114.407 10.6593 112.273 10.6593C114.401 10.6593 116.131 12.3619 116.131 14.4691C116.136 12.3619 117.86 10.6593 119.989 10.6593Z" fill="#0085FF"/>
<path id="Vector_3" d="M129.208 0.5C129.208 4.00785 126.423 6.84667 122.99 6.84667C126.423 6.84667 129.208 9.69152 129.208 13.1994C129.208 9.69152 131.993 6.84667 135.42 6.84667C131.993 6.84667 129.208 4.00785 129.208 0.5Z" fill="#0085FF"/>
</g>
</g>
</g>
</g>
</svg>
