<svg width="13" height="23" viewBox="0 0 13 23" fill="none" xmlns="http://www.w3.org/2000/svg">
<g id="facebook 2">
<g id="Group">
<g id="Group_2">
<path id="Vector" d="M12.4999 0.888786V0.888831V4.93408C12.4999 5.14527 12.3264 5.32291 12.1044 5.32291H9.04742C8.70671 5.32291 8.42405 5.59824 8.42405 5.94539V8.09046V8.59046H8.92405H12.1044C12.2278 8.59046 12.343 8.64687 12.4173 8.74142L12.4174 8.74146C12.4915 8.83571 12.5173 8.95783 12.4884 9.07278L11.4694 13.1179C11.4263 13.2892 11.2696 13.4133 11.0854 13.4133H8.92405H8.42405V13.9133V21.1149C8.42405 21.3261 8.25054 21.5037 8.02847 21.5037H3.95253C3.73048 21.5037 3.55694 21.3261 3.55694 21.1149V13.9133V13.4133H3.05694H0.895583C0.673534 13.4133 0.5 13.2357 0.5 13.0245V8.97925C0.5 8.76808 0.67355 8.59042 0.895583 8.59042H3.05694H3.55694V8.09042V5.94535C3.55694 2.9468 6.01683 0.5 9.04746 0.5H12.1044C12.3265 0.5 12.5 0.677645 12.4999 0.888786ZM11.4422 9.99026L11.5989 9.36812H10.9573H8.02847C7.80637 9.36812 7.63284 9.19044 7.63284 8.97929V5.94539C7.63284 5.17738 8.26428 4.54525 9.04742 4.54525H11.2088H11.7088V4.04525V1.7777V1.2777H11.2088H9.04742C6.45929 1.2777 4.34807 3.36764 4.34807 5.94539V8.97929C4.34807 9.19046 4.17452 9.36812 3.95248 9.36812H1.79112H1.29112V9.86812V12.1357V12.6357H1.79112H3.95248C4.17453 12.6357 4.34807 12.8133 4.34807 13.0245V20.2261V20.7261H4.84807H7.13284H7.63284V20.2261V13.0245C7.63284 12.8133 7.80634 12.6357 8.02842 12.6357H10.3861H10.7758L10.871 12.2578L11.4422 9.99026Z" fill="white" stroke="white"/>
</g>
</g>
</g>
</svg>
