<svg width="95" height="60" viewBox="0 0 95 60" fill="none" xmlns="http://www.w3.org/2000/svg">
<rect y="0.876953" width="94.4751" height="29.4542" fill="url(#paint0_linear_40_2178)"/>
<rect x="0.590014" y="30.9206" width="93.2951" height="28.2741" fill="white" stroke="url(#paint1_linear_40_2178)" stroke-width="1.18003"/>
<path d="M17.099 10.3924L14.0021 16.3558L11.0019 10.3924H8.21143L12.6633 18.5444L12.5665 18.6713C12.131 19.3374 11.631 19.6229 10.9858 19.6229C10.647 19.6229 10.2761 19.5436 9.85668 19.4167L9.22761 21.3675C9.85668 21.6213 10.4696 21.7482 11.0664 21.7482C12.5826 21.7482 13.9214 20.8917 14.8569 19.1788L19.6637 10.3924H17.099Z" fill="white"/>
<path d="M28.2122 21.4944H31.1801L27.3735 15.7531L31.0672 10.3924H28.309L25.3411 14.8808H23.4701V10.3924H20.8731V21.4944H23.4701V17.0219H25.2766L28.2122 21.4944Z" fill="white"/>
<path d="M37.2916 10.3924H32.4042V21.4944H35.0173V18.4334H37.2916C40.3079 18.4334 42.1951 16.895 42.1951 14.4209C42.1951 11.9309 40.3079 10.3924 37.2916 10.3924ZM37.1464 16.3399H35.0173V12.486H37.1464C38.7433 12.486 39.5498 13.1997 39.5498 14.4209C39.5498 15.6262 38.7433 16.3399 37.1464 16.3399Z" fill="white"/>
<path d="M51.9974 21.4944H54.7395L49.6908 10.3924H47.1101L42.0775 21.4944H44.7551L45.7551 19.1154H50.9974L51.9974 21.4944ZM46.5939 17.1646L48.3843 12.9142L50.1747 17.1646H46.5939Z" fill="white"/>
<path d="M55.8497 9.40913C56.4787 9.40913 56.9626 8.96505 56.9626 8.31479C56.9626 7.66454 56.4787 7.22046 55.8497 7.22046C55.2206 7.22046 54.7206 7.66454 54.7206 8.31479C54.7206 8.96505 55.2206 9.40913 55.8497 9.40913ZM59.1079 9.40913C59.737 9.40913 60.237 8.96505 60.237 8.31479C60.237 7.66454 59.737 7.22046 59.1079 7.22046C58.495 7.22046 57.995 7.66454 57.995 8.31479C57.995 8.96505 58.495 9.40913 59.1079 9.40913ZM56.1723 21.4944H58.7853V10.3924H56.1723V21.4944Z" fill="white"/>
<path d="M69.2718 10.3924V14.7698H64.1425V10.3924H61.5294V21.4944H64.1425V16.9426H69.2718V21.4944H71.8848V10.3924H69.2718Z" fill="white"/>
<path d="M83.3593 21.4944H86.1014L81.0528 10.3924H78.472L73.4395 21.4944H76.117L77.1171 19.1154H82.3593L83.3593 21.4944ZM77.9558 17.1646L79.7462 12.9142L81.5367 17.1646H77.9558Z" fill="white"/>
<path d="M18.3591 39.8474H10.3909V50.9494H12.9878L12.9717 41.9409H18.343L18.3591 39.8474Z" fill="url(#paint2_linear_40_2178)"/>
<path d="M24.8397 39.8474H19.9523V50.9494H22.5653V47.8884H24.8397C27.856 47.8884 29.7431 46.35 29.7431 43.8758C29.7431 41.3858 27.856 39.8474 24.8397 39.8474ZM24.6945 45.7949H22.5653V41.9409H24.6945C26.2914 41.9409 27.0978 42.6546 27.0978 43.8758C27.0978 45.0812 26.2914 45.7949 24.6945 45.7949Z" fill="url(#paint3_linear_40_2178)"/>
<path d="M37.0118 51.1397C40.5604 51.1397 43.1896 48.7131 43.1896 45.3984C43.1896 42.0837 40.5604 39.6571 37.0118 39.6571C33.4471 39.6571 30.8341 42.0995 30.8341 45.3984C30.8341 48.6973 33.4471 51.1397 37.0118 51.1397ZM37.0118 48.951C34.9956 48.951 33.4794 47.5078 33.4794 45.3984C33.4794 43.289 34.9956 41.8458 37.0118 41.8458C39.028 41.8458 40.5443 43.289 40.5443 45.3984C40.5443 47.5078 39.028 48.951 37.0118 48.951Z" fill="url(#paint4_linear_40_2178)"/>
<path d="M57.929 50.9494L57.9129 39.8474H55.7515L51.59 46.7465L47.3639 39.8474H45.2025V50.9494H47.6543V44.4309L50.977 49.7757H52.1384L55.4611 44.3041L55.4773 50.9494H57.929Z" fill="url(#paint5_linear_40_2178)"/>
<path d="M69.3795 50.9494H72.1216L67.0729 39.8474H64.4921L59.4596 50.9494H62.1371L63.1372 48.5704H68.3794L69.3795 50.9494ZM63.976 46.6196L65.7664 42.3692L67.5568 46.6196H63.976Z" fill="url(#paint6_linear_40_2178)"/>
<path d="M83.7784 48.8559V39.8474H75.1005L74.9715 43.3207C74.8586 46.4293 74.4876 48.8083 73.0198 48.8559H72.5681L72.552 53.2491H74.9715V50.9494H82.9397V53.2491H85.3592V48.8559H83.7784ZM77.2781 43.5586L77.3265 41.9409H81.1976V48.8559H76.149C76.9232 47.9518 77.1813 45.9218 77.2781 43.5586Z" fill="url(#paint7_linear_40_2178)"/>
<defs>
<linearGradient id="paint0_linear_40_2178" x1="47.2376" y1="0.876953" x2="47.2376" y2="30.3311" gradientUnits="userSpaceOnUse">
<stop stop-color="#79B1FE"/>
<stop offset="1" stop-color="#4F93EB"/>
</linearGradient>
<linearGradient id="paint1_linear_40_2178" x1="47.2376" y1="30.3306" x2="47.2376" y2="59.7847" gradientUnits="userSpaceOnUse">
<stop stop-color="#79B1FE"/>
<stop offset="1" stop-color="#4F93EB"/>
</linearGradient>
<linearGradient id="paint2_linear_40_2178" x1="47.875" y1="39.6571" x2="47.875" y2="53.2491" gradientUnits="userSpaceOnUse">
<stop stop-color="#79B1FE"/>
<stop offset="1" stop-color="#4F93EB"/>
</linearGradient>
<linearGradient id="paint3_linear_40_2178" x1="47.875" y1="39.6571" x2="47.875" y2="53.2491" gradientUnits="userSpaceOnUse">
<stop stop-color="#79B1FE"/>
<stop offset="1" stop-color="#4F93EB"/>
</linearGradient>
<linearGradient id="paint4_linear_40_2178" x1="47.875" y1="39.6571" x2="47.875" y2="53.2491" gradientUnits="userSpaceOnUse">
<stop stop-color="#79B1FE"/>
<stop offset="1" stop-color="#4F93EB"/>
</linearGradient>
<linearGradient id="paint5_linear_40_2178" x1="47.875" y1="39.6571" x2="47.875" y2="53.2491" gradientUnits="userSpaceOnUse">
<stop stop-color="#79B1FE"/>
<stop offset="1" stop-color="#4F93EB"/>
</linearGradient>
<linearGradient id="paint6_linear_40_2178" x1="47.875" y1="39.6571" x2="47.875" y2="53.2491" gradientUnits="userSpaceOnUse">
<stop stop-color="#79B1FE"/>
<stop offset="1" stop-color="#4F93EB"/>
</linearGradient>
<linearGradient id="paint7_linear_40_2178" x1="47.875" y1="39.6571" x2="47.875" y2="53.2491" gradientUnits="userSpaceOnUse">
<stop stop-color="#79B1FE"/>
<stop offset="1" stop-color="#4F93EB"/>
</linearGradient>
</defs>
</svg>
