<svg width="196" height="60" viewBox="0 0 196 60" fill="none" xmlns="http://www.w3.org/2000/svg">
<g id="logo1 2" clip-path="url(#clip0_40_2183)">
<path id="Vector" d="M79.4119 31.1075H83.7573L78.489 15.7445H73.6114L68.3539 31.1075H72.3079L73.3181 27.7325H78.4346L79.4119 31.1075ZM75.7946 19.2047H76.0012L77.6852 24.9218H74.0782L75.7946 19.2047Z" fill="white"/>
<path id="Vector_2" d="M86.1565 31.1073H89.9915V14.8181H86.1565V31.1073Z" fill="white"/>
<path id="Vector_3" d="M94.0652 16.5428V19.4174H92.2076V22.2174H94.0652V27.8601C94.0652 30.1811 95.3146 31.1286 98.4973 31.1286C99.2254 31.1286 99.9313 31.0648 100.333 30.9796V28.2966C100.05 28.3285 99.8115 28.3499 99.3666 28.3499C98.3672 28.3499 97.9002 27.9134 97.9002 27.019V22.2174H100.333V19.4174H97.9002V16.5428H94.0652Z" fill="white"/>
<path id="Vector_4" d="M108.263 21.6532C109.545 21.6532 110.348 22.473 110.413 23.8571H106.025C106.123 22.5156 107.002 21.6532 108.263 21.6532ZM110.554 27.6153C110.294 28.3073 109.522 28.7119 108.404 28.7119C106.938 28.7119 106.035 27.7537 106.003 26.2099V26.0183H114.139V24.975C114.139 21.1954 111.967 18.981 108.241 18.981C104.493 18.981 102.223 21.3551 102.223 25.2624C102.223 29.1484 104.439 31.3842 108.295 31.3842C111.423 31.3842 113.64 29.9256 114.063 27.6153H110.554Z" fill="white"/>
<path id="Vector_5" d="M116.529 31.1074H120.364V24.8366C120.364 23.1864 121.494 22.2495 123.188 22.2495C123.775 22.2495 124.546 22.3453 124.839 22.4624V19.2578C124.557 19.1406 123.96 19.0768 123.449 19.0768C121.939 19.0768 120.766 20.0137 120.473 21.2061H120.266V19.2578H116.529V31.1074Z" fill="white"/>
<path id="Vector_6" d="M126.913 31.1073H130.748V24.3362C130.748 22.9734 131.497 22.0578 132.746 22.0578C134.05 22.0578 134.647 22.8563 134.647 24.2936V31.1073H138.493V23.4525C138.493 20.6098 137.092 18.981 134.397 18.981C132.649 18.981 131.388 19.8433 130.856 21.1848H130.65V19.2577H126.913V31.1073Z" fill="white"/>
<path id="Vector_7" d="M146.076 28.6588C145.109 28.6588 144.468 28.1903 144.468 27.4344C144.468 26.7211 145.066 26.2846 146.207 26.1994L148.238 26.0717V26.8489C148.238 27.871 147.293 28.6588 146.076 28.6588ZM144.675 31.2885C146.207 31.2885 147.532 30.6497 148.075 29.6383H148.281V31.1075H152.018V23.0268C152.018 20.4716 150.117 18.9811 146.782 18.9811C143.513 18.9811 141.373 20.4077 141.199 22.7073H144.653C144.903 22.0792 145.555 21.7492 146.565 21.7492C147.63 21.7492 148.238 22.2282 148.238 23.0268V23.953L145.598 24.102C142.48 24.283 140.764 25.5393 140.764 27.7006C140.764 29.8725 142.35 31.2885 144.675 31.2885Z" fill="white"/>
<path id="Vector_8" d="M155.896 16.5428V19.4174H154.038V22.2174H155.896V27.8601C155.896 30.1811 157.145 31.1286 160.328 31.1286C161.056 31.1286 161.762 31.0648 162.163 30.9796V28.2966C161.881 28.3285 161.642 28.3499 161.197 28.3499C160.198 28.3499 159.731 27.9134 159.731 27.019V22.2174H162.163V19.4174H159.731V16.5428H155.896Z" fill="white"/>
<path id="Vector_9" d="M164.695 31.1074H168.54V19.2578H164.695V31.1074ZM166.618 17.6716C167.736 17.6716 168.66 16.8092 168.66 15.7126C168.66 14.616 167.736 13.7429 166.618 13.7429C165.499 13.7429 164.576 14.616 164.576 15.7126C164.576 16.8092 165.499 17.6716 166.618 17.6716Z" fill="white"/>
<path id="Vector_10" d="M183.052 19.2577H179.011L176.958 27.7323H176.752L174.656 19.2577H170.517L174.59 31.1073H179.022L183.052 19.2577Z" fill="white"/>
<path id="Vector_11" d="M189.93 21.6532C191.212 21.6532 192.016 22.473 192.081 23.8571H187.693C187.79 22.5156 188.67 21.6532 189.93 21.6532ZM192.222 27.6153C191.961 28.3073 191.19 28.7119 190.071 28.7119C188.605 28.7119 187.704 27.7537 187.67 26.2099V26.0183H195.807V24.975C195.807 21.1954 193.634 18.981 189.908 18.981C186.161 18.981 183.891 21.3551 183.891 25.2624C183.891 29.1484 186.106 31.3842 189.963 31.3842C193.091 31.3842 195.307 29.9256 195.731 27.6153H192.222Z" fill="white"/>
<path id="Vector_12" d="M117.505 45.8297C119.254 45.8297 120.541 44.8183 120.758 43.3012H119.547C119.33 44.1689 118.543 44.7172 117.505 44.7172C116.093 44.7172 115.213 43.594 115.213 41.8054C115.213 40.0114 116.093 38.8882 117.5 38.8882C118.532 38.8882 119.319 39.495 119.547 40.4373H120.758C120.563 38.8722 119.227 37.7756 117.5 37.7756C115.322 37.7756 113.969 39.3141 113.969 41.8054C113.969 44.2913 115.327 45.8297 117.505 45.8297Z" fill="white"/>
<path id="Vector_13" d="M128.258 37.7756C126.01 37.7756 124.598 39.3194 124.598 41.8001C124.598 44.2754 125.977 45.8297 128.258 45.8297C130.523 45.8297 131.914 44.27 131.914 41.8001C131.914 39.3247 130.513 37.7756 128.258 37.7756ZM128.258 38.8882C129.742 38.8882 130.67 40.0167 130.67 41.8001C130.67 43.5727 129.747 44.7172 128.258 44.7172C126.749 44.7172 125.842 43.5727 125.842 41.8001C125.842 40.0167 126.776 38.8882 128.258 38.8882Z" fill="white"/>
<path id="Vector_14" d="M144.054 45.6435V37.962H142.631L140.132 43.8389H140.04L137.547 37.962H136.124V45.6435H137.254V40.0967H137.33L139.627 45.4625H140.551L142.848 40.0967H142.924V45.6435H144.054Z" fill="white"/>
<path id="Vector_15" d="M156.509 45.6434V37.9619H155.086L152.587 43.8388H152.495L150.002 37.9619H148.579V45.6434H149.709V40.0965H149.785L152.082 45.4624H153.006L155.303 40.0965H155.379V45.6434H156.509Z" fill="white"/>
<path id="Vector_16" d="M166.01 44.5576H162.251V42.2526H165.808V41.2199H162.251V39.048H166.01V37.962H161.034V45.6435H166.01V44.5576Z" fill="white"/>
<path id="Vector_17" d="M171.543 39.0107H173.259C174.199 39.0107 174.775 39.5165 174.775 40.3522C174.775 41.2092 174.231 41.6989 173.292 41.6989H171.543V39.0107ZM171.543 42.7157H173.259L174.856 45.6435H176.263L174.503 42.5188C175.459 42.1994 176.024 41.3583 176.024 40.3256C176.024 38.8829 175.008 37.962 173.428 37.962H170.327V45.6435H171.543V42.7157Z" fill="white"/>
<path id="Vector_18" d="M183.53 45.8297C185.279 45.8297 186.567 44.8183 186.783 43.3012H185.572C185.355 44.1689 184.568 44.7172 183.53 44.7172C182.118 44.7172 181.238 43.594 181.238 41.8054C181.238 40.0114 182.118 38.8882 183.525 38.8882C184.557 38.8882 185.344 39.495 185.572 40.4373H186.783C186.588 38.8722 185.252 37.7756 183.525 37.7756C181.347 37.7756 179.995 39.3141 179.995 41.8054C179.995 44.2913 181.352 45.8297 183.53 45.8297Z" fill="white"/>
<path id="Vector_19" d="M195.919 44.5576H192.161V42.2526H195.718V41.2199H192.161V39.048H195.919V37.962H190.944V45.6435H195.919V44.5576Z" fill="white"/>
<path id="Vector_20" d="M16.0255 26.7241L0.182312 40.8178L6.60503 42.8629L16.0255 26.7241Z" fill="white"/>
<path id="Vector_21" d="M37.2125 52.6088L55.6621 58.4834L54.4126 52.6088H37.2125Z" fill="white"/>
<path id="Vector_22" d="M47.9731 22.338L43.6743 2.12781L38.7389 6.51826L47.9731 22.338Z" fill="white"/>
<path id="Vector_23" fill-rule="evenodd" clip-rule="evenodd" d="M33.2788 0.823853L4.11169 50.7917H62.4459L33.2788 0.823853ZM33.2788 19.1192L20.0941 41.7066H46.4635L33.2788 19.1192Z" fill="#019AD2"/>
</g>
<defs>
<clipPath id="clip0_40_2183">
<rect width="195.818" height="59.0135" fill="white" transform="translate(0.182373 0.823853)"/>
</clipPath>
</defs>
</svg>
