<svg width="207" height="34" viewBox="0 0 207 34" fill="none" xmlns="http://www.w3.org/2000/svg">
<g id="Group 83">
<g id="helpdesk">
<path d="M14.6013 17.7424V33.6628H10.9169V27.1355H3.68444V33.6628H0V17.7424H3.68444V24.0196H10.9169V17.7424H14.6013Z" fill="white"/>
<path d="M31.8322 30.7062V33.6628H19.5052V17.7424H31.5365V20.6991H23.1669V24.1561H30.5585V27.0217H23.1669V30.7062H31.8322Z" fill="white"/>
<path d="M35.9009 17.7424H39.5854V30.6607H47.5683V33.6628H35.9009V17.7424Z" fill="white"/>
<path d="M57.6554 17.7424C59.0655 17.7424 60.2861 17.9774 61.3171 18.4475C62.3633 18.9175 63.1669 19.5846 63.7279 20.4489C64.2889 21.3131 64.5694 22.3366 64.5694 23.5192C64.5694 24.6867 64.2889 25.7102 63.7279 26.5896C63.1669 27.4539 62.3633 28.121 61.3171 28.591C60.2861 29.0459 59.0655 29.2733 57.6554 29.2733H54.4486V33.6628H50.7641V17.7424H57.6554ZM57.4507 26.2712C58.5576 26.2712 59.3991 26.0362 59.9752 25.5662C60.5514 25.081 60.8395 24.3987 60.8395 23.5192C60.8395 22.6247 60.5514 21.9424 59.9752 21.4723C59.3991 20.9871 58.5576 20.7445 57.4507 20.7445H54.4486V26.2712H57.4507Z" fill="white"/>
<path d="M68.337 17.7424H75.5695C77.298 17.7424 78.8218 18.076 80.1409 18.7431C81.4752 19.3951 82.5062 20.32 83.234 21.5178C83.977 22.7156 84.3484 24.1106 84.3484 25.7026C84.3484 27.2947 83.977 28.6896 83.234 29.8874C82.5062 31.0852 81.4752 32.0177 80.1409 32.6849C78.8218 33.3368 77.298 33.6628 75.5695 33.6628H68.337V17.7424ZM75.3875 30.638C76.9795 30.638 78.2456 30.1982 79.1857 29.3188C80.1409 28.4243 80.6185 27.2189 80.6185 25.7026C80.6185 24.1864 80.1409 22.9886 79.1857 22.1092C78.2456 21.2146 76.9795 20.7673 75.3875 20.7673H72.0215V30.638H75.3875Z" fill="white"/>
<path d="M100.591 30.7062V33.6628H88.2642V17.7424H100.296V20.6991H91.9259V24.1561H99.3176V27.0217H91.9259V30.7062H100.591Z" fill="white"/>
<path d="M109.891 33.9358C108.632 33.9358 107.412 33.769 106.229 33.4354C105.062 33.0867 104.122 32.6394 103.409 32.0935L104.66 29.3188C105.342 29.8192 106.153 30.221 107.094 30.5242C108.034 30.8275 108.974 30.9791 109.914 30.9791C110.96 30.9791 111.733 30.8275 112.234 30.5242C112.734 30.2058 112.984 29.7889 112.984 29.2733C112.984 28.8943 112.832 28.5835 112.529 28.3409C112.241 28.0831 111.862 27.8784 111.392 27.7268C110.937 27.5752 110.315 27.4084 109.527 27.2264C108.314 26.9383 107.321 26.6503 106.548 26.3622C105.774 26.0741 105.107 25.6116 104.546 24.9748C104 24.338 103.727 23.4889 103.727 22.4276C103.727 21.5027 103.978 20.6687 104.478 19.9258C104.978 19.1677 105.729 18.5687 106.73 18.129C107.745 17.6893 108.981 17.4695 110.437 17.4695C111.453 17.4695 112.446 17.5908 113.416 17.8334C114.387 18.076 115.236 18.4247 115.963 18.8796L114.826 21.677C113.356 20.8431 111.885 20.4261 110.414 20.4261C109.383 20.4261 108.617 20.5929 108.117 20.9265C107.632 21.2601 107.389 21.6998 107.389 22.2456C107.389 22.7915 107.67 23.2008 108.231 23.4738C108.807 23.7315 109.679 23.9893 110.846 24.247C112.059 24.5351 113.052 24.8232 113.826 25.1113C114.599 25.3994 115.258 25.8542 115.804 26.4759C116.365 27.0976 116.646 27.9391 116.646 29.0004C116.646 29.9102 116.388 30.7441 115.872 31.5022C115.372 32.2452 114.614 32.8365 113.598 33.2762C112.582 33.7159 111.347 33.9358 109.891 33.9358Z" fill="white"/>
<path d="M126.1 27.4084L123.962 29.6372V33.6628H120.301V17.7424H123.962V25.1795L131.013 17.7424H135.107L128.511 24.8384L135.493 33.6628H131.195L126.1 27.4084Z" fill="white"/>
</g>
<g id="Group 41">
<g id="star">
<path d="M147.674 33.98C146.385 33.98 145.134 33.8208 143.921 33.5024C142.709 33.184 141.723 32.7594 140.965 32.2287L142.443 28.9082C143.156 29.3782 143.982 29.7573 144.922 30.0454C145.862 30.3334 146.787 30.4775 147.697 30.4775C149.425 30.4775 150.29 30.0454 150.29 29.1811C150.29 28.7262 150.039 28.3927 149.539 28.1804C149.054 27.953 148.265 27.7179 147.174 27.4753C145.976 27.2176 144.975 26.9447 144.172 26.6566C143.368 26.3533 142.678 25.8757 142.102 25.2237C141.526 24.5718 141.238 23.6923 141.238 22.5855C141.238 21.6151 141.503 20.7433 142.034 19.97C142.564 19.1816 143.353 18.5599 144.399 18.105C145.46 17.6502 146.757 17.4227 148.288 17.4227C149.334 17.4227 150.365 17.544 151.381 17.7866C152.397 18.0141 153.292 18.3552 154.065 18.8101L152.678 22.1534C151.162 21.3346 149.691 20.9252 148.265 20.9252C147.371 20.9252 146.719 21.0617 146.31 21.3346C145.9 21.5924 145.695 21.9335 145.695 22.3581C145.695 22.7826 145.938 23.101 146.423 23.3133C146.908 23.5256 147.689 23.7454 148.766 23.9729C149.979 24.2306 150.98 24.5111 151.768 24.8144C152.572 25.1024 153.261 25.5725 153.838 26.2245C154.429 26.8613 154.725 27.7331 154.725 28.84C154.725 29.7952 154.459 30.6594 153.929 31.4327C153.398 32.206 152.602 32.8276 151.541 33.2977C150.479 33.7525 149.19 33.98 147.674 33.98Z" fill="#0085FF"/>
<path d="M161.109 21.3119H156.219V17.7411H170.479V21.3119H165.612V33.6616H161.109V21.3119Z" fill="#0085FF"/>
<path d="M183.161 30.5685H176.429L175.178 33.6616H170.584L177.612 17.7411H182.046L189.097 33.6616H184.412L183.161 30.5685ZM181.842 27.2479L179.795 22.1534L177.748 27.2479H181.842Z" fill="#0085FF"/>
<path d="M198.47 29.4313H196.014V33.6616H191.511V17.7411H198.789C200.229 17.7411 201.48 17.9837 202.541 18.4689C203.603 18.939 204.422 19.6213 204.998 20.5158C205.574 21.3953 205.862 22.4339 205.862 23.6317C205.862 24.784 205.589 25.7923 205.043 26.6566C204.512 27.5057 203.747 28.1728 202.746 28.658L206.18 33.6616H201.359L198.47 29.4313ZM201.313 23.6317C201.313 22.8887 201.078 22.3126 200.608 21.9032C200.138 21.4938 199.441 21.2891 198.516 21.2891H196.014V25.9515H198.516C199.441 25.9515 200.138 25.7544 200.608 25.3602C201.078 24.9508 201.313 24.3747 201.313 23.6317Z" fill="#0085FF"/>
</g>
</g>
<g id="Group 77">
<g id="Group 78">
<g id="Group 79">
<path id="Vector" d="M106.365 9.15393C106.365 10.5961 105.21 11.7692 103.791 11.7692C105.21 11.7692 106.365 12.9424 106.365 14.3845C106.365 12.9424 107.52 11.7692 108.939 11.7692C107.52 11.7767 106.365 10.6036 106.365 9.15393Z" fill="#0085FF"/>
<path id="Vector_2" d="M120.094 10.461C117.963 10.461 116.232 8.70788 116.232 6.53809C116.232 8.70247 114.507 10.461 112.371 10.461C114.502 10.461 116.232 12.2142 116.232 14.384C116.238 12.2142 117.963 10.461 120.094 10.461Z" fill="#0085FF"/>
<path id="Vector_3" d="M129.321 0C129.321 3.61202 126.534 6.53515 123.097 6.53515C126.534 6.53515 129.321 9.46448 129.321 13.0765C129.321 9.46448 132.108 6.53515 135.539 6.53515C132.108 6.53515 129.321 3.61202 129.321 0Z" fill="#0085FF"/>
</g>
</g>
</g>
</g>
</svg>
