<svg width="266" height="67" viewBox="0 0 266 67" fill="none" xmlns="http://www.w3.org/2000/svg">
<path fill-rule="evenodd" clip-rule="evenodd" d="M65 51.6495H70.3741V11.8679H84.1033V7.4474H65V51.6495ZM93.0442 49.3252C93.8256 47.9922 94.5505 46.4731 94.9008 44.9478C95.3993 42.8282 95.4817 39.0268 95.6066 38.5378C95.6898 38.2119 95.7314 29.3219 95.7314 11.8679L106.209 11.8875V51.8634H111.512V7.4474H90.7479V38.5378C90.7085 40.2167 90.2892 42.3668 89.9174 43.9992C89.6584 45.1418 89.6668 45.5482 89.0868 46.5493C88.66 47.2925 87.3817 48.1033 86.6525 48.5013C85.9525 48.849 85.1875 49.024 84.4148 49.013V51.8634C84.7373 52.0055 85.0728 52.1118 85.4159 52.1807C86.2427 52.4077 87.0947 52.5144 87.9485 52.4979C88.9074 52.4937 89.8497 52.232 90.6876 51.7372C91.6492 51.1514 92.4586 50.3231 93.0442 49.3252ZM125.794 27.3673C124.536 25.976 123.907 23.6146 123.905 20.283C123.905 16.9531 124.535 14.5923 125.793 13.2005C127.052 11.8087 129.061 11.1131 131.822 11.1136L136.083 11.1136V29.455H131.822C129.062 29.4541 127.052 28.7585 125.794 27.3673ZM123.905 34.7626C123.004 36.2318 122.384 37.8627 122.078 39.5688L120.861 44.9444C120.611 46.0622 120.087 47.0962 119.338 47.9485C118.416 48.7701 117.206 49.1694 115.989 49.0535V51.9046C116.368 52.0345 116.755 52.1401 117.146 52.2208C117.96 52.4423 118.8 52.5487 119.643 52.537C123.093 52.537 125.427 50.0073 126.645 44.9478L127.863 39.5722C128.39 37.3802 129.181 35.8836 130.238 35.0822C131.214 34.3092 132.413 33.8871 133.647 33.8811H136.083V51.9046H141.564V8.26939C140.041 7.81003 138.483 7.48218 136.907 7.28929C135.219 7.09238 133.521 6.9973 131.823 7.00453C129.73 6.96296 127.641 7.20767 125.611 7.73216C124.056 8.13137 122.629 8.93785 121.471 10.0723C120.368 11.2294 119.571 12.6545 119.154 14.2137C118.63 16.1917 118.385 18.2359 118.424 20.2847C118.393 21.98 118.64 23.6685 119.154 25.2804C119.577 26.5932 120.216 27.8228 121.042 28.9169C121.761 29.8634 122.663 30.6489 123.69 31.2248C124.61 31.7466 125.608 32.1098 126.643 32.3001V32.5551C125.514 32.9494 124.547 33.7289 123.905 34.7626ZM168.247 7.4474V27.0229H155.277V7.4474H149.719V51.6495H155.277V31.4434H168.247V51.6495H173.806V7.4474H168.247ZM187.609 30.8119H201.043V26.3914H187.609V11.8679H202.876V7.4474H182.112V51.6495H202.874V47.2299H187.609V30.8119ZM233.542 61H236.93V47.1395H232.927V7.4474H227.382V47.1395H215.065V7.4474H209.521V51.5491H231.692C231.869 54.771 232.491 57.9523 233.542 61ZM252.378 29.455C255.139 29.455 257.148 30.1611 258.406 31.5733C259.664 32.9855 260.293 35.4412 260.294 38.9406C260.294 42.4405 259.665 44.8963 258.406 46.3079C257.147 47.7195 255.138 48.4259 252.378 48.427H248.118V29.455H252.378ZM248.253 25.5296V7.4474H242.744V51.2258C244.274 51.6874 245.84 52.0163 247.425 52.2091C249.121 52.4067 250.827 52.5021 252.534 52.4948C254.639 52.5385 256.739 52.2822 258.775 51.7333C260.337 51.3133 261.768 50.4945 262.936 49.3539C264.053 48.1753 264.854 46.7222 265.261 45.135C265.789 43.0862 266.037 40.9724 265.996 38.854C265.996 33.7781 265.047 30.1826 263.15 28.0676C261.253 25.9526 258.326 24.8952 254.369 24.8952C253.308 24.9028 252.247 24.9665 251.192 25.0862C250.204 25.1822 249.224 25.3305 248.253 25.5296Z" fill="#333333"/>
<path d="M31.6908 6.99988C17.2034 11.8548 4.98287 21.7522 0 36.4999C4.92596 51.0794 17.0317 61.0873 31.6908 65.9999C44.7261 56.0136 51.8342 47.9937 57.0634 36.4999C49.5576 31.4926 46.4047 28.9148 40.3193 21.1663C32.166 24.9288 25.0691 29.3135 18.7823 36.3398C21.0384 39.533 24.7841 42.5137 27.8126 44.9626C32.2262 41.7397 35.5921 38.5995 37.7723 35.9051C39.1394 37.5649 40.6809 38.6693 42.149 39.5925C38.3567 46.0032 34.1007 49.5229 28.8452 52.8847C20.9513 48.7323 14.606 41.5448 11.522 35.4675C17.3024 25.9977 26.3688 19.6036 36.6707 16.0402C35.0017 13.1356 32.8141 10.4306 31.6908 6.99988Z" fill="#333333"/>
<path d="M67.756 64.1439C69.28 64.1439 70.336 62.9679 70.336 61.0958C70.336 59.2118 69.28 58.0598 67.756 58.0598C66.94 58.0598 66.22 58.4799 65.8 59.0679V58.2039H64.9V66.2079H65.8V63.1239C66.268 63.7719 66.964 64.1439 67.756 64.1439ZM67.528 63.3399C66.82 63.3399 66.112 62.9079 65.8 62.4039V59.7879C66.112 59.2839 66.82 58.8638 67.528 58.8638C68.692 58.8638 69.388 59.8119 69.388 61.0958C69.388 62.3799 68.692 63.3399 67.528 63.3399Z" fill="#333333"/>
<path d="M74.2992 64.1439C76.0632 64.1439 77.1672 62.7759 77.1672 61.0958C77.1672 59.4158 76.0632 58.0598 74.2992 58.0598C72.5352 58.0598 71.4312 59.4158 71.4312 61.0958C71.4312 62.7759 72.5352 64.1439 74.2992 64.1439ZM74.2992 63.3399C73.0632 63.3399 72.3672 62.2839 72.3672 61.0958C72.3672 59.9199 73.0632 58.8638 74.2992 58.8638C75.5352 58.8638 76.2192 59.9199 76.2192 61.0958C76.2192 62.2839 75.5352 63.3399 74.2992 63.3399Z" fill="#333333"/>
<path d="M80.6864 64.1439C82.3544 64.1439 83.3384 63.4239 83.3384 62.4518C83.3384 61.4918 82.3304 61.0838 81.6584 61.0359C82.3424 60.9518 83.2184 60.4839 83.2184 59.6199C83.2184 58.6358 82.1144 58.0598 80.5544 58.0719C79.4984 58.0719 78.7184 58.4439 78.1784 58.9959L78.6464 59.5479C79.1384 59.0439 79.7744 58.8038 80.5904 58.8038C81.5504 58.8038 82.2824 59.1759 82.2824 59.7279C82.2824 60.3878 81.5264 60.6999 80.5664 60.6999H79.2704V61.4318H80.5664C81.5864 61.4318 82.3904 61.6719 82.3904 62.3919C82.3904 63.0039 81.7184 63.3999 80.6864 63.3999C79.8224 63.3999 79.0544 63.1358 78.5144 62.6199L78.0704 63.1959C78.6464 63.7719 79.5224 64.1439 80.6864 64.1439Z" fill="#333333"/>
<path d="M87.6545 64.1439C89.1785 64.1439 90.2345 62.9679 90.2345 61.0958C90.2345 59.2118 89.1785 58.0598 87.6545 58.0598C86.8385 58.0598 86.1185 58.4799 85.6985 59.0679V58.2039H84.7985V66.2079H85.6985V63.1239C86.1665 63.7719 86.8625 64.1439 87.6545 64.1439ZM87.4265 63.3399C86.7185 63.3399 86.0105 62.9079 85.6985 62.4039V59.7879C86.0105 59.2839 86.7185 58.8638 87.4265 58.8638C88.5905 58.8638 89.2865 59.8119 89.2865 61.0958C89.2865 62.3799 88.5905 63.3399 87.4265 63.3399Z" fill="#333333"/>
<path d="M94.1976 64.1439C95.9616 64.1439 97.0657 62.7759 97.0657 61.0958C97.0657 59.4158 95.9616 58.0598 94.1976 58.0598C92.4336 58.0598 91.3296 59.4158 91.3296 61.0958C91.3296 62.7759 92.4336 64.1439 94.1976 64.1439ZM94.1976 63.3399C92.9616 63.3399 92.2656 62.2839 92.2656 61.0958C92.2656 59.9199 92.9616 58.8638 94.1976 58.8638C95.4336 58.8638 96.1176 59.9199 96.1176 61.0958C96.1176 62.2839 95.4336 63.3399 94.1976 63.3399Z" fill="#333333"/>
<path d="M101.065 63.3399C99.8288 63.3399 99.1328 62.2838 99.1328 61.0838C99.1328 59.9199 99.8288 58.8638 101.065 58.8638C102.301 58.8638 102.985 59.9199 102.985 61.0838C102.985 62.2838 102.301 63.3399 101.065 63.3399ZM101.065 64.1439C102.853 64.1439 103.921 62.7519 103.921 61.0838C103.921 59.4398 102.853 58.0598 101.209 58.0598C100.177 58.0598 99.4448 58.6358 99.0248 59.2959C99.2288 58.3118 99.7448 57.5679 101.461 57.3278C102.445 57.1958 103.741 56.9439 103.741 55.9958H102.865C102.865 56.2359 102.505 56.3919 101.233 56.5838C99.2168 56.8479 98.1968 58.0118 98.1968 60.8319C98.1968 62.7519 99.2888 64.1439 101.065 64.1439Z" fill="#333333"/>
<path d="M110.559 63.9999L107.979 60.8319L110.547 58.2039H109.407L106.359 61.2879V58.2039H105.459V63.9999H106.359V62.3439L107.319 61.3959L109.407 63.9999H110.559Z" fill="#333333"/>
<path d="M116.147 63.9999V60.0159C116.147 58.6118 115.127 58.0598 113.903 58.0598C112.955 58.0598 112.211 58.3719 111.587 59.0199L112.007 59.6439C112.523 59.0919 113.087 58.8399 113.783 58.8399C114.623 58.8399 115.247 59.2839 115.247 60.0639V61.1079C114.779 60.5679 114.119 60.3159 113.327 60.3159C112.343 60.3159 111.299 60.9279 111.299 62.2239C111.299 63.4839 112.343 64.1439 113.327 64.1439C114.107 64.1439 114.767 63.8679 115.247 63.3399V63.9999H116.147ZM113.651 63.4959C112.811 63.4959 112.223 62.9679 112.223 62.2359C112.223 61.4919 112.811 60.9639 113.651 60.9639C114.287 60.9639 114.899 61.2039 115.247 61.6839V62.7759C114.899 63.2559 114.287 63.4959 113.651 63.4959Z" fill="#333333"/>
<path d="M123.001 63.9999V58.9959H124.693V58.2039H120.421V58.9959H122.101V63.9999H123.001Z" fill="#333333"/>
<path d="M130.397 63.9999V60.0159C130.397 58.6118 129.377 58.0598 128.153 58.0598C127.205 58.0598 126.461 58.3719 125.837 59.0199L126.257 59.6439C126.773 59.0919 127.337 58.8399 128.033 58.8399C128.873 58.8399 129.497 59.2839 129.497 60.0639V61.1079C129.029 60.5679 128.369 60.3159 127.577 60.3159C126.593 60.3159 125.549 60.9279 125.549 62.2239C125.549 63.4839 126.593 64.1439 127.577 64.1439C128.357 64.1439 129.017 63.8679 129.497 63.3399V63.9999H130.397ZM127.901 63.4959C127.061 63.4959 126.473 62.9679 126.473 62.2359C126.473 61.4919 127.061 60.9639 127.901 60.9639C128.537 60.9639 129.149 61.2039 129.497 61.6839V62.7759C129.149 63.2559 128.537 63.4959 127.901 63.4959Z" fill="#333333"/>
<path d="M140.119 63.9999V58.2039H135.295V63.9999H136.195V58.9959H139.219V63.9999H140.119Z" fill="#333333"/>
<path d="M142.36 57.3758C142.696 57.3758 142.972 57.1119 142.972 56.7758C142.972 56.4398 142.696 56.1638 142.36 56.1638C142.036 56.1638 141.76 56.4398 141.76 56.7758C141.76 57.1119 142.036 57.3758 142.36 57.3758ZM142.816 63.9999V58.2039H141.916V63.9999H142.816Z" fill="#333333"/>
<path d="M143.927 65.4759H144.827V63.9999H149.207V65.4759H150.107V63.2079H149.435V58.2039H145.403L145.031 61.0599C144.803 62.7759 144.467 63.1599 143.927 63.2559V65.4759ZM146.195 58.9959H148.535V63.2079H145.091C145.511 62.8719 145.787 62.2599 145.931 61.1679L146.195 58.9959Z" fill="#333333"/>
<path d="M153.294 63.9999V58.9959H154.986V58.2039H150.714V58.9959H152.394V63.9999H153.294Z" fill="#333333"/>
<path d="M159.022 64.1439C160.546 64.1439 161.602 62.9679 161.602 61.0958C161.602 59.2118 160.546 58.0598 159.022 58.0598C158.206 58.0598 157.486 58.4799 157.066 59.0679V58.2039H156.166V66.2079H157.066V63.1239C157.534 63.7719 158.23 64.1439 159.022 64.1439ZM158.794 63.3399C158.086 63.3399 157.378 62.9079 157.066 62.4039V59.7879C157.378 59.2839 158.086 58.8638 158.794 58.8638C159.958 58.8638 160.654 59.8119 160.654 61.0958C160.654 62.3799 159.958 63.3399 158.794 63.3399Z" fill="#333333"/>
<path d="M163.897 63.9999L166.957 59.4879V63.9999H167.857V58.2039H166.969L163.933 62.6319V58.2039H163.033V63.9999H163.897Z" fill="#333333"/>
<path d="M175.57 63.9999V58.2039H174.37L172.618 62.4999L170.842 58.2039H169.654V63.9999H170.554V59.4519L172.45 63.9999H172.786L174.67 59.4519V63.9999H175.57Z" fill="#333333"/>
<path d="M182.465 63.9999L179.885 60.8319L182.453 58.2039H181.313L178.265 61.2879V58.2039H177.365V63.9999H178.265V62.3439L179.225 61.3959L181.313 63.9999H182.465Z" fill="#333333"/>
<path d="M188.053 63.9999V60.0159C188.053 58.6118 187.033 58.0598 185.809 58.0598C184.861 58.0598 184.117 58.3719 183.493 59.0199L183.913 59.6439C184.429 59.0919 184.993 58.8399 185.689 58.8399C186.529 58.8399 187.153 59.2839 187.153 60.0639V61.1079C186.685 60.5679 186.025 60.3159 185.233 60.3159C184.249 60.3159 183.205 60.9279 183.205 62.2239C183.205 63.4839 184.249 64.1439 185.233 64.1439C186.013 64.1439 186.673 63.8679 187.153 63.3399V63.9999H188.053ZM185.557 63.4959C184.717 63.4959 184.129 62.9679 184.129 62.2359C184.129 61.4919 184.717 60.9639 185.557 60.9639C186.193 60.9639 186.805 61.2039 187.153 61.6839V62.7759C186.805 63.2559 186.193 63.4959 185.557 63.4959Z" fill="#333333"/>
<path d="M195.507 64.1439C196.563 64.1439 197.187 63.7119 197.631 63.1359L197.031 62.5839C196.647 63.0999 196.155 63.3399 195.555 63.3399C194.319 63.3399 193.551 62.3799 193.551 61.0958C193.551 59.8119 194.319 58.8638 195.555 58.8638C196.155 58.8638 196.647 59.0919 197.031 59.6199L197.631 59.0679C197.187 58.4918 196.563 58.0598 195.507 58.0598C193.779 58.0598 192.615 59.3798 192.615 61.0958C192.615 62.8239 193.779 64.1439 195.507 64.1439Z" fill="#333333"/>
<path d="M203.416 63.9999V60.0159C203.416 58.6118 202.396 58.0598 201.172 58.0598C200.224 58.0598 199.48 58.3719 198.856 59.0199L199.276 59.6439C199.792 59.0919 200.356 58.8399 201.052 58.8399C201.892 58.8399 202.516 59.2839 202.516 60.0639V61.1079C202.048 60.5679 201.388 60.3159 200.596 60.3159C199.612 60.3159 198.568 60.9279 198.568 62.2239C198.568 63.4839 199.612 64.1439 200.596 64.1439C201.376 64.1439 202.036 63.8679 202.516 63.3399V63.9999H203.416ZM200.92 63.4959C200.08 63.4959 199.492 62.9679 199.492 62.2359C199.492 61.4919 200.08 60.9639 200.92 60.9639C201.556 60.9639 202.168 61.2039 202.516 61.6839V62.7759C202.168 63.2559 201.556 63.4959 200.92 63.4959Z" fill="#333333"/>
<path d="M206.084 63.9999L209.144 59.4879V63.9999H210.044V58.2039H209.156L206.12 62.6319V58.2039H205.22V63.9999H206.084ZM209.732 56.4878L209.288 56.1038C208.916 56.6438 208.328 56.9678 207.632 56.9678C206.924 56.9678 206.348 56.6319 205.964 56.1038L205.52 56.4878C206.012 57.1358 206.78 57.5438 207.632 57.5438C208.496 57.5438 209.252 57.1358 209.732 56.4878Z" fill="#333333"/>
<path d="M213.797 63.9999V58.9959H215.489V58.2039H211.217V58.9959H212.897V63.9999H213.797Z" fill="#333333"/>
<path d="M217.114 57.3758C217.45 57.3758 217.726 57.1119 217.726 56.7758C217.726 56.4398 217.45 56.1638 217.114 56.1638C216.79 56.1638 216.514 56.4398 216.514 56.7758C216.514 57.1119 216.79 57.3758 217.114 57.3758ZM217.57 63.9999V58.2039H216.67V63.9999H217.57Z" fill="#333333"/>
<path d="M222.617 63.9999C223.685 63.9999 224.309 63.3639 224.309 62.4279C224.309 61.7679 223.841 61.1559 223.253 61.0119C223.745 60.8559 224.189 60.3878 224.189 59.6918C224.189 58.8159 223.577 58.2039 222.557 58.2039H219.365V63.9999H222.617ZM222.437 63.2079H220.265V61.4199H222.437C223.049 61.4199 223.373 61.8519 223.373 62.3199C223.373 62.8719 223.013 63.2079 222.437 63.2079ZM222.401 60.6279H220.265V58.9959H222.401C222.953 58.9959 223.265 59.3199 223.265 59.8239C223.265 60.2799 222.965 60.6279 222.401 60.6279Z" fill="#333333"/>
<path d="M253.856 5.99998V0.995979H255.548V0.203979H251.276V0.995979H252.956V5.99998H253.856Z" fill="#333333"/>
<path d="M262.644 5.99998V0.203979H261.444L259.692 4.49998L257.916 0.203979H256.728V5.99998H257.628V1.45198L259.524 5.99998H259.86L261.744 1.45198V5.99998H262.644Z" fill="#333333"/>
</svg>
