<svg width="35" height="35" viewBox="0 0 35 35" fill="none" xmlns="http://www.w3.org/2000/svg">
<g id="social">
<path id="back" fill-rule="evenodd" clip-rule="evenodd" d="M0 17.5C0 7.83502 7.83502 0 17.5 0C27.165 0 35 7.83502 35 17.5C35 27.165 27.165 35 17.5 35C7.83502 35 0 27.165 0 17.5Z" fill="url(#paint0_linear_8_414)"/>
<rect id="Rectangle 135" width="35" height="35" rx="5" fill="url(#paint1_linear_8_414)"/>
<g id="Union">
<path fill-rule="evenodd" clip-rule="evenodd" d="M12.7079 17.5001C12.7079 14.8531 14.854 12.7069 17.501 12.7069C20.1479 12.7071 22.2933 14.8531 22.2933 17.5001C22.2933 20.1471 20.148 22.2922 17.501 22.2922C14.854 22.2922 12.7079 20.1471 12.7079 17.5001ZM20.6121 17.5003C20.6121 15.782 19.2191 14.3892 17.501 14.3892C15.7826 14.3892 14.3898 15.782 14.3898 17.5003C14.3898 19.2184 15.7826 20.6114 17.501 20.6114C19.2191 20.6114 20.6121 19.2184 20.6121 17.5003Z" fill="white"/>
<path d="M21.363 12.5182C21.363 11.8996 21.8647 11.3985 22.483 11.3985C23.1014 11.3985 23.6031 11.8998 23.6031 12.5182C23.6031 13.1365 23.1014 13.6382 22.483 13.6382C21.8647 13.6382 21.363 13.1365 21.363 12.5182Z" fill="white"/>
<path fill-rule="evenodd" clip-rule="evenodd" d="M13.6524 8.22314C14.648 8.17783 14.9661 8.16675 17.5009 8.16675H17.498C20.0336 8.16675 20.3505 8.17783 21.3461 8.22314C22.3397 8.26864 23.0183 8.42595 23.6133 8.65675C24.2278 8.89495 24.7469 9.21384 25.2661 9.73301C25.7853 10.2518 26.1042 10.7725 26.3433 11.3864C26.5728 11.9798 26.7303 12.6581 26.777 13.6517C26.8217 14.6473 26.8334 14.9654 26.8334 17.5002C26.8334 20.035 26.8217 20.3523 26.777 21.3479C26.7303 22.3411 26.5728 23.0195 26.3433 23.6132C26.1042 24.2269 25.7853 24.7476 25.2661 25.2664C24.7475 25.7855 24.2276 26.1052 23.6139 26.3436C23.0201 26.5744 22.3411 26.7317 21.3474 26.7772C20.3519 26.8225 20.0347 26.8336 17.4997 26.8336C14.9651 26.8336 14.6472 26.8225 13.6516 26.7772C12.6582 26.7317 11.9798 26.5744 11.3859 26.3436C10.7725 26.1052 10.2517 25.7855 9.73315 25.2664C9.21417 24.7476 8.89528 24.2269 8.65669 23.613C8.42608 23.0195 8.26877 22.3413 8.22308 21.3477C8.17796 20.3521 8.16669 20.035 8.16669 17.5002C8.16669 14.9654 8.17835 14.6471 8.22288 13.6515C8.2676 12.6583 8.42511 11.9798 8.6565 11.3862C8.89567 10.7725 9.21456 10.2518 9.73373 9.73301C10.2525 9.21404 10.7732 8.89514 11.3871 8.65675C11.9806 8.42595 12.6588 8.26864 13.6524 8.22314ZM17.1899 9.84864C17.0011 9.84855 16.8262 9.84847 16.6636 9.84873V9.84639C14.9241 9.84834 14.5905 9.86001 13.7295 9.8989C12.8194 9.9407 12.3254 10.0924 11.9964 10.2207C11.5608 10.3903 11.2497 10.5925 10.923 10.9192C10.5963 11.2458 10.3937 11.5569 10.2246 11.9925C10.0968 12.3215 9.94475 12.8154 9.90313 13.7254C9.85841 14.7093 9.84947 15.0033 9.84947 17.4957C9.84947 19.9881 9.85841 20.2837 9.90313 21.2676C9.94455 22.1776 10.0968 22.6715 10.2246 23.0001C10.3941 23.4359 10.5963 23.7462 10.923 24.0729C11.2497 24.3995 11.5608 24.6018 11.9964 24.7709C12.3255 24.8987 12.8194 25.0507 13.7295 25.0927C14.7134 25.1375 15.0087 25.1472 17.5009 25.1472C19.993 25.1472 20.2885 25.1375 21.2724 25.0927C22.1824 25.0511 22.6767 24.8995 23.0053 24.7711C23.4411 24.602 23.7512 24.3997 24.0779 24.0731C24.4046 23.7466 24.6072 23.4365 24.7763 23.0009C24.9041 22.6723 25.0562 22.1784 25.0978 21.2684C25.1425 20.2845 25.1522 19.9889 25.1522 17.4981C25.1522 15.0072 25.1425 14.7116 25.0978 13.7277C25.0563 12.8177 24.9041 12.3238 24.7763 11.9952C24.6068 11.5597 24.4046 11.2485 24.0779 10.9219C23.7514 10.5952 23.4409 10.393 23.0053 10.2238C22.6763 10.0961 22.1824 9.94401 21.2724 9.9024C20.2883 9.85767 19.993 9.84873 17.5009 9.84873L17.1899 9.84864Z" fill="white"/>
</g>
</g>
<defs>
<linearGradient id="paint0_linear_8_414" x1="29.4014" y1="35" x2="6.53485" y2="6.28319e-07" gradientUnits="userSpaceOnUse">
<stop stop-color="#E09B3D"/>
<stop offset="0.3" stop-color="#C74C4D"/>
<stop offset="0.6" stop-color="#C21975"/>
<stop offset="1" stop-color="#7024C4"/>
</linearGradient>
<linearGradient id="paint1_linear_8_414" x1="29.4014" y1="35" x2="6.53485" y2="6.28319e-07" gradientUnits="userSpaceOnUse">
<stop stop-color="#E09B3D"/>
<stop offset="0.3" stop-color="#C74C4D"/>
<stop offset="0.6" stop-color="#C21975"/>
<stop offset="1" stop-color="#7024C4"/>
</linearGradient>
</defs>
</svg>
