<svg width="35" height="35" viewBox="0 0 35 35" fill="none" xmlns="http://www.w3.org/2000/svg">
<g id="social">
<path id="Oval-path" fill-rule="evenodd" clip-rule="evenodd" d="M17.5 35C27.165 35 35 27.165 35 17.5C35 7.83502 27.165 0 17.5 0C7.83502 0 0 7.83502 0 17.5C0 27.165 7.83502 35 17.5 35Z" fill="#675DA9"/>
<rect id="Rectangle 135" width="35" height="35" rx="5" fill="#675DA9"/>
<g id="Vector">
<path d="M27.3271 13.1001L27.3209 13.0754C26.8246 11.0519 24.5868 8.88067 22.5318 8.42895L22.5086 8.42414C19.1848 7.78473 15.8145 7.78473 12.4913 8.42414L12.4675 8.42895C10.4131 8.88067 8.17538 11.0519 7.67833 13.0754L7.67288 13.1001C7.05924 15.9259 7.05924 18.7916 7.67288 21.6174L7.67833 21.6421C8.15417 23.5792 10.2253 25.6507 12.2036 26.2204V28.4791C12.2036 29.2966 13.1915 29.6981 13.7534 29.1082L16.0228 26.7294C16.515 26.7571 17.0075 26.7726 17.5 26.7726C19.1732 26.7726 20.847 26.6131 22.5086 26.2934L22.5318 26.2886C24.5868 25.8369 26.8246 23.6656 27.3209 21.6422L27.3271 21.6174C27.9407 18.7916 27.9407 15.9259 27.3271 13.1001ZM25.5312 21.2076C25.1998 22.5277 23.5007 24.1688 22.1507 24.472C20.3833 24.8109 18.602 24.9558 16.8225 24.9061C16.7871 24.9051 16.753 24.9189 16.7284 24.9445C16.4758 25.2059 15.0713 26.6598 15.0713 26.6598L13.3088 28.4838C13.18 28.6193 12.9536 28.5271 12.9536 28.3401V24.5984C12.9536 24.5366 12.9098 24.4841 12.8496 24.4722L12.8486 24.472C11.4986 24.1687 9.80016 22.5276 9.46811 21.2075C8.91584 18.6533 8.91584 16.064 9.46811 13.5098C9.80016 12.1897 11.4986 10.5486 12.8486 10.2454C15.9352 9.65339 19.0648 9.65339 22.1507 10.2454C23.5014 10.5486 25.1998 12.1897 25.5312 13.5098C26.0841 16.0641 26.0841 18.6534 25.5312 21.2076Z" fill="white"/>
<path d="M20.4367 22.9346C20.2292 22.8711 20.0314 22.8284 19.8477 22.7515C17.9443 21.9552 16.1926 20.9279 14.805 19.3531C14.0159 18.4575 13.3983 17.4465 12.8763 16.3766C12.6287 15.8692 12.4201 15.3419 12.2074 14.8181C12.0135 14.3404 12.2991 13.8468 12.5999 13.4869C12.8821 13.1491 13.2452 12.8906 13.6385 12.7001C13.9454 12.5514 14.2482 12.6371 14.4724 12.8995C14.9571 13.4667 15.4022 14.0629 15.7627 14.7204C15.9844 15.1248 15.9235 15.6192 15.5218 15.8944C15.4242 15.9613 15.3352 16.0398 15.2442 16.1154C15.1645 16.1816 15.0894 16.2485 15.0347 16.3381C14.9348 16.5022 14.93 16.6957 14.9944 16.874C15.4898 18.2469 16.3248 19.3144 17.6951 19.8894C17.9144 19.9814 18.1346 20.0885 18.3872 20.0588C18.8103 20.009 18.9473 19.541 19.2437 19.2966C19.5335 19.0576 19.9038 19.0545 20.216 19.2537C20.5282 19.4529 20.8308 19.6668 21.1316 19.883C21.4269 20.0951 21.7209 20.3027 21.9933 20.5446C22.2552 20.7772 22.3454 21.0823 22.1979 21.398C21.9279 21.976 21.5351 22.457 20.9683 22.764C20.8083 22.8505 20.6172 22.8786 20.4367 22.9346C20.6172 22.8786 20.2292 22.871 20.4367 22.9346ZM17.5052 12.0391C19.9949 12.1094 22.0398 13.7755 22.478 16.2576C22.5526 16.6805 22.5792 17.1129 22.6124 17.5421C22.6264 17.7226 22.525 17.8942 22.3318 17.8965C22.1322 17.8989 22.0424 17.7305 22.0295 17.5501C22.0038 17.1928 21.986 16.834 21.9372 16.4797C21.6795 14.6095 20.2006 13.0623 18.3546 12.7303C18.0768 12.6803 17.7925 12.6672 17.5111 12.6374C17.3332 12.6185 17.1002 12.6077 17.0608 12.3847C17.0278 12.1978 17.1842 12.0489 17.3608 12.0394C17.4088 12.0367 17.457 12.0389 17.5052 12.0391C19.9949 12.1094 17.457 12.0389 17.5052 12.0391Z" fill="white"/>
<path d="M21.2888 16.9849C21.2847 17.0163 21.2825 17.09 21.2643 17.1594C21.1982 17.4115 20.8193 17.4431 20.732 17.1887C20.7062 17.1132 20.7023 17.0273 20.7021 16.946C20.7013 16.4143 20.5866 15.8831 20.3207 15.4204C20.0474 14.9449 19.6298 14.5452 19.1399 14.3033C18.8438 14.1571 18.5234 14.0662 18.1988 14.012C18.0569 13.9884 17.9136 13.974 17.771 13.954C17.5982 13.9298 17.506 13.8188 17.5141 13.6471C17.5218 13.4862 17.6384 13.3705 17.8122 13.3804C18.3836 13.4131 18.9355 13.5376 19.4434 13.8089C20.4764 14.3605 21.0664 15.2312 21.2387 16.3938C21.2464 16.4465 21.259 16.4986 21.2629 16.5515C21.2727 16.6821 21.2788 16.8128 21.2888 16.9849C21.2847 17.0163 21.2788 16.8128 21.2888 16.9849Z" fill="white"/>
<path d="M19.7402 16.9242C19.5319 16.928 19.4204 16.8117 19.3989 16.6192C19.384 16.4849 19.3722 16.3488 19.3404 16.2182C19.2778 15.9609 19.1422 15.7225 18.9276 15.5648C18.8263 15.4904 18.7115 15.4361 18.5912 15.4011C18.4384 15.3566 18.2797 15.3689 18.1273 15.3312C17.9617 15.2903 17.8702 15.1551 17.8962 14.9985C17.9199 14.856 18.0574 14.7447 18.2118 14.756C19.1771 14.8263 19.8669 15.3295 19.9654 16.4753C19.9724 16.5562 19.9805 16.6416 19.9627 16.719C19.9323 16.8514 19.835 16.9178 19.7402 16.9242C19.835 16.9178 19.5319 16.928 19.7402 16.9242Z" fill="white"/>
</g>
</g>
</svg>
