<svg width="266" height="67" viewBox="0 0 266 67" fill="none" xmlns="http://www.w3.org/2000/svg">
<path fill-rule="evenodd" clip-rule="evenodd" d="M65 51.6495H70.3741V11.8679H84.1033V7.4474H65V51.6495ZM93.0442 49.3252C93.8256 47.9922 94.5505 46.4731 94.9008 44.9478C95.3993 42.8282 95.4817 39.0268 95.6066 38.5378C95.6898 38.2119 95.7314 29.3219 95.7314 11.8679L106.209 11.8875V51.8634H111.512V7.4474H90.7479V38.5378C90.7085 40.2167 90.2892 42.3668 89.9174 43.9992C89.6584 45.1418 89.6668 45.5482 89.0868 46.5493C88.66 47.2925 87.3817 48.1033 86.6525 48.5013C85.9525 48.849 85.1875 49.024 84.4148 49.013V51.8634C84.7373 52.0055 85.0728 52.1118 85.4159 52.1807C86.2427 52.4077 87.0947 52.5144 87.9485 52.4979C88.9074 52.4937 89.8497 52.232 90.6876 51.7372C91.6492 51.1514 92.4586 50.3231 93.0442 49.3252ZM125.794 27.3673C124.536 25.976 123.907 23.6146 123.905 20.283C123.905 16.9531 124.535 14.5923 125.793 13.2005C127.052 11.8087 129.061 11.1131 131.822 11.1136L136.083 11.1136V29.455H131.822C129.062 29.4541 127.052 28.7585 125.794 27.3673ZM123.905 34.7626C123.004 36.2318 122.384 37.8627 122.078 39.5688L120.861 44.9444C120.611 46.0622 120.087 47.0962 119.338 47.9485C118.416 48.7701 117.206 49.1694 115.989 49.0535V51.9046C116.368 52.0345 116.755 52.1401 117.146 52.2208C117.96 52.4423 118.8 52.5487 119.643 52.537C123.093 52.537 125.427 50.0073 126.645 44.9478L127.863 39.5722C128.39 37.3802 129.181 35.8836 130.238 35.0822C131.214 34.3092 132.413 33.8871 133.647 33.8811H136.083V51.9046H141.564V8.26939C140.041 7.81003 138.483 7.48218 136.907 7.28929C135.219 7.09238 133.521 6.9973 131.823 7.00453C129.73 6.96296 127.641 7.20767 125.611 7.73216C124.056 8.13137 122.629 8.93785 121.471 10.0723C120.368 11.2294 119.571 12.6545 119.154 14.2137C118.63 16.1917 118.385 18.2359 118.424 20.2847C118.393 21.98 118.64 23.6685 119.154 25.2804C119.577 26.5932 120.216 27.8228 121.042 28.9169C121.761 29.8634 122.663 30.6489 123.69 31.2248C124.61 31.7466 125.608 32.1098 126.643 32.3001V32.5551C125.514 32.9494 124.547 33.7289 123.905 34.7626ZM168.247 7.4474V27.0229H155.277V7.4474H149.719V51.6495H155.277V31.4434H168.247V51.6495H173.806V7.4474H168.247ZM187.609 30.8119H201.043V26.3914H187.609V11.8679H202.876V7.4474H182.112V51.6495H202.874V47.2299H187.609V30.8119ZM233.542 61H236.93V47.1395H232.927V7.4474H227.382V47.1395H215.065V7.4474H209.521V51.5491H231.692C231.869 54.771 232.491 57.9523 233.542 61ZM252.378 29.455C255.139 29.455 257.148 30.1611 258.406 31.5733C259.664 32.9855 260.293 35.4412 260.294 38.9406C260.294 42.4405 259.665 44.8963 258.406 46.3079C257.147 47.7195 255.138 48.4259 252.378 48.427H248.118V29.455H252.378ZM248.253 25.5296V7.4474H242.744V51.2258C244.274 51.6874 245.84 52.0163 247.425 52.2091C249.121 52.4067 250.827 52.5021 252.534 52.4948C254.639 52.5385 256.739 52.2822 258.775 51.7333C260.337 51.3133 261.768 50.4945 262.936 49.3539C264.053 48.1753 264.854 46.7222 265.261 45.135C265.789 43.0862 266.037 40.9724 265.996 38.854C265.996 33.7781 265.047 30.1826 263.15 28.0676C261.253 25.9526 258.326 24.8952 254.369 24.8952C253.308 24.9028 252.247 24.9665 251.192 25.0862C250.204 25.1822 249.224 25.3305 248.253 25.5296Z" fill="#333333"/>
<path d="M31.6908 7C17.2034 11.8549 4.98287 21.7523 0 36.5C4.92596 51.0796 17.0317 61.0874 31.6908 66C44.7261 56.0137 51.8342 47.9938 57.0634 36.5C49.5576 31.4927 46.4047 28.9149 40.3193 21.1664C32.166 24.9289 25.0691 29.3137 18.7823 36.3399C21.0384 39.5331 24.7841 42.5139 27.8126 44.9627C32.2262 41.7399 35.5921 38.5996 37.7723 35.9052C39.1394 37.565 40.6809 38.6694 42.149 39.5926C38.3567 46.0033 34.1007 49.523 28.8452 52.8848C20.9513 48.7324 14.606 41.5449 11.522 35.4676C17.3024 25.9978 26.3688 19.6037 36.6707 16.0403C35.0017 13.1357 32.8141 10.4307 31.6908 7Z" fill="#FFE30B"/>
<path d="M67.756 64.1441C69.28 64.1441 70.336 62.9681 70.336 61.0961C70.336 59.2121 69.28 58.0601 67.756 58.0601C66.94 58.0601 66.22 58.4801 65.8 59.0681V58.2041H64.9V66.2081H65.8V63.1241C66.268 63.7721 66.964 64.1441 67.756 64.1441ZM67.528 63.3401C66.82 63.3401 66.112 62.9081 65.8 62.4041V59.7881C66.112 59.2841 66.82 58.8641 67.528 58.8641C68.692 58.8641 69.388 59.8121 69.388 61.0961C69.388 62.3801 68.692 63.3401 67.528 63.3401Z" fill="#333333"/>
<path d="M74.2992 64.1441C76.0632 64.1441 77.1672 62.7761 77.1672 61.0961C77.1672 59.4161 76.0632 58.0601 74.2992 58.0601C72.5352 58.0601 71.4312 59.4161 71.4312 61.0961C71.4312 62.7761 72.5352 64.1441 74.2992 64.1441ZM74.2992 63.3401C73.0632 63.3401 72.3672 62.2841 72.3672 61.0961C72.3672 59.9201 73.0632 58.8641 74.2992 58.8641C75.5352 58.8641 76.2192 59.9201 76.2192 61.0961C76.2192 62.2841 75.5352 63.3401 74.2992 63.3401Z" fill="#333333"/>
<path d="M80.6864 64.1441C82.3544 64.1441 83.3384 63.4241 83.3384 62.4521C83.3384 61.4921 82.3304 61.0841 81.6584 61.0361C82.3424 60.9521 83.2184 60.4841 83.2184 59.6201C83.2184 58.6361 82.1144 58.0601 80.5544 58.0721C79.4984 58.0721 78.7184 58.4441 78.1784 58.9961L78.6464 59.5481C79.1384 59.0441 79.7744 58.8041 80.5904 58.8041C81.5504 58.8041 82.2824 59.1761 82.2824 59.7281C82.2824 60.3881 81.5264 60.7001 80.5664 60.7001H79.2704V61.4321H80.5664C81.5864 61.4321 82.3904 61.6721 82.3904 62.3921C82.3904 63.0041 81.7184 63.4001 80.6864 63.4001C79.8224 63.4001 79.0544 63.1361 78.5144 62.6201L78.0704 63.1961C78.6464 63.7721 79.5224 64.1441 80.6864 64.1441Z" fill="#333333"/>
<path d="M87.6545 64.1441C89.1785 64.1441 90.2345 62.9681 90.2345 61.0961C90.2345 59.2121 89.1785 58.0601 87.6545 58.0601C86.8385 58.0601 86.1185 58.4801 85.6985 59.0681V58.2041H84.7985V66.2081H85.6985V63.1241C86.1665 63.7721 86.8625 64.1441 87.6545 64.1441ZM87.4265 63.3401C86.7185 63.3401 86.0105 62.9081 85.6985 62.4041V59.7881C86.0105 59.2841 86.7185 58.8641 87.4265 58.8641C88.5905 58.8641 89.2865 59.8121 89.2865 61.0961C89.2865 62.3801 88.5905 63.3401 87.4265 63.3401Z" fill="#333333"/>
<path d="M94.1976 64.1441C95.9616 64.1441 97.0657 62.7761 97.0657 61.0961C97.0657 59.4161 95.9616 58.0601 94.1976 58.0601C92.4336 58.0601 91.3296 59.4161 91.3296 61.0961C91.3296 62.7761 92.4336 64.1441 94.1976 64.1441ZM94.1976 63.3401C92.9616 63.3401 92.2656 62.2841 92.2656 61.0961C92.2656 59.9201 92.9616 58.8641 94.1976 58.8641C95.4336 58.8641 96.1176 59.9201 96.1176 61.0961C96.1176 62.2841 95.4336 63.3401 94.1976 63.3401Z" fill="#333333"/>
<path d="M101.065 63.3401C99.8288 63.3401 99.1328 62.2841 99.1328 61.0841C99.1328 59.9201 99.8288 58.8641 101.065 58.8641C102.301 58.8641 102.985 59.9201 102.985 61.0841C102.985 62.2841 102.301 63.3401 101.065 63.3401ZM101.065 64.1441C102.853 64.1441 103.921 62.7521 103.921 61.0841C103.921 59.4401 102.853 58.0601 101.209 58.0601C100.177 58.0601 99.4448 58.6361 99.0248 59.2961C99.2288 58.3121 99.7448 57.5681 101.461 57.3281C102.445 57.1961 103.741 56.9441 103.741 55.9961H102.865C102.865 56.2361 102.505 56.3921 101.233 56.5841C99.2168 56.8481 98.1968 58.0121 98.1968 60.8321C98.1968 62.7521 99.2888 64.1441 101.065 64.1441Z" fill="#333333"/>
<path d="M110.559 64.0001L107.979 60.8321L110.547 58.2041H109.407L106.359 61.2881V58.2041H105.459V64.0001H106.359V62.3441L107.319 61.3961L109.407 64.0001H110.559Z" fill="#333333"/>
<path d="M116.147 64.0001V60.0161C116.147 58.6121 115.127 58.0601 113.903 58.0601C112.955 58.0601 112.211 58.3721 111.587 59.0201L112.007 59.6441C112.523 59.0921 113.087 58.8401 113.783 58.8401C114.623 58.8401 115.247 59.2841 115.247 60.0641V61.1081C114.779 60.5681 114.119 60.3161 113.327 60.3161C112.343 60.3161 111.299 60.9281 111.299 62.2241C111.299 63.4841 112.343 64.1441 113.327 64.1441C114.107 64.1441 114.767 63.8681 115.247 63.3401V64.0001H116.147ZM113.651 63.4961C112.811 63.4961 112.223 62.9681 112.223 62.2361C112.223 61.4921 112.811 60.9641 113.651 60.9641C114.287 60.9641 114.899 61.2041 115.247 61.6841V62.7761C114.899 63.2561 114.287 63.4961 113.651 63.4961Z" fill="#333333"/>
<path d="M123.001 64.0001V58.9961H124.693V58.2041H120.421V58.9961H122.101V64.0001H123.001Z" fill="#333333"/>
<path d="M130.397 64.0001V60.0161C130.397 58.6121 129.377 58.0601 128.153 58.0601C127.205 58.0601 126.461 58.3721 125.837 59.0201L126.257 59.6441C126.773 59.0921 127.337 58.8401 128.033 58.8401C128.873 58.8401 129.497 59.2841 129.497 60.0641V61.1081C129.029 60.5681 128.369 60.3161 127.577 60.3161C126.593 60.3161 125.549 60.9281 125.549 62.2241C125.549 63.4841 126.593 64.1441 127.577 64.1441C128.357 64.1441 129.017 63.8681 129.497 63.3401V64.0001H130.397ZM127.901 63.4961C127.061 63.4961 126.473 62.9681 126.473 62.2361C126.473 61.4921 127.061 60.9641 127.901 60.9641C128.537 60.9641 129.149 61.2041 129.497 61.6841V62.7761C129.149 63.2561 128.537 63.4961 127.901 63.4961Z" fill="#333333"/>
<path d="M140.119 64.0001V58.2041H135.295V64.0001H136.195V58.9961H139.219V64.0001H140.119Z" fill="#333333"/>
<path d="M142.36 57.3761C142.696 57.3761 142.972 57.1121 142.972 56.7761C142.972 56.4401 142.696 56.1641 142.36 56.1641C142.036 56.1641 141.76 56.4401 141.76 56.7761C141.76 57.1121 142.036 57.3761 142.36 57.3761ZM142.816 64.0001V58.2041H141.916V64.0001H142.816Z" fill="#333333"/>
<path d="M143.927 65.4761H144.827V64.0001H149.207V65.4761H150.107V63.2081H149.435V58.2041H145.403L145.031 61.0601C144.803 62.7761 144.467 63.1601 143.927 63.2561V65.4761ZM146.195 58.9961H148.535V63.2081H145.091C145.511 62.8721 145.787 62.2601 145.931 61.1681L146.195 58.9961Z" fill="#333333"/>
<path d="M153.294 64.0001V58.9961H154.986V58.2041H150.714V58.9961H152.394V64.0001H153.294Z" fill="#333333"/>
<path d="M159.022 64.1441C160.546 64.1441 161.602 62.9681 161.602 61.0961C161.602 59.2121 160.546 58.0601 159.022 58.0601C158.206 58.0601 157.486 58.4801 157.066 59.0681V58.2041H156.166V66.2081H157.066V63.1241C157.534 63.7721 158.23 64.1441 159.022 64.1441ZM158.794 63.3401C158.086 63.3401 157.378 62.9081 157.066 62.4041V59.7881C157.378 59.2841 158.086 58.8641 158.794 58.8641C159.958 58.8641 160.654 59.8121 160.654 61.0961C160.654 62.3801 159.958 63.3401 158.794 63.3401Z" fill="#333333"/>
<path d="M163.897 64.0001L166.957 59.4881V64.0001H167.857V58.2041H166.969L163.933 62.6321V58.2041H163.033V64.0001H163.897Z" fill="#333333"/>
<path d="M175.57 64.0001V58.2041H174.37L172.618 62.5001L170.842 58.2041H169.654V64.0001H170.554V59.4521L172.45 64.0001H172.786L174.67 59.4521V64.0001H175.57Z" fill="#333333"/>
<path d="M182.465 64.0001L179.885 60.8321L182.453 58.2041H181.313L178.265 61.2881V58.2041H177.365V64.0001H178.265V62.3441L179.225 61.3961L181.313 64.0001H182.465Z" fill="#333333"/>
<path d="M188.053 64.0001V60.0161C188.053 58.6121 187.033 58.0601 185.809 58.0601C184.861 58.0601 184.117 58.3721 183.493 59.0201L183.913 59.6441C184.429 59.0921 184.993 58.8401 185.689 58.8401C186.529 58.8401 187.153 59.2841 187.153 60.0641V61.1081C186.685 60.5681 186.025 60.3161 185.233 60.3161C184.249 60.3161 183.205 60.9281 183.205 62.2241C183.205 63.4841 184.249 64.1441 185.233 64.1441C186.013 64.1441 186.673 63.8681 187.153 63.3401V64.0001H188.053ZM185.557 63.4961C184.717 63.4961 184.129 62.9681 184.129 62.2361C184.129 61.4921 184.717 60.9641 185.557 60.9641C186.193 60.9641 186.805 61.2041 187.153 61.6841V62.7761C186.805 63.2561 186.193 63.4961 185.557 63.4961Z" fill="#333333"/>
<path d="M195.507 64.1441C196.563 64.1441 197.187 63.7121 197.631 63.1361L197.031 62.5841C196.647 63.1001 196.155 63.3401 195.555 63.3401C194.319 63.3401 193.551 62.3801 193.551 61.0961C193.551 59.8121 194.319 58.8641 195.555 58.8641C196.155 58.8641 196.647 59.0921 197.031 59.6201L197.631 59.0681C197.187 58.4921 196.563 58.0601 195.507 58.0601C193.779 58.0601 192.615 59.3801 192.615 61.0961C192.615 62.8241 193.779 64.1441 195.507 64.1441Z" fill="#333333"/>
<path d="M203.416 64.0001V60.0161C203.416 58.6121 202.396 58.0601 201.172 58.0601C200.224 58.0601 199.48 58.3721 198.856 59.0201L199.276 59.6441C199.792 59.0921 200.356 58.8401 201.052 58.8401C201.892 58.8401 202.516 59.2841 202.516 60.0641V61.1081C202.048 60.5681 201.388 60.3161 200.596 60.3161C199.612 60.3161 198.568 60.9281 198.568 62.2241C198.568 63.4841 199.612 64.1441 200.596 64.1441C201.376 64.1441 202.036 63.8681 202.516 63.3401V64.0001H203.416ZM200.92 63.4961C200.08 63.4961 199.492 62.9681 199.492 62.2361C199.492 61.4921 200.08 60.9641 200.92 60.9641C201.556 60.9641 202.168 61.2041 202.516 61.6841V62.7761C202.168 63.2561 201.556 63.4961 200.92 63.4961Z" fill="#333333"/>
<path d="M206.084 64.0001L209.144 59.4881V64.0001H210.044V58.2041H209.156L206.12 62.6321V58.2041H205.22V64.0001H206.084ZM209.732 56.4881L209.288 56.1041C208.916 56.6441 208.328 56.9681 207.632 56.9681C206.924 56.9681 206.348 56.6321 205.964 56.1041L205.52 56.4881C206.012 57.1361 206.78 57.5441 207.632 57.5441C208.496 57.5441 209.252 57.1361 209.732 56.4881Z" fill="#333333"/>
<path d="M213.797 64.0001V58.9961H215.489V58.2041H211.217V58.9961H212.897V64.0001H213.797Z" fill="#333333"/>
<path d="M217.114 57.3761C217.45 57.3761 217.726 57.1121 217.726 56.7761C217.726 56.4401 217.45 56.1641 217.114 56.1641C216.79 56.1641 216.514 56.4401 216.514 56.7761C216.514 57.1121 216.79 57.3761 217.114 57.3761ZM217.57 64.0001V58.2041H216.67V64.0001H217.57Z" fill="#333333"/>
<path d="M222.617 64.0001C223.685 64.0001 224.309 63.3641 224.309 62.4281C224.309 61.7681 223.841 61.1561 223.253 61.0121C223.745 60.8561 224.189 60.3881 224.189 59.6921C224.189 58.8161 223.577 58.2041 222.557 58.2041H219.365V64.0001H222.617ZM222.437 63.2081H220.265V61.4201H222.437C223.049 61.4201 223.373 61.8521 223.373 62.3201C223.373 62.8721 223.013 63.2081 222.437 63.2081ZM222.401 60.6281H220.265V58.9961H222.401C222.953 58.9961 223.265 59.3201 223.265 59.8241C223.265 60.2801 222.965 60.6281 222.401 60.6281Z" fill="#333333"/>
<path d="M253.856 6.0001V0.996101H255.548V0.204102H251.276V0.996101H252.956V6.0001H253.856Z" fill="#333333"/>
<path d="M262.644 6.0001V0.204102H261.444L259.692 4.5001L257.916 0.204102H256.728V6.0001H257.628V1.4521L259.524 6.0001H259.86L261.744 1.4521V6.0001H262.644Z" fill="#333333"/>
</svg>
