<svg width="763" height="713" viewBox="0 0 763 713" fill="none" xmlns="http://www.w3.org/2000/svg">
<g opacity="0.5">
<path d="M93.3196 647.611C125.529 678.159 166.915 700.074 210.555 708.536C247.855 715.624 286.198 713.312 322.14 702.182C332.503 698.785 342.507 693.983 352.538 687.527C397.79 659.494 443.253 610.596 502.159 603.778C574.957 595.657 697.581 622.565 791.439 547.975C818.638 526.652 837.231 494.501 846.314 460.289C853.635 432.666 852.464 402.871 846.553 375.036C837.107 329.838 816.911 288.285 790.046 249.933C774.875 228.058 757.142 207.286 739.133 187.782C701.985 147.866 660.318 111.949 614.876 81.1896C545.887 35.0365 465.628 1.04588 382.792 0.353397C364.213 0.309877 345.358 1.53449 327.222 5.57006C304.62 10.2975 283.369 17.9734 262.341 27.6888C233.623 40.7166 206.753 57.4644 181.758 76.2782C94.4023 142.319 29.1947 239.383 7.5737 348.217C-15.9431 471.908 25.0116 583.018 93.3196 647.611Z" fill="url(#paint0_linear_8_508)"/>
<path d="M93.3196 647.611C125.529 678.159 166.915 700.074 210.555 708.536C247.855 715.624 286.198 713.312 322.14 702.182C332.503 698.785 342.507 693.983 352.538 687.527C397.79 659.494 443.253 610.596 502.159 603.778C574.957 595.657 697.581 622.565 791.439 547.975C818.638 526.652 837.231 494.501 846.314 460.289C853.635 432.666 852.464 402.871 846.553 375.036C837.107 329.838 816.911 288.285 790.046 249.933C774.875 228.058 757.142 207.286 739.133 187.782C701.985 147.866 660.318 111.949 614.876 81.1896C545.887 35.0365 465.628 1.04588 382.792 0.353397C364.213 0.309877 345.358 1.53449 327.222 5.57006C304.62 10.2975 283.369 17.9734 262.341 27.6888C233.623 40.7166 206.753 57.4644 181.758 76.2782C94.4023 142.319 29.1947 239.383 7.5737 348.217C-15.9431 471.908 25.0116 583.018 93.3196 647.611Z" fill="url(#paint1_linear_8_508)"/>
</g>
<defs>
<linearGradient id="paint0_linear_8_508" x1="42.7185" y1="296.616" x2="834.936" y2="467.73" gradientUnits="userSpaceOnUse">
<stop offset="0.00666585" stop-color="#FF9C37"/>
<stop offset="0.9967" stop-color="#FF7300"/>
</linearGradient>
<linearGradient id="paint1_linear_8_508" x1="513.986" y1="-230.304" x2="332.825" y2="1011.62" gradientUnits="userSpaceOnUse">
<stop stop-color="#FFDF00"/>
<stop offset="1" stop-color="#FFB800"/>
</linearGradient>
</defs>
</svg>
