<svg width="138" height="100" viewBox="0 0 138 100" fill="none" xmlns="http://www.w3.org/2000/svg">
<g id="Group 163">
<path id="path3032" fill-rule="evenodd" clip-rule="evenodd" d="M65.5537 63.003C60.2138 59.6565 56.2799 48.1076 56.2799 34.3861C56.2799 33.8826 56.2839 33.3863 56.2944 32.8901L56.3009 32.8973C41.4486 30.5619 30.7176 24.1636 30.4427 16.5977L30.3992 16.6849C26.7651 21.2035 24.6908 26.428 24.6908 31.9949C24.6908 48.3757 42.6625 61.7977 65.4576 62.9848L65.5537 63.003L65.5537 63.003ZM17.8242 33.1901C17.8242 14.861 40.6213 0 68.7451 0C96.868 0 119.666 14.861 119.666 33.1901C119.666 51.5191 96.8676 66.3806 68.7451 66.3806C40.6213 66.3806 17.8242 51.5187 17.8242 33.1901ZM68.7451 4.79001C74.1742 4.79001 78.7921 13.0299 80.5028 24.527L80.5093 24.5097C91.0712 22.8647 98.4665 19.07 98.4665 14.6543C98.4665 8.72764 85.1583 3.92875 68.7451 3.92875C52.3307 3.92875 39.0237 8.72805 39.0237 14.6543C39.0237 19.07 46.4177 22.8647 56.9809 24.5097L56.9874 24.527C58.698 13.0303 63.3172 4.79001 68.7451 4.79001H68.7451ZM72.0316 62.9844C94.8267 61.7977 112.801 48.3753 112.801 31.9945C112.801 26.428 110.724 21.2035 107.091 16.6845L107.046 16.5973C106.771 24.1632 96.0431 30.5615 81.1892 32.8969L81.1957 32.8897C81.2058 33.3859 81.2111 33.8822 81.2111 34.3857C81.2111 48.1072 77.2743 59.6561 71.9376 63.0026L72.0317 62.9844L72.0316 62.9844ZM68.7451 25.3814C71.1773 25.3814 73.5418 25.2777 75.8041 25.0782L75.8001 25.0818C74.6742 17.7117 71.9396 12.5102 68.7442 12.5102C65.5489 12.5102 62.8147 17.7117 61.6872 25.0818L61.6832 25.0782C63.9455 25.2777 66.3108 25.3814 68.743 25.3814H68.7451ZM68.7451 52.6743C72.8323 52.6743 76.1665 44.1639 76.3445 33.4897L76.3663 33.4973C73.9026 33.7255 71.3541 33.8446 68.7455 33.8446C66.1344 33.8446 63.5884 33.7255 61.1246 33.4973L61.1476 33.4897C61.3228 44.1635 64.6562 52.6743 68.7451 52.6743Z" fill="#2D3037"/>
<g id="g3065">
<path id="path3034" fill-rule="evenodd" clip-rule="evenodd" d="M68.8945 87.687C68.8945 80.8868 74.3634 75.3739 81.1065 75.3739C87.8531 75.3739 93.3212 80.8866 93.3212 87.687C93.3212 94.4879 87.8531 100 81.1065 100C74.3634 100 68.8945 94.4879 68.8945 87.687ZM81.1065 95.4849C84.8737 95.4849 87.9272 91.9933 87.9272 87.687C87.9272 83.3808 84.8737 79.8888 81.1065 79.8888C77.3421 79.8888 74.2891 83.3808 74.2891 87.687C74.2891 91.9931 77.3421 95.4849 81.1065 95.4849Z" fill="#2D3037"/>
<path id="polygon3036" fill-rule="evenodd" clip-rule="evenodd" d="M114.358 80.5038H107.197H107.18V99.4406H102.035V80.5038H102.052H94.8555V76.2226H114.358V80.5038Z" fill="#2D3037"/>
<path id="path3038" fill-rule="evenodd" clip-rule="evenodd" d="M120.582 94.2168L120.577 94.2217L118.603 99.4408H112.594L122.095 76.2226H125.298H128.498L138 99.4408H131.99L130.016 94.2217L130.011 94.2168H125.298H120.582ZM125.298 90.2982H128.535L128.533 90.2991L125.32 81.8011H125.275L122.059 90.2991L122.058 90.2982H125.297H125.298Z" fill="#2D3037"/>
<path id="polygon3040" fill-rule="evenodd" clip-rule="evenodd" d="M19.5034 80.5038H12.3429H12.325V99.4406H7.17916V80.5038H7.19666H-2.70519e-06V76.2226H19.5034V80.5038Z" fill="#2D3037"/>
<path id="path3042" fill-rule="evenodd" clip-rule="evenodd" d="M20.8184 87.687C20.8184 80.8868 26.2871 75.3739 33.0325 75.3739C39.7776 75.3739 45.2457 80.8866 45.2457 87.687C45.2457 94.4879 39.7776 100 33.0325 100C26.2871 100 20.8184 94.4879 20.8184 87.687ZM33.0325 95.4849C36.7977 95.4849 39.8515 91.9933 39.8515 87.687C39.8515 83.3808 36.7979 79.8888 33.0325 79.8888C29.2667 79.8888 26.213 83.3808 26.213 87.687C26.213 91.9931 29.2667 95.4849 33.0325 95.4849Z" fill="#2D3037"/>
<path id="polygon3044" fill-rule="evenodd" clip-rule="evenodd" d="M57.0697 85.9816L51.4925 76.2226H45.4824L54.4603 90.6243V90.7329V99.4406H57.0697H59.6788V90.7329V90.6243L68.6557 76.2226H62.6476L57.0697 85.9816Z" fill="#2D3037"/>
</g>
</g>
</svg>
