<svg width="232" height="66" viewBox="0 0 232 66" fill="none" xmlns="http://www.w3.org/2000/svg">
<g id="Group 2">
<g id="Group 2.1">
<g id="Group 2_2">
<path id="Vector" d="M96.3397 29.7822C96.3397 28.5529 95.8833 27.6999 94.9693 27.2255C94.0554 26.75 92.836 26.5122 91.3135 26.5122H87.3659V33.3039H91.3547C91.9083 33.3039 92.4825 33.2555 93.0785 33.1573C93.6745 33.0604 94.2144 32.8849 94.6994 32.6333C95.1833 32.3817 95.5779 32.025 95.8833 31.5633C96.1876 31.1039 96.3397 30.5094 96.3397 29.7822ZM95.3846 18.0017C95.3846 16.9952 95.0037 16.2622 94.2418 15.8005C93.48 15.34 92.3521 15.1091 90.8559 15.1091H87.3659V21.2302H91.1876C92.518 21.2302 93.5486 20.959 94.2842 20.4142C95.0174 19.867 95.3846 19.066 95.3846 18.0017ZM103.444 30.4529C103.444 32.0746 103.126 33.4367 102.489 34.5402C101.851 35.6448 101.007 36.5324 99.9544 37.2031C98.902 37.8737 97.7044 38.3562 96.3615 38.6494C95.0174 38.9426 93.6401 39.0891 92.2274 39.0891H80.5117V9.40817H92.2274C93.3622 9.40817 94.5255 9.52591 95.7174 9.76369C96.9082 10.0015 97.9881 10.4078 98.9569 10.9803C99.927 11.5528 100.716 12.3285 101.326 13.3073C101.934 14.285 102.24 15.5281 102.24 17.0379C102.24 18.6874 101.796 20.0494 100.911 21.1252C100.023 22.201 98.8609 22.9778 97.4207 23.4522V23.5353C98.2512 23.6761 99.0336 23.9347 99.768 24.311C100.501 24.6884 101.138 25.1709 101.678 25.7585C102.219 26.3448 102.648 27.0293 102.966 27.8119C103.284 28.5945 103.444 29.4752 103.444 30.4529Z" fill="#2D3037"/>
<path id="Vector_2" d="M124.559 18.5062C124.559 17.8067 124.412 17.2411 124.119 16.8071C123.828 16.3742 123.452 16.0395 122.993 15.8006C122.533 15.5639 122.019 15.4035 121.448 15.3192C120.878 15.235 120.327 15.1934 119.799 15.1934H116V22.111H119.381C119.966 22.111 120.564 22.0625 121.177 21.9644C121.789 21.8663 122.345 21.6908 122.847 21.4415C123.348 21.1887 123.758 20.8251 124.078 20.3496C124.398 19.874 124.559 19.2599 124.559 18.5062ZM124.849 39.0892L118.463 27.3098H116.041V39.0892H109.103V9.4082H120.32C121.733 9.4082 123.112 9.55479 124.454 9.84913C125.797 10.1412 127.003 10.6375 128.069 11.337C129.135 12.0353 129.986 12.9576 130.625 14.1026C131.261 15.25 131.58 16.6755 131.58 18.3792C131.58 20.3911 131.04 22.0833 129.959 23.4522C128.879 24.8212 127.384 25.8 125.473 26.3876L133.158 39.0892H124.849Z" fill="#2D3037"/>
<path id="Vector_3" d="M153.378 17.3311L149.639 27.5187H157.034L153.378 17.3311ZM161.272 39.0892L158.986 33.2624H147.604L145.443 39.0892H137.715L150.054 9.4082H156.951L169.165 39.0892H161.272Z" fill="#2D3037"/>
<path id="Vector_4" d="M186.138 39.0892H179.033L167.898 9.4082H175.876L182.69 30.4529H182.856L189.628 9.4082H197.479L186.138 39.0892Z" fill="#2D3037"/>
<path id="Vector_5" d="M224.397 24.1226C224.397 22.8379 224.188 21.6352 223.773 20.5167C223.358 19.4017 222.784 18.4436 222.049 17.6449C221.316 16.8484 220.428 16.2193 219.391 15.7599C218.352 15.2971 217.209 15.0674 215.963 15.0674C214.717 15.0674 213.581 15.2971 212.556 15.7599C211.531 16.2193 210.646 16.8484 209.897 17.6449C209.15 18.4436 208.574 19.4017 208.173 20.5167C207.771 21.6352 207.571 22.8379 207.571 24.1226C207.571 25.465 207.779 26.7001 208.194 27.8325C208.609 28.9648 209.184 29.9355 209.918 30.747C210.652 31.5573 211.531 32.1922 212.556 32.6539C213.581 33.1144 214.717 33.3464 215.963 33.3464C217.209 33.3464 218.344 33.1144 219.369 32.6539C220.394 32.1922 221.281 31.5573 222.029 30.747C222.777 29.9355 223.358 28.9648 223.773 27.8325C224.188 26.7001 224.397 25.465 224.397 24.1226ZM231.999 24.1226C231.999 26.4704 231.598 28.6151 230.795 30.5577C229.991 32.5015 228.877 34.1625 227.451 35.5465C226.024 36.9304 224.327 37.9993 222.362 38.7542C220.394 39.5079 218.262 39.8854 215.963 39.8854C213.663 39.8854 211.538 39.5079 209.585 38.7542C207.633 37.9993 205.943 36.9304 204.516 35.5465C203.09 34.1625 201.975 32.5015 201.172 30.5577C200.369 28.6151 199.969 26.4704 199.969 24.1226C199.969 21.7471 200.369 19.6025 201.172 17.6876C201.975 15.7726 203.09 14.1451 204.516 12.8038C205.943 11.4626 207.633 10.4283 209.585 9.70229C211.538 8.9751 213.663 8.61035 215.963 8.61035C218.262 8.61035 220.394 8.9751 222.362 9.70229C224.327 10.4283 226.024 11.4626 227.451 12.8038C228.877 14.1451 229.991 15.7726 230.795 17.6876C231.598 19.6025 231.999 21.7471 231.999 24.1226Z" fill="#2D3037"/>
</g>
<g id="Group 2_3">
<path id="Vector_6" d="M139.164 52.4096H143.258L141.219 47.2349L139.164 52.4096ZM137.527 56.4775H135.828L140.57 45.4424H141.961L146.656 56.4775H144.926L143.814 53.7653H138.624L137.527 56.4775Z" fill="#2D3037"/>
<path id="Vector_7" d="M155.733 45.4424H154.203V56.4775H155.733V45.4424Z" fill="#2D3037"/>
<path id="Vector_8" d="M164.807 50.2742H166.568C166.928 50.2742 167.263 50.2428 167.572 50.1806C167.881 50.118 168.151 50.0167 168.383 49.8768C168.614 49.7369 168.797 49.5549 168.932 49.3309C169.065 49.1082 169.132 48.8297 169.132 48.4971C169.132 48.1649 169.065 47.8868 168.932 47.6632C168.797 47.4401 168.619 47.2607 168.398 47.1259C168.177 46.9908 167.917 46.8946 167.618 46.8375C167.319 46.7805 167.006 46.7517 166.677 46.7517H164.807V50.2742ZM164.807 56.4775H163.277V45.4424H166.785C167.31 45.4424 167.809 45.4969 168.282 45.6063C168.756 45.7149 169.171 45.8896 169.526 46.1282C169.881 46.3672 170.162 46.6813 170.368 47.0714C170.574 47.4607 170.677 47.9362 170.677 48.4971C170.677 49.3077 170.43 49.9626 169.935 50.4609C169.441 50.9595 168.802 51.2771 168.02 51.4123L171.078 56.4775H169.225L166.445 51.5676H164.807V56.4775Z" fill="#2D3037"/>
<path id="Vector_9" d="M180.8 54.2331H180.83L183.394 45.4424H185.078L187.627 54.2331H187.657L190.067 45.4424H191.689L188.477 56.4775H186.886L184.228 47.6087H184.198L181.54 56.4775H179.95L176.736 45.4424H178.39L180.8 54.2331Z" fill="#2D3037"/>
<path id="Vector_10" d="M198.801 52.4096H202.894L200.856 47.2349L198.801 52.4096ZM197.164 56.4775H195.465L200.207 45.4424H201.597L206.292 56.4775H204.563L203.451 53.7653H198.261L197.164 56.4775Z" fill="#2D3037"/>
<path id="Vector_11" d="M215.7 56.4775H214.156V51.708L210.063 45.4424H211.947L214.974 50.43L218.018 45.4424H219.793L215.7 51.708V56.4775Z" fill="#2D3037"/>
<path id="Vector_12" d="M230.706 47.4837C230.489 47.182 230.196 46.9357 229.826 46.743C229.455 46.5511 229.037 46.4546 228.574 46.4546C228.327 46.4546 228.077 46.4885 227.825 46.5559C227.573 46.6241 227.344 46.7331 227.138 46.8833C226.932 47.0344 226.765 47.2211 226.636 47.4446C226.507 47.6682 226.443 47.9356 226.443 48.2476C226.443 48.5488 226.501 48.8012 226.62 49.0037C226.738 49.2054 226.899 49.3775 227.099 49.5174C227.3 49.6578 227.536 49.7771 227.81 49.8762C228.082 49.9749 228.374 50.0766 228.683 50.18C229.053 50.2942 229.429 50.4242 229.81 50.5697C230.191 50.7152 230.536 50.9074 230.845 51.1465C231.154 51.3855 231.406 51.6842 231.601 52.043C231.797 52.4013 231.896 52.8558 231.896 53.4064C231.896 53.978 231.789 54.4745 231.578 54.8951C231.367 55.3161 231.086 55.6637 230.737 55.9397C230.386 56.2143 229.983 56.4199 229.524 56.5546C229.065 56.6898 228.595 56.7576 228.111 56.7576C227.421 56.7576 226.754 56.6224 226.11 56.3525C225.467 56.0821 224.934 55.6822 224.512 55.1522L225.701 54.1389C225.958 54.5239 226.304 54.835 226.736 55.0745C227.169 55.3135 227.637 55.4324 228.142 55.4324C228.399 55.4324 228.657 55.3963 228.914 55.3234C229.171 55.2509 229.405 55.1367 229.617 54.9805C229.828 54.8247 230 54.6303 230.135 54.3964C230.269 54.1625 230.335 53.8793 230.335 53.5463C230.335 53.2146 230.266 52.9365 230.126 52.7129C229.987 52.4897 229.8 52.2996 229.563 52.1443C229.326 51.9885 229.05 51.8554 228.737 51.7464C228.422 51.637 228.091 51.5259 227.74 51.4117C227.39 51.3078 227.045 51.1804 226.705 51.0293C226.365 50.8791 226.061 50.6864 225.794 50.453C225.526 50.2191 225.309 49.9307 225.145 49.5882C224.98 49.2449 224.898 48.8196 224.898 48.3094C224.898 47.7588 225.009 47.2863 225.23 46.8915C225.451 46.4966 225.74 46.1688 226.095 45.9091C226.451 45.6495 226.852 45.4598 227.3 45.3401C227.748 45.2208 228.198 45.1611 228.651 45.1611C229.29 45.1611 229.887 45.2753 230.444 45.504C230.999 45.7328 231.447 46.0392 231.787 46.4237L230.706 47.4837Z" fill="#2D3037"/>
</g>
<g id="Group">
<ellipse id="Ellipse 1" cx="32.542" cy="32.7633" rx="32.542" ry="32.7633" fill="#C5C4C4"/>
<path id="Vector_13" d="M62.7328 33.2388L60.3485 32.1929L34.7528 32.3929C34.7528 32.3929 25.321 28.3277 19.8711 25.8961C14.4171 23.4617 5.89134 20.2742 4.16686 21.6392C2.44031 23.0049 12.2913 28.6904 14.3217 29.7924C16.346 30.8902 34.9902 40.3384 34.9902 40.3384L34.9723 40.8105L26.8904 38.5824L24.6439 47.0277L26.1503 47.7268L62.7328 33.2388Z" fill="#2D3037"/>
</g>
</g>
</g>
</svg>
