<svg width="232" height="49" viewBox="0 0 232 49" fill="none" xmlns="http://www.w3.org/2000/svg">
<g id="logo">
<g id="Group">
<path id="Vector" d="M232 8.75391H220.897L207.886 24.4985L194.875 8.75391H183.715L198.171 26.3197L183.715 43.8855H194.875L207.886 28.0821L220.897 43.8855H232L217.543 26.3197L232 8.75391Z" fill="#2D3037"/>
<path id="Vector_2" d="M68.5242 36.3063V30.079H90.7874L90.6139 22.5004H68.5242V16.273H93.91L97.8422 8.63574H58.8672V43.8849H99.4613L94.5461 36.3063H68.5242Z" fill="#2D3037"/>
<path id="Vector_3" d="M175.908 8.75391H166.598V43.8855H175.908V8.75391Z" fill="#2D3037"/>
<g id="Group 23">
<path id="Vector_4" d="M26.6009 18.5059H26.2539L37.2988 27.8469V48.7026L46.7245 44.0027V18.5059H26.6009Z" fill="#2D3037"/>
<path id="Vector_5" d="M26.6002 36.424C25.1545 36.424 22.4366 36.2478 19.6032 35.3666C14.977 33.8978 10.0618 30.4904 10.0618 22.4419C10.0618 14.4521 14.9192 11.0447 19.4875 9.57599C22.321 8.63602 25.0967 8.51852 26.5423 8.45977C26.7736 8.45977 27.0049 8.45977 27.1784 8.45977C29.318 8.45977 33.4237 8.63603 39.3798 10.9272L46.319 3.4074C38.9172 0.411232 30.5902 0 26.5423 0C20.1814 0 0 1.70369 0 22.4419C0 43.1801 20.1814 44.8838 26.5423 44.8838C26.9471 44.8838 27.3519 44.8838 27.8145 44.8838L32.7876 35.954C30.301 36.424 28.3928 36.4828 27.1784 36.4828C27.0628 36.424 26.8893 36.424 26.6002 36.424Z" fill="#2D3037"/>
</g>
<path id="Vector_6" d="M131.784 33.4283L116.171 8.75391H106.688V43.8855H115.766V21.7961L131.784 47.1754L147.744 21.7961V43.8855H156.823V8.75391H147.339L131.784 33.4283Z" fill="#2D3037"/>
</g>
</g>
</svg>
