<svg width="233" height="74" viewBox="0 0 233 74" fill="none" xmlns="http://www.w3.org/2000/svg">
<g id="Group 162">
<path id="Vector" d="M64.0391 27.6515C64.0391 11.2315 76.3688 0.0263672 92.3167 0.0263672C104.014 0.0263672 110.794 6.43935 114.517 13.0637L104.787 17.8911C102.574 13.5571 97.7966 10.1392 92.2816 10.1392C82.6566 10.1392 75.6311 17.574 75.6311 27.6868C75.6311 37.7643 82.6215 45.2344 92.2816 45.2344C97.7615 45.2344 102.539 41.8869 104.787 37.4824L114.517 42.2041C110.688 48.8637 104.014 55.3472 92.3167 55.3472C76.3688 55.2767 64.0391 44.0716 64.0391 27.6515Z" fill="#2D3037"/>
<path id="Vector_2" d="M123.683 46.7848L130.779 38.1167C135.1 42.0631 141.809 45.3401 150.275 45.3401C157.441 45.3401 160.954 42.4507 160.954 39.4204C160.954 29.9419 125.651 36.4606 125.651 16.3407C125.651 7.42597 134.468 0.061615 148.905 0.061615C158.635 0.061615 166.75 2.63385 172.827 7.53168L165.555 15.8827C160.603 11.8657 153.963 10.0334 147.711 10.0334C142.09 10.0334 138.964 12.1829 138.964 15.3893C138.964 23.8813 174.197 18.2082 174.197 38.1519C174.197 47.9476 166.188 55.3119 149.643 55.3119C137.84 55.2767 129.409 51.8236 123.683 46.7848Z" fill="#2D3037"/>
<path id="Vector_3" d="M183 53.797V1.22461H203.479C219.743 1.22461 231.054 11.6898 231.054 27.546C231.054 43.4023 219.779 53.797 203.479 53.797H183ZM219.743 27.546C219.743 18.2437 214.123 11.0907 203.479 11.0907H194.065V43.9661H203.479C213.737 43.9309 219.743 36.4608 219.743 27.546Z" fill="#2D3037"/>
<g id="Group 5">
<path id="Vector_4" d="M55.08 27.6162C55.08 27.9686 55.08 28.321 55.0448 28.6733C55.0448 28.7438 55.0448 28.8143 55.0448 28.8847C55.0097 29.8009 54.9043 30.717 54.7989 31.5979C54.7989 31.6332 54.7989 31.6332 54.7989 31.6684C54.7989 31.7741 54.7638 31.8446 54.7638 31.9503C54.7638 31.9855 54.7638 31.9855 54.7638 32.0208C54.553 33.3597 54.2369 34.6987 53.8154 35.9672C53.7802 36.0377 53.7802 36.1082 53.7451 36.1786C53.3938 37.3062 52.9372 38.3985 52.4454 39.4203C52.4103 39.4908 52.3751 39.5613 52.34 39.667C51.7428 40.9003 51.0403 42.0983 50.2675 43.2611C49.9865 43.6839 49.6703 44.142 49.319 44.5296C48.2301 45.939 47.0358 47.2076 45.7009 48.3703C45.6306 48.4408 45.5253 48.5113 45.455 48.5817C44.7173 49.216 43.9094 49.8503 43.1015 50.414C43.0312 50.4493 42.9961 50.4845 42.9258 50.5197C42.7151 50.6607 42.5043 50.8016 42.2935 50.9426C42.2233 50.9778 42.153 51.013 42.0828 51.0483C41.5207 51.4006 40.9587 51.7178 40.3967 51.9997C40.2913 52.0701 40.1859 52.1054 40.0805 52.1758C36.3219 54.1138 32.0714 55.2061 27.54 55.2061C27.1887 55.2061 26.8726 55.2062 26.5213 55.1709C26.4159 55.1709 26.3456 55.1709 26.2403 55.1709C25.2918 55.1357 24.3434 55.03 23.3949 54.889C23.3247 54.889 23.2544 54.8538 23.1842 54.8538C20.9009 54.5014 18.723 53.8319 16.6504 52.951C16.5451 52.9158 16.4397 52.8453 16.2992 52.8101C14.6131 52.0701 13.0323 51.154 11.557 50.0969C11.4516 50.0264 11.3462 49.956 11.2759 49.8855C8.2901 47.7009 5.76091 44.9172 3.86403 41.7107C3.79377 41.605 3.75865 41.5345 3.68839 41.4288C2.56431 39.5261 1.68612 37.4471 1.08896 35.2977C1.05383 35.2272 1.05383 35.1568 1.0187 35.0863C0.702554 33.994 0.456659 32.8664 0.281021 31.7036C0.281021 31.6684 0.281021 31.6332 0.281021 31.6332C0.281021 31.5627 0.245892 31.457 0.245892 31.3865C0.245892 31.3513 0.245892 31.316 0.245892 31.316C0.070254 30.118 0 28.8847 0 27.6515C0 27.4753 0 27.2991 0 27.1229C0 27.0525 0 26.982 0 26.8763C0.0351275 26.1716 0.0702583 25.4668 0.140513 24.7621V24.7269C0.140513 24.6212 0.175638 24.5155 0.175638 24.4097V24.3745C0.42153 22.4365 0.843063 20.5338 1.44023 18.7367C1.47536 18.6663 1.47536 18.5958 1.51048 18.5253C2.07253 16.9397 2.77507 15.3893 3.58301 13.9446C3.61813 13.8741 3.65326 13.8037 3.68839 13.7684C5.19887 11.1962 7.09576 8.8706 9.30879 6.93261C9.41418 6.86213 9.48443 6.75642 9.58982 6.68595C11.8028 4.7832 14.2969 3.2328 17.0368 2.10525C17.1422 2.07001 17.2476 1.99954 17.353 1.9643C18.8284 1.36529 20.374 0.907222 21.9547 0.590096C22.025 0.590096 22.0952 0.554858 22.1655 0.554858C23.5706 0.272969 25.0459 0.0967901 26.5213 0.061554C26.6618 0.061554 26.7672 0.061554 26.9077 0.061554C27.0833 0.061554 27.2941 0.061554 27.4697 0.061554C30.9473 0.061554 34.2493 0.695799 37.3054 1.89383C37.4108 1.92906 37.5162 1.96431 37.6216 1.99954C40.7479 3.23281 43.5933 5.06509 46.0522 7.28497C46.1224 7.35544 46.1927 7.39068 46.2629 7.46115C47.6329 8.76489 48.8975 10.1743 49.9865 11.76C50.0216 11.8304 50.0918 11.9009 50.127 11.9714C51.6375 14.156 52.8318 16.5873 53.6749 19.1948C53.71 19.2653 53.71 19.3357 53.7451 19.4062C54.2369 20.9214 54.553 22.4718 54.7638 24.0926C54.7638 24.1278 54.7638 24.1279 54.7638 24.1631C54.7638 24.2688 54.7989 24.3745 54.7989 24.445C54.7989 24.4802 54.7989 24.4802 54.7989 24.5155C55.0097 25.4668 55.08 26.5591 55.08 27.6162Z" fill="#C5C4C4"/>
<g id="Group">
<g id="Group_2">
<g id="Group_3">
<g id="Group_4">
<g id="Group_5">
<g id="Group_6">
<path id="Vector_5" d="M0 27.0886L1.75638 28.0048L2.0374 28.1457H2.07253L2.00227 28.2514L0.245892 31.3169C0.245892 31.3874 0.281021 31.4931 0.281021 31.5636C0.281021 31.5988 0.281021 31.6341 0.281021 31.6341L2.21303 28.2866L2.28329 28.1457C2.28329 28.1457 2.31842 28.1105 2.31842 28.0752V28.04V28.0048L2.28329 27.9695L2.24816 27.9343L2.17791 27.899L2.00227 27.7933H1.96714L1.79151 27.6876L0.0351297 26.7715C2.14349e-06 26.9124 0 26.9829 0 27.0886Z" fill="white"/>
</g>
</g>
<g id="Group_7">
<g id="Group_8">
<path id="Vector_6" d="M0 26.8414L1.75638 27.7928L0 26.8414ZM2.35354 28.1452V28.11L2.31842 28.0395L2.28329 27.969L2.0374 27.5814L0.210767 24.4102C0.210767 24.5159 0.175638 24.6216 0.175638 24.7273V24.7625L1.86176 27.6871L1.96714 27.8985L1.79151 27.7928L0.0351297 26.8414C0.0351297 26.9119 0.0351297 26.9824 0.0351297 27.0881L1.79151 28.0042L2.07253 28.1452H2.10765L2.21303 28.1804H2.24816C2.28329 28.1804 2.31842 28.1804 2.31842 28.1452C2.35355 28.2157 2.35354 28.1804 2.35354 28.1452Z" fill="white"/>
</g>
</g>
</g>
<g id="Group_9">
<g id="Group_10">
<g id="Group_11">
<path id="Vector_7" d="M6.04488 32.2678L5.9395 32.0211L5.83412 31.845L5.79899 31.7745V31.8097V31.845V31.8802V31.9859L5.76386 32.1621L5.86924 32.3735L14.4052 49.463C14.4755 49.4278 14.5457 49.3926 14.616 49.3926L6.04488 32.2678ZM14.897 49.9916L14.8619 49.9211L14.8268 49.8859L14.7916 49.8507L14.5809 49.3926L6.04488 32.2678L5.9395 32.0211L5.83412 31.845L5.79899 31.7745C5.79899 31.7745 5.79899 31.7745 5.76386 31.7393C5.72873 31.7393 5.6936 31.7393 5.6936 31.7393C5.6936 31.7393 5.69361 31.7393 5.65848 31.7393C5.65848 31.7393 5.65848 31.7393 5.65848 31.7745C5.65848 31.7745 5.65848 31.7745 5.65848 31.8097V31.845L5.62335 32.0564L5.58822 32.303L3.83185 41.4644C3.9021 41.5701 3.93723 41.6406 4.00749 41.7463L5.79899 32.3383L5.83412 32.1269L5.9395 32.3383L14.4755 49.4278L14.7214 49.9211H11.4194C11.5248 49.9916 11.6302 50.0621 11.7004 50.1325H14.897C14.9321 50.1325 14.9673 50.0973 14.9673 50.0973C14.897 50.0621 14.897 50.0268 14.897 49.9916Z" fill="white"/>
</g>
<g id="Group_12">
<path id="Vector_8" d="M16.652 25.2913C16.652 25.256 16.6169 25.256 16.6169 25.256C16.6169 25.256 16.5817 25.256 16.5466 25.256H16.5115H16.4764H16.4061L16.1602 25.2913L2.67123 27.934H2.60098L2.28483 28.0044H2.24971H2.17945H2.14432H2.10919V28.0397C2.10919 28.0749 2.10919 28.0749 2.10919 28.1102C2.10919 28.1102 2.10919 28.1101 2.10919 28.1454L2.21458 28.2511L2.24971 28.2863L4.00608 30.1186L5.02478 31.1757L5.55169 31.7042L5.58682 31.7395H5.62194L5.65707 31.7747H5.6922C5.72733 31.7747 5.72733 31.7747 5.76246 31.7747L5.79758 31.7395L5.83271 31.7042L5.90297 31.669L6.42988 31.3519L16.3007 25.4674L16.4764 25.3617L16.5466 25.3265L16.6169 25.2913L16.652 25.256V25.2208C16.652 25.2208 16.652 25.2208 16.652 25.1855V25.2913ZM6.35962 31.2462L5.6922 31.6338L5.13016 31.0348L2.46047 28.2511L2.42534 28.2159L2.53072 28.1806L15.9846 25.5379L6.35962 31.2462Z" fill="white"/>
</g>
</g>
<g id="Group_13">
<g id="Group_14">
<path id="Vector_9" d="M6.3234 31.986C6.28827 32.0565 6.25315 32.0917 6.18289 32.1622L20.5852 38.998V38.9628C20.5852 38.8923 20.6203 38.857 20.6554 38.8218L6.3234 31.986ZM21.1121 38.998L21.0418 38.9628L20.9716 38.9275L20.9013 38.8923L20.6554 38.7866L6.3234 31.986L5.90187 31.7746L5.72623 31.7041C5.69111 31.7041 5.65598 31.7041 5.65598 31.7041C5.65598 31.7041 5.65598 31.7041 5.62085 31.7041C5.62085 31.7041 5.62085 31.7041 5.62085 31.7393C5.62085 31.7393 5.62085 31.7393 5.62085 31.7746V31.8098L5.65598 31.9155L5.72623 32.0917L5.83162 32.3031L14.3676 49.3927L14.6135 49.886L14.6838 50.0269C14.6838 50.0622 14.7189 50.0621 14.754 50.0621C14.754 50.0621 14.754 50.0621 14.7891 50.0621C14.8243 50.0621 14.8594 50.0269 14.8594 50.0269L15.0702 49.6746L15.1404 49.5688L20.9365 39.4913L21.1472 39.1389L21.1823 39.1037C21.1823 39.1037 21.1823 39.0685 21.2175 39.0685C21.2175 39.0332 21.2175 39.0332 21.2175 38.998C21.1472 39.0332 21.1472 38.998 21.1121 38.998ZM14.5784 49.3574L6.04238 32.2679L5.937 32.0212L6.18289 32.1269L20.5852 38.9628L20.9365 39.1389L20.7608 39.4561L14.9999 49.4631L14.7891 49.8155L14.5784 49.3574Z" fill="white"/>
</g>
<g id="Group_15">
<path id="Vector_10" d="M5.7962 31.7398C5.76108 31.7398 5.7962 31.7398 5.7962 31.7398C5.7962 31.7045 5.79621 31.7045 5.76108 31.7045L5.72595 31.6693L5.16391 31.0703L2.49422 28.2866L2.45909 28.2514L2.42396 28.2161V28.1809L2.35371 28.1104C2.31858 28.0752 2.31858 28.0752 2.28345 28.0752H2.24833V28.1104L2.2132 28.1457L2.14294 28.2866L0.421692 31.2817C0.421692 31.3169 0.421692 31.3522 0.421692 31.3522C0.421692 31.4226 0.456822 31.5283 0.456822 31.5988L2.35371 28.3218L2.38884 28.2866L2.42396 28.3218L4.18034 30.1541L5.19904 31.2112L5.72595 31.7398L5.33954 32.0569L1.26476 35.0872C1.26476 35.1577 1.29988 35.2281 1.33501 35.2986L5.51518 32.1978L5.76108 32.0216L5.86646 31.9512L5.90159 31.9159L5.93672 31.8807C5.97184 31.8455 5.97184 31.8455 5.97184 31.8102V31.775C5.7962 31.775 5.7962 31.775 5.7962 31.7398Z" fill="white"/>
</g>
</g>
<g id="Group_16">
<g id="Group_17">
<path id="Vector_11" d="M21.1472 38.9979L21.1121 38.8569L21.0067 38.5046L16.7914 25.7138L16.686 25.432L16.6509 25.3615V25.3262C16.6509 25.3262 16.6509 25.291 16.6158 25.291H16.5806H16.5455L16.5104 25.3262L16.2645 25.4672L16.1942 25.5024L16.0537 25.5729L6.46391 31.2812L5.79648 31.6688L5.72623 31.704C5.72623 31.704 5.72623 31.704 5.6911 31.704C5.6911 31.704 5.6911 31.704 5.65598 31.7392C5.65598 31.7392 5.65598 31.7392 5.65598 31.7745V31.8097L5.6911 31.8449L5.76136 31.8802L5.83161 31.9154L5.97212 31.9859L6.21801 32.0916L20.6203 38.9274L20.9716 39.1036L21.0067 39.1388L21.077 39.1741H21.1121C21.1472 39.1741 21.1472 39.1741 21.1823 39.1388C21.1823 39.1388 21.1823 39.1036 21.2175 39.1036C21.2175 39.1036 21.2175 39.1036 21.2175 39.0683C21.2175 39.0331 21.2175 39.0331 21.2175 38.9979H21.1472ZM20.6554 38.7512L6.3234 31.9506L5.90187 31.7392L6.42878 31.4221L16.2996 25.5377L16.4753 25.432L16.5455 25.6786L20.7608 38.5398L20.8662 38.8569L20.6554 38.7512Z" fill="white"/>
</g>
<g id="Group_18">
<path id="Vector_12" d="M5.1293 32.0917L1.0545 35.122C1.0545 35.1925 1.08963 35.263 1.12476 35.3334L5.30494 32.2326C5.19955 32.1974 5.16443 32.1269 5.1293 32.0917ZM5.76159 31.7393L5.72647 31.7041C5.69134 31.7041 5.65621 31.7041 5.65621 31.7041C5.65621 31.7041 5.65621 31.7041 5.62108 31.7041L5.55083 31.7746L5.16442 32.0917L1.08963 35.122C1.08963 35.1925 1.12476 35.263 1.15989 35.3334L5.34006 32.2326L5.58596 32.0565L5.55083 32.3031L3.79445 41.4645C3.86471 41.5702 3.89983 41.6407 3.97009 41.7464L5.76159 32.3384L5.79672 32.1269L5.83185 31.9508V31.845V31.8098V31.7746C5.79672 31.7746 5.79672 31.7393 5.76159 31.7393Z" fill="white"/>
</g>
</g>
</g>
<g id="Group_19">
<g id="Group_20">
<g id="Group_21">
<path id="Vector_13" d="M28.3474 42.1342L28.2772 41.817L28.1718 41.7466L28.1015 41.9228L28.1718 42.1694L30.4199 50.2385C30.4902 50.2033 30.5605 50.168 30.6307 50.168L28.3474 42.1342ZM30.701 50.5909L30.6658 50.5204L30.5956 50.2385L28.3474 42.1694L28.2772 41.8523L28.242 41.6761L28.2069 41.6056V41.5704C28.2069 41.5704 28.2069 41.5704 28.1718 41.5352H28.1367C28.1015 41.5352 28.1015 41.5352 28.1015 41.5352C28.1015 41.5352 28.1015 41.5352 28.1015 41.5704V41.6056L28.0664 41.6761L27.9961 41.8875L27.8908 42.1694L23.2891 54.9602C23.3593 54.9602 23.4296 54.9954 23.4998 54.9954L28.0664 42.2751L28.1718 42.0285L28.242 42.2751L30.4902 50.3442L30.5605 50.6613L30.1741 51.0842L26.31 55.2773C26.4154 55.2773 26.4857 55.2773 26.591 55.2773L30.2794 51.2604L30.701 50.8023L30.7361 50.767C30.701 50.6613 30.701 50.6261 30.701 50.5909Z" fill="white"/>
</g>
<g id="Group_22">
<path id="Vector_14" d="M33.8294 39.0685C33.8294 39.0333 33.8294 39.0333 33.8294 39.0685C33.8294 39.0333 33.7942 39.0333 33.7942 39.0333C33.7591 38.998 33.7591 38.998 33.724 38.998H21.1132C21.1132 38.998 21.1132 38.998 21.0781 38.998C21.0781 38.998 21.0781 38.998 21.0429 38.998C21.0429 38.998 21.0078 38.998 21.0078 39.0333V39.0685C21.0078 39.1037 21.0429 39.1742 21.0781 39.1742H21.1132H21.1483L21.605 39.3504L27.5064 41.4646L27.8225 41.5703L27.9279 41.6055H27.9631H27.9982H28.0333H28.0684H28.1036H28.1387L28.1738 41.5703L28.2792 41.535L28.6305 41.3941L33.2322 39.3504L33.6537 39.139L33.724 39.1038C33.8294 39.1742 33.8294 39.1037 33.8294 39.0685ZM28.5602 41.2532L28.1036 41.4646L27.6469 41.2884L21.7806 39.1742H33.2322L33.1971 39.2095L30.3166 40.5132L28.5602 41.2532Z" fill="white"/>
</g>
</g>
<g id="Group_23">
<g id="Group_24">
<path id="Vector_15" d="M45.033 52.9165C45.033 52.9165 45.033 52.9517 45.033 52.9165C45.033 52.9165 45.033 52.9517 45.033 52.9165ZM28.6284 41.8171L28.3123 41.6057L28.1718 41.5352C28.1718 41.5352 28.1718 41.5352 28.1367 41.5352H28.1015H28.0664C28.0664 41.5352 28.0664 41.5352 28.0664 41.5704V41.6057V41.6409V41.6761L28.1015 41.7466L28.1367 41.9228L28.2069 42.1694L30.4551 50.2385L30.5253 50.5557V50.6261C30.5253 50.6614 30.5605 50.6966 30.5956 50.6966H30.6658L31.263 50.8023L40.1151 52.2117C40.2205 52.1413 40.3259 52.106 40.4313 52.0356L31.2279 50.5909L30.7361 50.5204L30.6658 50.2385L28.4177 42.1694L28.3474 41.8523L28.5933 42.0285L42.1525 51.0842C42.2228 51.049 42.293 51.0137 42.3633 50.9785L28.6284 41.8171Z" fill="white"/>
</g>
<g id="Group_25">
<path id="Vector_16" d="M21.7442 39.2095C21.7091 39.28 21.674 39.3504 21.6388 39.3857L27.5403 41.4998C27.5403 41.4294 27.5754 41.3589 27.6105 41.2884L21.7442 39.2095ZM28.1725 41.5351L28.1374 41.4998C28.1374 41.4998 28.1374 41.4998 28.1023 41.4998H28.0672L27.6105 41.3237L21.7442 39.2095H21.7091L21.5334 39.139L21.2173 39.0333L21.1119 38.9981H21.0768C21.0768 38.9981 21.0768 38.9981 21.0417 38.9981C21.0417 38.9981 21.0417 38.9981 21.0065 38.9981C21.0065 38.9981 20.9714 38.9981 20.9714 39.0333V39.0685L20.9012 39.1743L20.7255 39.4914L14.9646 49.4985L14.7538 49.8508L14.6836 49.9918C14.6836 50.027 14.6485 50.0622 14.6836 50.0975C14.6836 50.0975 14.6836 50.1327 14.7187 50.1327L14.7538 50.1679H14.789C14.789 50.1679 14.8241 50.1679 14.8592 50.1679L14.9295 50.0975L15.1754 49.9565L27.6105 42.0636L27.8564 41.9227L27.9969 41.817L28.0672 41.7817L28.1023 41.7465L28.1374 41.7113C28.1374 41.676 28.1374 41.676 28.1374 41.6408C28.1725 41.5703 28.1725 41.5703 28.1725 41.5351ZM27.5403 41.817L15.1754 49.7099H15.1402L15.1754 49.6746L20.9714 39.5619L21.1822 39.2095L21.6388 39.3857L27.5403 41.4998L27.8564 41.6056L27.5403 41.817Z" fill="white"/>
</g>
</g>
<g id="Group_26">
<g id="Group_27">
<path id="Vector_17" d="M45.033 52.9162C45.033 52.9162 45.033 52.9515 45.033 52.9162V52.9162ZM33.8976 39.1389L33.8273 39.0684C33.7922 39.0332 33.7922 39.0332 33.7571 39.0332H33.7219H33.6868L33.6517 39.0684L33.4058 39.1741L33.195 39.2446L30.3146 40.5131L28.5933 41.2883L28.1367 41.4997H28.1015C28.1015 41.4997 28.1015 41.4997 28.0664 41.4997C28.0664 41.4997 28.0664 41.4997 28.0664 41.535V41.5702V41.6054L28.1015 41.6407L28.1367 41.6759L28.2069 41.7111L28.3123 41.7816L28.5582 41.9578L42.1174 51.0135C42.1877 50.9783 42.2579 50.943 42.3282 50.9078L28.6987 41.7816L28.3826 41.5702L28.7338 41.4293L33.3355 39.3856L33.7571 39.1741L34.0732 39.5265L42.9956 50.485C43.0659 50.4497 43.101 50.4145 43.1712 50.3793L34.2489 39.4208L33.8976 39.1389Z" fill="white"/>
</g>
<g id="Group_28">
<path id="Vector_18" d="M28.0672 41.7114L27.997 41.7467L27.8565 41.8524L27.7511 42.1342L23.1494 54.925C23.2196 54.925 23.2899 54.9602 23.3601 54.9602L27.9267 42.24L28.0321 41.9933L28.1024 41.8171L28.0672 41.7114ZM28.1726 41.5352L28.1375 41.5C28.1375 41.5 28.1375 41.5 28.1024 41.5H28.0672H28.0321L27.8565 41.6057L27.5755 41.7819L15.2106 49.6748H15.1754L15.1052 49.71L14.8593 49.851L14.789 49.8862L14.7539 49.9214C14.7539 49.9567 14.7539 49.9919 14.7539 50.0272L14.789 50.0624L14.9647 50.3443L16.3698 52.7756C16.4752 52.8108 16.5805 52.8813 16.721 52.9165L15.1403 50.2033L15.0349 49.9919L15.2808 49.851L27.716 41.9581L27.9619 41.8171L27.8565 42.099L23.2548 54.8897C23.325 54.8897 23.3953 54.925 23.4655 54.925L28.0321 42.2047L28.1024 41.9581L28.1726 41.7819L28.2077 41.7114V41.6762V41.6409V41.6057C28.1726 41.5705 28.1726 41.5705 28.1726 41.5352Z" fill="white"/>
</g>
</g>
</g>
<g id="Group_29">
<g id="Group_30">
<g id="Group_31">
<path id="Vector_19" d="M52.2012 39.5255L52.166 39.455L48.302 33.1125L48.2318 32.9716L48.0561 32.6897L48.021 32.6192C48.021 32.6192 48.021 32.584 47.9859 32.584H47.9507H47.9156C47.9156 32.584 47.9156 32.584 47.9156 32.6192V32.7249V32.7954L47.8454 33.2182L45.6323 48.546C45.7026 48.4755 45.808 48.405 45.8782 48.3345L46.0539 47.1365L47.8805 33.3239L47.9156 33.0068L48.0913 33.2887L51.9553 39.6312L49.2856 44.5643C49.6017 44.1415 49.9179 43.7186 50.234 43.2958L52.166 39.7369L52.2012 39.6665C52.2012 39.596 52.2012 39.5608 52.2012 39.5255ZM45.0352 52.9152C45.0352 52.9152 45.0352 52.9505 45.0352 52.9152V52.9152Z" fill="white"/>
</g>
<g id="Group_32">
<path id="Vector_20" d="M52.6905 28.0743C52.6905 28.0391 52.6553 28.0391 52.6553 28.0391H52.6202H52.5851H52.5499L52.4094 28.0743L37.972 31.5274L37.6207 31.5979L37.41 31.6332H37.3749L37.2695 31.6684H37.2343C37.2343 31.6684 37.2343 31.6684 37.1992 31.7036V31.7389C37.1992 31.7741 37.2343 31.8446 37.3046 31.8446H37.3397H37.3749L37.972 31.8798L47.3862 32.655H47.4916L47.7726 32.6902H47.8429H47.878H47.9131H47.9482H47.9834L48.0888 32.5845L48.2995 32.3731L52.6202 28.2152L52.6905 28.1448L52.7256 28.1095C52.7256 28.18 52.7256 28.1448 52.6905 28.0743ZM47.8429 32.5845L47.4213 32.5493L38.0071 31.7741H37.972H38.0071L52.2689 28.3562L48.1239 32.3379L47.8429 32.5845Z" fill="white"/>
</g>
</g>
<g id="Group_33">
<g id="Group_34">
<path id="Vector_21" d="M48.0545 32.6554L47.9491 32.585H47.914H47.8789L47.8438 32.6202V32.6554V32.6907C47.8438 32.6907 47.8438 32.6907 47.8438 32.7259L47.8789 32.7611L47.914 32.7964L48.0194 32.9726L48.195 33.2544L52.0591 39.597L52.0942 39.6322C52.1293 39.6674 52.1644 39.6674 52.1996 39.6674H52.2698H52.4455C52.4806 39.597 52.5157 39.5265 52.5508 39.4208L52.2698 39.456L48.4058 33.1135L48.3355 32.9726L48.4761 33.043L53.8857 36.1791C53.9208 36.1086 53.9208 36.0381 53.9559 35.9676L48.5463 32.8316L48.0545 32.6554Z" fill="white"/>
</g>
<g id="Group_35">
<path id="Vector_22" d="M47.9493 32.6553C47.9493 32.6201 47.9493 32.6201 47.9493 32.6553L47.9141 32.6201H47.879H47.8439L47.4224 32.5848L38.0082 31.8097H37.9731L37.5515 31.7744H37.411H37.3056H37.2705H37.2354C37.2354 31.7744 37.2354 31.7744 37.2003 31.8097L37.1651 31.8449L36.9895 32.162L33.8983 38.5398L33.7577 38.8569L33.6875 38.9978V39.0331V39.0683C33.6875 39.0683 33.6875 39.0683 33.6875 39.1035V39.1388V39.174C33.7226 39.174 33.7226 39.2092 33.7577 39.2092H33.7929L33.9334 39.1388L34.3198 38.9626L47.4224 33.0429L47.7736 32.902L47.879 32.8667L47.9141 32.8315H47.9493C47.9844 32.8315 48.0195 32.7963 48.0195 32.761L47.9493 32.6553C47.9844 32.6553 47.9844 32.6553 47.9493 32.6553ZM47.3521 32.7963L34.2144 38.7512L33.9685 38.8569L34.0739 38.6102L37.1651 32.2677L37.3408 31.9154L37.9379 31.9506L47.3521 32.7258H47.4575L47.3521 32.7963Z" fill="white"/>
</g>
</g>
<g id="Group_36">
<g id="Group_37">
<path id="Vector_23" d="M52.7616 28.1799L52.7265 28.1095C52.7265 28.0742 52.6914 28.0742 52.6914 28.0742C52.6914 28.0742 52.6914 28.0742 52.6563 28.0742H52.6211C52.6211 28.0742 52.586 28.0742 52.586 28.1095L52.5157 28.1799L52.305 28.3913L48.1599 32.373L47.8789 32.6197C47.8789 32.6197 47.8789 32.6197 47.8789 32.6549V32.6902C47.8789 32.6902 47.8789 32.6902 47.8789 32.7254C47.8789 32.7254 47.8789 32.7254 47.8789 32.7606L47.914 32.7959H47.9492H47.9843L48.0897 32.8311L48.3004 32.972L48.4409 33.0425L53.8506 36.1785C53.8857 36.1081 53.8857 36.0376 53.9208 35.9671L48.5112 32.8311L48.1599 32.6197L48.3707 32.4083L52.6914 28.2856L54.8342 32.0207C54.8342 31.9854 54.8342 31.9854 54.8342 31.9502C54.8342 31.8797 54.8693 31.774 54.8693 31.6683L52.867 28.2152L52.7616 28.1799Z" fill="white"/>
</g>
<g id="Group_38">
<path id="Vector_24" d="M47.3521 32.7963L34.2144 38.7512C34.2496 38.8217 34.2847 38.8569 34.2847 38.9626L47.3873 33.043C47.3521 32.9372 47.3521 32.8668 47.3521 32.7963ZM47.9493 32.6554C47.9493 32.6201 47.9493 32.6201 47.9493 32.6554L47.9142 32.6201H47.879C47.879 32.6201 47.879 32.6201 47.8439 32.6201L47.4926 32.7963L47.3873 32.8315L34.2496 38.7864L34.0037 38.8922H33.9685L33.8632 38.9626L33.7578 38.9979C33.7578 38.9979 33.7227 38.9979 33.7227 39.0331V39.0683V39.1036V39.1388V39.174L33.7578 39.2093L34.0739 39.5616L42.9963 50.5201C43.0666 50.4849 43.1017 50.4496 43.172 50.4144L34.2496 39.4559L33.9685 39.1388L34.3549 38.9626L47.4575 33.043L47.8088 32.902L47.7385 33.3248L45.5255 48.6526C45.5957 48.5821 45.7011 48.5116 45.7714 48.4412L45.947 47.2431L47.879 33.3248L47.9142 33.0077L47.9493 32.8668V32.7611V32.7258V32.6554C47.9844 32.6554 47.9844 32.6554 47.9493 32.6554Z" fill="white"/>
</g>
</g>
</g>
<g id="Group_39">
<g id="Group_40">
<g id="Group_41">
<path id="Vector_25" d="M33.8295 38.9624L33.7593 38.8214L33.7242 38.7862L33.5836 38.5043L27.8579 28.5677L27.6822 28.2858L27.5768 28.1096L27.5417 28.0391L27.5066 28.0039H27.4715H27.4363C27.4363 28.0039 27.4012 28.0039 27.4012 28.0391C27.4012 28.0391 27.4012 28.0391 27.4012 28.0744L27.3661 28.1448L27.1553 28.4972L25.5043 31.3513L21.3944 38.4691L21.2188 38.7509L21.1836 38.8214L21.1134 38.9271V38.9624C21.1134 38.9976 21.1134 38.9976 21.1134 39.0328C21.1134 39.0328 21.1134 39.0328 21.1485 39.0681H21.1836H33.7944C33.8295 39.0681 33.8647 39.0328 33.8647 39.0328C33.8647 39.0328 33.8647 39.0328 33.8647 38.9976C33.8295 38.9976 33.8295 38.9976 33.8295 38.9624ZM21.4998 38.5748L27.2256 28.6382L27.4363 28.2858L27.6471 28.6734L33.3729 38.61L33.5485 38.8919H21.3241L21.4998 38.5748Z" fill="white"/>
</g>
<g id="Group_42">
<path id="Vector_26" d="M26.242 17.5742C26.1718 17.6094 26.1015 17.6094 26.0312 17.5742L27.2607 27.546C27.331 27.5108 27.4012 27.5108 27.4715 27.5108L26.242 17.5742ZM38.7825 18.2085C38.7825 18.1732 38.7825 18.1732 38.7825 18.1732H38.7474H38.7123L38.4664 18.138H38.2556L26.7689 17.1866L26.242 17.1514H26.2069H26.1718H26.1366H26.1015C26.0664 17.1866 26.0664 17.1866 26.0664 17.2218V17.2571V17.3628V17.4333L26.1015 17.6094L27.331 27.5813L27.3661 27.9336V28.0393V28.0746V28.1098L27.4012 28.145C27.4012 28.145 27.4012 28.145 27.4364 28.145C27.4715 28.145 27.4715 28.1451 27.5066 28.1098L27.5769 28.0746L27.6471 28.0041L27.9633 27.7222L37.0613 19.7588L38.5366 18.4551H38.5718L38.6069 18.4199L38.6772 18.3494L38.7474 18.2789C38.7474 18.2789 38.7474 18.2789 38.7825 18.2437V18.2085C38.7825 18.2437 38.7825 18.2437 38.7825 18.2085C38.7825 18.2437 38.7825 18.2085 38.7825 18.2085ZM27.7876 27.6165L27.5066 27.8632L27.4715 27.546L26.242 17.6094L26.2069 17.3275L26.5933 17.3628L38.2556 18.3142H38.3961L38.3259 18.3846L27.7876 27.6165Z" fill="white"/>
</g>
</g>
<g id="Group_43">
<g id="Group_44">
<path id="Vector_27" d="M37.3747 31.7038C37.3396 31.7038 37.3747 31.7038 37.3747 31.7038C37.3396 31.6685 37.3396 31.6333 37.3044 31.6333L37.2342 31.5981H37.1991L36.918 31.4924L28.0659 28.1802L27.6444 28.0392L27.539 28.004L27.4687 27.9688H27.4336H27.3985C27.3985 27.9688 27.3985 27.9688 27.3634 27.9688C27.3282 27.9688 27.3634 27.9688 27.3634 28.004C27.3634 28.004 27.3634 28.004 27.3634 28.0392V28.0745V28.1097V28.1449V28.1802L27.4336 28.3211L27.6444 28.7087L33.3702 38.6453L33.5458 38.9272L33.5809 38.9977L33.6161 39.0329L33.6512 39.0681C33.6512 39.1034 33.6863 39.1034 33.7566 39.1034C33.7917 39.1034 33.8268 39.0681 33.8268 39.0681L33.8971 38.892L34.0376 38.6101L37.1288 32.2676L37.3044 31.9504L37.3747 31.8447V31.8095C37.3747 31.739 37.3747 31.739 37.3747 31.7038ZM33.5458 38.5044L27.82 28.5678L27.6444 28.2859L27.9605 28.3916L36.8127 31.7038L37.0937 31.8095L36.9532 32.1266L33.8268 38.5044L33.6863 38.7863L33.5458 38.5044Z" fill="white"/>
</g>
<g id="Group_45">
<path id="Vector_28" d="M20.13 26.0662L17.0037 25.2558C17.0037 25.291 17.0037 25.3262 17.0037 25.3615C17.0037 25.3967 17.0037 25.432 16.9686 25.4672L26.8745 28.0394V28.0042C26.8745 27.9337 26.9096 27.8985 26.9448 27.828L20.13 26.0662ZM27.5068 28.0042V27.8632L27.4717 27.5461L26.2422 17.6095L26.2071 17.3276V17.2219V17.1867V17.1514C26.2071 17.1514 26.2071 17.1514 26.2071 17.1162H26.172H26.1368H26.1017L26.0666 17.1514L26.0315 17.1867L25.7504 17.4333L25.6802 17.5038L16.9334 24.9386L16.7227 25.1148L16.6524 25.1853L16.6173 25.2205C16.6173 25.2205 16.6173 25.2205 16.6173 25.2558V25.291C16.6173 25.291 16.6173 25.3262 16.6524 25.3262L16.6875 25.3615H16.7227H16.7578H16.7929H16.8632L17.0739 25.432L26.9799 28.0042L27.3312 28.1099L27.4014 28.1451H27.4366H27.4717C27.4717 28.1451 27.4717 28.1451 27.5068 28.1451C27.5419 28.1451 27.5419 28.1451 27.5771 28.1099V28.0747V28.0394L27.5068 28.0042ZM26.9448 27.8632L20.13 26.1014L17.0037 25.291L16.7929 25.2558L16.9334 25.1501L25.7856 17.6095L25.9612 17.4686L25.9963 17.6448L27.2258 27.6166L27.2609 27.9689L26.9448 27.8632Z" fill="white"/>
</g>
</g>
<g id="Group_46">
<g id="Group_47">
<path id="Vector_29" d="M27.6482 28.0391L28.0697 28.18L27.6482 28.0391ZM38.7836 18.2082C38.7836 18.1729 38.7836 18.1729 38.7836 18.1729L38.7485 18.1377C38.7134 18.1377 38.6783 18.1377 38.6431 18.1377H38.608L38.5026 18.2082L38.3972 18.3139L38.327 18.3844L27.7887 27.6162L27.5077 27.8629L27.4023 27.9686L27.3672 28.0038C27.3672 28.0038 27.3672 28.0038 27.3672 28.0391C27.3672 28.0391 27.3672 28.0391 27.3672 28.0743V28.1095V28.1448V28.18L27.4023 28.2152L27.4726 28.2505L27.6833 28.3209L27.9995 28.4267L36.8516 31.7389L37.1326 31.8446H37.1678H37.2029H37.238H37.2731C37.3083 31.8446 37.3083 31.8446 37.3434 31.8446L37.3785 31.8093V31.7741V31.7389V31.7036V31.5627L37.4137 31.2103L38.7485 18.5253V18.4548V18.2786V18.2434L38.7836 18.2082C38.7836 18.2434 38.7836 18.2082 38.7836 18.2082ZM36.8867 31.4922L28.0346 28.18L27.6131 28.0391L27.9292 27.7572L37.0273 19.7938L38.5026 18.4901H38.5377V18.5253L37.238 31.2103L37.2029 31.5979L36.8867 31.4922Z" fill="white"/>
</g>
<g id="Group_48">
<path id="Vector_30" d="M27.5066 28.0395C27.5066 28.0043 27.5066 28.0395 27.5066 28.0395C27.4715 28.0043 27.4715 28.0043 27.4715 28.0043H27.4364L27.331 27.969L27.0149 27.8986L20.2001 26.1368L17.0738 25.3263L16.863 25.2911L16.6874 25.2559H16.6522C16.6171 25.2559 16.582 25.2559 16.5468 25.2911L16.5117 25.3263C16.5117 25.3263 16.5117 25.3263 16.5117 25.3616V25.3968V25.432L16.5468 25.5025L16.582 25.573L16.6874 25.8549L20.9027 38.6456L21.008 39.0332L21.0432 39.1741C21.0432 39.1741 21.0432 39.2094 21.0783 39.2094C21.0783 39.2094 21.0783 39.2094 21.1134 39.2446H21.1486H21.1837C21.1837 39.2446 21.2188 39.2446 21.2188 39.2094L21.2539 39.1389L21.2891 39.1037L21.3242 39.0332L21.535 38.6808L27.2607 28.7442L27.4715 28.3919L27.5066 28.3214L27.5418 28.2862V28.2509V28.2157C27.5418 28.0748 27.5418 28.0395 27.5066 28.0395ZM27.05 28.4976L25.399 31.3517L21.2891 38.4694L21.1134 38.7513L21.008 38.4342L16.7927 25.6435L16.7225 25.3968L16.9332 25.4673L26.8392 28.0395L27.1905 28.1452L27.05 28.4976Z" fill="white"/>
</g>
</g>
</g>
<g id="Group_49">
<g id="Group_50">
<g id="Group_51">
<path id="Vector_31" d="M38.7797 18.2087C38.7797 18.1734 38.7797 18.1734 38.7797 18.1734L38.6743 18.0677L38.6392 18.0325L38.2879 17.7154L22.9372 3.12759L22.7264 2.91618L22.6561 2.8457H22.621C22.5859 2.8457 22.5507 2.8457 22.5507 2.8457L22.5156 2.88094V2.91618C22.5156 2.91618 22.5156 2.91617 22.5156 2.95141C22.5156 2.95141 22.5156 2.95141 22.5156 2.98665L22.5507 3.09236L22.621 3.33901L25.8879 16.4469L25.9932 16.8697L26.0635 17.1516V17.1868V17.2221C26.0635 17.2573 26.0635 17.2573 26.0986 17.2573C26.0986 17.2573 26.1338 17.2573 26.1338 17.2925H26.1689H26.2391L26.6255 17.3278L38.2879 18.2791H38.4284H38.604H38.6392H38.6743C38.7094 18.2791 38.7094 18.2791 38.7094 18.2791C38.7094 18.2791 38.7094 18.2792 38.7445 18.2439C38.7445 18.2439 38.7445 18.2439 38.7445 18.2087H38.7797C38.7797 18.2439 38.7797 18.2087 38.7797 18.2087ZM38.1825 18.0677L26.6958 17.1164L26.1689 17.0811L25.9932 16.3764L22.7264 3.30377V3.26854L22.7615 3.30377L38.1825 17.9268L38.3933 18.103L38.1825 18.0677Z" fill="white"/>
</g>
<g id="Group_52">
<path id="Vector_32" d="M22.199 0.519731C22.1288 0.519731 22.0585 0.55497 21.9883 0.55497L22.3396 2.5282C22.4098 2.49296 22.4801 2.45772 22.5503 2.45772L22.199 0.519731ZM26.5549 0.0264271L22.8313 2.56344L22.5854 2.73962L22.5503 2.49296L22.199 0.55497C22.1288 0.55497 22.0585 0.590208 21.9883 0.590208L22.3396 2.56344L22.4098 2.88056V2.95103C22.4098 2.95103 22.4098 2.95103 22.4098 2.98626C22.4098 2.98626 22.4098 2.98627 22.4098 3.0215L22.4449 3.05674H22.4801H22.5152L22.5854 3.0215L22.6206 2.98626L22.6908 2.9158L22.9016 2.77484L26.9061 0.0264271C26.8359 -0.00880904 26.6954 -0.00880904 26.5549 0.0264271Z" fill="white"/>
</g>
</g>
<g id="Group_53">
<g id="Group_54">
<path id="Vector_33" d="M41.2425 8.09491V8.05968C41.2425 8.02444 41.2074 8.02445 41.1722 8.02445L40.9264 7.95397L23.0113 2.95043L22.8006 2.87996L22.66 2.84473H22.6249C22.5898 2.84473 22.5547 2.84473 22.5547 2.84473L22.5195 2.87996V2.9152C22.5195 2.9152 22.5195 2.91519 22.5195 2.95043C22.5195 2.95043 22.5195 2.95043 22.5195 2.98567L22.5547 3.02091L22.7654 3.23233L22.8006 3.26756L38.2215 17.8906L38.4323 18.0668L38.5728 18.2077L38.6431 18.2782L38.6782 18.3134C38.6782 18.3134 38.6782 18.3134 38.7133 18.3134H38.7484C38.7484 18.3134 38.7484 18.3134 38.7836 18.3134C38.7836 18.3134 38.7836 18.3134 38.8187 18.2782V18.2429V18.2077L38.9943 17.5382L41.2074 8.51775L41.3127 8.13015L41.2425 8.09491ZM38.2567 17.7144L22.9411 3.16185L41.0317 8.20063L38.7484 17.503L38.6079 18.0315L38.2567 17.7144Z" fill="white"/>
</g>
<g id="Group_55">
<path id="Vector_34" d="M22.4469 2.98606C22.4469 2.95083 22.4117 2.95082 22.4117 2.95082C22.4117 2.95082 22.4117 2.95083 22.4117 2.9156C22.4117 2.9156 22.4117 2.9156 22.4117 2.88036V2.80988L22.1658 2.9156L15.1403 5.91067C15.1755 5.98114 15.2106 6.05161 15.2106 6.12208L17.0724 5.34689L22.3063 3.12701L22.5171 3.05654L22.5522 3.0213L22.4469 2.98606ZM21.9902 0.55477L22.3415 2.528L21.9902 0.55477ZM22.6225 2.88036V2.80988L22.5874 2.70418L22.5522 2.45752L22.201 0.519531C22.1307 0.519531 22.0605 0.55477 21.9902 0.55477L22.3415 2.528L22.4117 2.84512L22.1658 2.95082L15.1403 5.9459L15.1052 5.98114L15.1403 5.9459L17.4236 1.96422C17.3182 1.99945 17.2129 2.03469 17.1075 2.10516L14.9647 5.80496L14.7891 6.12208V6.15732C14.7891 6.15732 14.7891 6.15732 14.7891 6.19256V6.22779C14.7891 6.26303 14.7891 6.26302 14.8242 6.29826C14.8593 6.3335 14.8593 6.3335 14.8944 6.3335H14.9296L14.9998 6.29826L15.0701 6.26303L15.2457 6.19256L17.1075 5.41736L22.3415 3.19748L22.5522 3.12701L22.5874 3.09178H22.6225H22.6576C22.6225 2.98607 22.6576 2.95083 22.6225 2.88036Z" fill="white"/>
</g>
</g>
<g id="Group_56">
<g id="Group_57">
<path id="Vector_35" d="M41.2386 8.09545V8.06021L37.7258 1.96436C37.6205 1.92912 37.5151 1.89389 37.4097 1.85865L40.9224 7.95451L23.0074 2.95097L22.7966 2.8805L23.0074 2.73956L27.0119 0.0263672C26.8714 0.0263672 26.7309 0.0263672 26.6255 0.0263672L22.902 2.56338L22.6561 2.73956L22.5507 2.81002L22.5156 2.84526V2.8805C22.5156 2.8805 22.5156 2.8805 22.5156 2.91574C22.5156 2.91574 22.5156 2.91573 22.5156 2.95097C22.5156 2.95097 22.5156 2.95097 22.5507 2.95097H22.5859L22.7264 2.9862L22.9723 3.05668L41.063 8.09545H41.0981H41.1332C41.1332 8.09545 41.1332 8.09545 41.1683 8.09545C41.2035 8.09545 41.2386 8.09545 41.2386 8.06021C41.2386 8.06021 41.2386 8.06022 41.2386 8.02498C41.2386 8.13069 41.2386 8.13068 41.2386 8.09545Z" fill="white"/>
</g>
<g id="Group_58">
<path id="Vector_36" d="M26.2055 17.1867C26.2055 17.1515 26.2055 17.1867 26.2055 17.1867L26.1704 17.081L25.9947 16.3763L22.7279 3.30369V3.26846L22.6928 3.09228L22.6576 2.98656L22.6225 2.9161V2.88086C22.6225 2.88086 22.6225 2.88086 22.5874 2.88086C22.5522 2.88086 22.5171 2.88086 22.5171 2.88086L22.4469 2.9161L22.201 3.0218L15.1755 6.01688L15.1403 6.05211L14.8593 6.15782C14.8593 6.15782 14.8593 6.15782 14.8242 6.15782C14.8242 6.15782 14.8242 6.15782 14.7891 6.15782C14.7891 6.15782 14.7891 6.15782 14.7891 6.19306C14.7891 6.19306 14.7891 6.19306 14.7891 6.2283V6.26353C14.7891 6.29877 14.7891 6.29876 14.8242 6.334L14.9998 6.51018L15.0701 6.58066L25.5732 16.8344L25.9596 17.222L25.9947 17.2572L26.065 17.2924L26.1001 17.3277C26.1001 17.3277 26.1353 17.3277 26.1353 17.3629H26.1704H26.2055H26.2406C26.2055 17.222 26.2055 17.222 26.2055 17.1867ZM25.6083 16.5877L15.1403 6.36924L14.9998 6.26353L15.1755 6.19306L17.0372 5.41786L22.2361 3.19798L22.4469 3.12751L22.5171 3.37416L25.784 16.482L25.8894 16.9049L25.6083 16.5877Z" fill="white"/>
</g>
</g>
</g>
<g id="Group_59">
<g id="Group_60">
<g id="Group_61">
<path id="Vector_37" d="M52.6904 28.04L52.585 27.9695H52.5499L45.5947 22.7545L45.419 22.6488L45.3488 22.5783L45.3137 22.5431L45.2785 22.5079C45.2434 22.4726 45.2083 22.4726 45.1731 22.5079C45.1731 22.5079 45.138 22.5079 45.138 22.5431L45.1029 22.5783L45.0678 22.6136L44.9272 22.7898L37.6558 31.2464L37.4451 31.4931L37.41 31.5283L37.3046 31.634L37.2343 31.7045L37.1992 31.7398C37.1992 31.7398 37.1992 31.775 37.1641 31.775V31.8102V31.8455C37.1641 31.8807 37.1992 31.9159 37.2343 31.9159H37.2694H37.3046L37.972 31.775L52.2338 28.3571L52.6202 28.2514H52.6553C52.6904 28.2514 52.6904 28.2514 52.7256 28.2161V28.1809C52.7607 28.1104 52.7607 28.0752 52.6904 28.04ZM37.8315 31.3522L45.138 22.8602L45.2785 22.7193L45.4542 22.8602L52.4094 28.0752L37.9369 31.5283L37.5856 31.5988L37.8315 31.3522Z" fill="white"/>
</g>
<g id="Group_62">
<path id="Vector_38" d="M50.0552 11.7251L45.4535 21.8731L45.2779 22.2607L45.1725 21.8379L41.3436 8.23669L46.3668 7.39102C46.2966 7.32055 46.2263 7.25008 46.1561 7.21484L41.2733 8.02528H41.2031C41.2031 8.02528 41.2031 8.02528 41.168 8.02528H41.1328L41.0977 8.06051C41.0977 8.09575 41.0626 8.09575 41.0977 8.13099L41.168 8.44811L41.2031 8.51859L44.9617 21.8379L45.0671 22.2255L45.1374 22.4369V22.5073C45.1374 22.5073 45.1374 22.5073 45.1374 22.5426C45.1374 22.5426 45.1374 22.5426 45.1725 22.5426H45.2076C45.2427 22.5426 45.2428 22.5426 45.2779 22.5426C45.313 22.5426 45.313 22.5073 45.313 22.5073L45.3481 22.4369L45.4184 22.2607L45.594 21.8731L46.7884 19.2656L50.1957 11.7955C50.1606 11.8308 50.0904 11.7603 50.0552 11.7251Z" fill="white"/>
</g>
</g>
<g id="Group_63">
<g id="Group_64">
<path id="Vector_39" d="M54.8671 24.0932L52.6189 27.9692H52.5838L45.6285 22.7542L45.488 22.6485L45.769 22.5428L53.8484 19.3716C53.8484 19.3011 53.8132 19.2306 53.7781 19.1602L45.8042 22.2962L45.488 22.4019L45.3475 22.4371L45.2773 22.4724L45.207 22.5076C45.207 22.5076 45.1719 22.5076 45.1719 22.5428C45.1719 22.5428 45.1719 22.5428 45.1719 22.5781V22.6133C45.1719 22.6133 45.1719 22.6133 45.1719 22.6485C45.1719 22.6485 45.1719 22.6485 45.207 22.6485L45.2773 22.6838L45.4529 22.8247L52.4081 28.0397L52.4784 28.0749L52.5838 28.1454C52.5838 28.1454 52.5838 28.1454 52.6189 28.1454H52.654C52.6892 28.1454 52.6892 28.1454 52.7243 28.1102V28.0749L52.7946 27.934L54.8671 24.3399C54.8671 24.3046 54.8671 24.3046 54.8671 24.2694C54.8671 24.2694 54.8671 24.1637 54.8671 24.0932Z" fill="white"/>
</g>
<g id="Group_65">
<path id="Vector_40" d="M45.35 22.5074L45.3149 22.4369L45.2797 22.2607L45.1743 21.8379L41.3454 8.23673L41.3103 8.13102C41.3103 8.09579 41.2752 8.09579 41.2752 8.09579C41.2401 8.09579 41.2401 8.06055 41.2049 8.06055C41.2049 8.06055 41.2049 8.06055 41.1698 8.06055H41.1347L41.0996 8.09579V8.13102V8.16626L38.8163 17.4686L38.6757 18.0324V18.1029V18.1381L38.6406 18.279C38.6406 18.279 38.6406 18.279 38.6406 18.3143V18.3495C38.6406 18.3847 38.6757 18.3848 38.6757 18.42L38.7811 18.4905L38.8163 18.5257L38.8865 18.5609L44.7528 22.4017L45.1041 22.6483L45.1743 22.6836C45.1743 22.6836 45.1743 22.6836 45.2095 22.6836H45.2446H45.2797L45.3149 22.6483L45.35 22.6131V22.5779V22.5074ZM45.069 22.3312L44.7879 22.1198L39.0621 18.3848L38.8163 18.2438L38.9919 17.5743L41.1698 8.58909L44.9284 21.9084L45.069 22.3312Z" fill="white"/>
</g>
</g>
<g id="Group_66">
<g id="Group_67">
<path id="Vector_41" d="M53.743 19.1243L45.769 22.2603C45.769 22.3308 45.769 22.4013 45.769 22.4717V22.507L53.8484 19.3357C53.8132 19.2652 53.7781 19.1948 53.743 19.1243ZM45.769 22.2603L45.4529 22.366L45.6285 21.9784L46.8229 19.3709L50.1951 11.9009C50.16 11.8304 50.0897 11.7599 50.0546 11.6895L45.4529 21.8727L45.2773 22.2603L45.207 22.4012L45.1719 22.507V22.5422V22.5774C45.1719 22.5774 45.1719 22.5774 45.1719 22.6127C45.1719 22.6127 45.1719 22.6127 45.207 22.6127H45.2421H45.2773H45.3124L45.488 22.5422L45.769 22.4365L53.8484 19.2652C53.8484 19.1948 53.8132 19.1243 53.7781 19.0538L45.769 22.2603Z" fill="white"/>
</g>
<g id="Group_68">
<path id="Vector_42" d="M45.3137 22.5067L45.2786 22.4715L45.2083 22.4363L45.0678 22.3658L44.7868 22.1896L39.061 18.4546L38.8151 18.3136L38.78 18.2784C38.7449 18.2431 38.7097 18.2431 38.6746 18.2784C38.6395 18.2784 38.6044 18.3136 38.6044 18.3489V18.3841V18.4193V18.525V18.5955L37.3046 31.2453L37.2695 31.6681V31.7738V31.8091V31.8443V31.8795C37.2695 31.9148 37.3046 31.95 37.3398 31.95H37.3749C37.41 31.95 37.4451 31.95 37.4451 31.9148L37.5857 31.7386L37.6559 31.6329L37.9018 31.351L45.2083 22.8591L45.3488 22.7181L45.384 22.6477L45.4191 22.6124C45.4191 22.6124 45.4191 22.6124 45.4191 22.5772V22.542C45.3488 22.542 45.3137 22.5067 45.3137 22.5067ZM44.9273 22.7886L37.6559 31.2453L37.4451 31.4919L37.4803 31.1748L38.78 18.525V18.4898L38.8502 18.525L44.7165 22.3658L45.0678 22.6124L44.9273 22.7886Z" fill="white"/>
</g>
</g>
</g>
<g id="Group_69">
<g id="Group_70">
<g id="Group_71">
<path id="Vector_43" d="M52.7967 28.0041L54.9043 24.3748C54.9043 24.2691 54.8692 24.1634 54.8692 24.0929C54.8692 24.0577 54.8692 24.0577 54.8692 24.0225L52.5859 27.9689L52.5508 28.0394V28.0746C52.5508 28.0746 52.5508 28.0746 52.5508 28.1099V28.1451C52.5508 28.1803 52.5859 28.1803 52.621 28.1803L52.7264 28.2156H52.7615L52.8318 28.2508H52.9021L55.08 28.885C55.08 28.8146 55.08 28.7441 55.08 28.6736L52.8669 28.0394L52.7967 28.0041Z" fill="white"/>
</g>
</g>
<g id="Group_72">
<g id="Group_73">
<path id="Vector_44" d="M52.7967 28.004L52.6562 27.9688H52.621C52.5859 27.9688 52.5859 28.004 52.5508 28.004V28.0392C52.5508 28.0392 52.5508 28.0392 52.5508 28.0745C52.5508 28.1097 52.5508 28.1097 52.5508 28.1097L52.621 28.2154V28.2506L54.7287 31.9152C54.7287 31.8447 54.7638 31.739 54.7638 31.6333C54.7638 31.5981 54.7638 31.5981 54.7638 31.5628L52.8318 28.2154L55.0097 28.8497C55.0097 28.7792 55.0097 28.7087 55.0097 28.6382L52.7967 28.004Z" fill="white"/>
</g>
</g>
</g>
<g id="Group_74">
<g id="Group_75">
<g id="Group_76">
<path id="Vector_45" d="M16.6834 25.185L16.6132 25.1145L16.4375 24.9031L13.5571 21.8375L13.4517 21.7318L13.3814 21.6614L13.3463 21.6261C13.3463 21.6261 13.3112 21.6261 13.3112 21.5909H13.2761H13.2409C13.2409 21.5909 13.2409 21.5909 13.2058 21.5909L13.1707 21.6261L13.0653 21.6614L12.995 21.7318L12.9248 21.7671L2.59729 27.7572L2.28113 27.9334L2.21088 27.9686C2.17575 27.9686 2.17575 28.0039 2.17575 28.0391C2.17575 28.0391 2.17575 28.0744 2.17575 28.1096V28.1448C2.21088 28.1801 2.24601 28.2153 2.28113 28.2153C2.28113 28.2153 2.28114 28.2153 2.31626 28.2153L2.42165 28.1801L2.63241 28.1448L16.1916 25.5021H16.297L16.6132 25.4316H16.6834H16.7185C16.7185 25.4316 16.7537 25.4316 16.7537 25.3964L16.7888 25.3612C16.7185 25.2555 16.7185 25.2202 16.6834 25.185ZM13.0653 21.908L13.2058 21.8375L13.3112 21.9433L16.2268 25.0793L16.3673 25.2202L16.1565 25.2555L2.80805 27.8629L13.0653 21.908Z" fill="white"/>
</g>
<g id="Group_77">
<path id="Vector_46" d="M13.1328 21.7318C13.1328 21.6965 13.1328 21.6965 13.1328 21.6613V21.6261V21.5908V21.5204V21.4499L12.8869 21.2385L3.71866 13.6979C3.68354 13.7684 3.64841 13.8389 3.61328 13.8741L12.7816 21.4146L12.8167 21.4499L13.0626 21.6261L13.1328 21.7318C13.168 21.767 13.168 21.7318 13.1328 21.7318ZM14.9243 6.12214C14.8892 6.08691 14.8541 6.08691 14.7838 6.08691H14.7487L14.3272 6.12214L9.62009 6.61546C9.51471 6.68593 9.44445 6.79163 9.33907 6.8621L14.3623 6.33356L14.6785 6.29832L14.6433 6.54498L13.168 21.0623L13.1328 21.4499L12.8869 21.2385L3.71866 13.6979C3.68354 13.7684 3.64841 13.8389 3.61328 13.8741L12.7816 21.4146L12.8167 21.4499L13.0626 21.6261L13.168 21.7318C13.168 21.7318 13.168 21.7318 13.2031 21.7318H13.2382C13.2382 21.7318 13.2382 21.7318 13.2733 21.7318L13.3085 21.6965C13.3085 21.6965 13.3085 21.6965 13.3085 21.6613C13.3085 21.6613 13.3085 21.6613 13.3085 21.6261V21.5908V21.4851L13.3436 21.0975L14.819 6.50974V6.3688V6.19262V6.12214C14.9243 6.15738 14.9243 6.15738 14.9243 6.12214Z" fill="white"/>
</g>
</g>
<g id="Group_78">
<g id="Group_79">
<path id="Vector_47" d="M26.2042 17.1867C26.2042 17.1515 26.2042 17.1867 26.2042 17.1867C26.2042 17.1515 26.2042 17.1514 26.2042 17.1514C26.2042 17.1514 26.2042 17.1162 26.169 17.1162H26.1339H26.0988L25.9934 17.1514L25.9231 17.1867L25.5719 17.2924L13.6988 21.4503L13.4177 21.556L13.3124 21.5912H13.2772H13.2421C13.207 21.5912 13.1718 21.6264 13.1718 21.6617V21.6969C13.1718 21.7321 13.1718 21.7322 13.1718 21.7674C13.1718 21.7674 13.1718 21.7674 13.1718 21.8026L13.207 21.8379L13.3124 21.9436L16.2279 25.0796L16.3685 25.2205L16.4036 25.2558L16.4387 25.291L16.4738 25.3262L16.509 25.3615L16.5441 25.3967H16.5792H16.6143C16.6143 25.3967 16.6495 25.3967 16.6495 25.3615L16.79 25.2205L16.9305 25.1148L25.7826 17.5743L25.9583 17.4333L26.0636 17.3276H26.0988C26.0988 17.3276 26.0988 17.3276 26.0988 17.2924C26.2042 17.2219 26.2042 17.2219 26.2042 17.1867ZM16.8251 24.9386L16.6143 25.1148L16.4387 24.9034L13.5231 21.8379L13.4177 21.7322L13.6285 21.6617L25.5719 17.5038L16.8251 24.9386Z" fill="white"/>
</g>
<g id="Group_80">
<path id="Vector_48" d="M13.174 21.7672L13.0335 21.6615L12.7876 21.4853L12.7524 21.45L1.51163 18.4902C1.4765 18.5607 1.4765 18.6311 1.44138 18.7016L12.8227 21.6967L12.9281 21.7319L13.174 21.7672C13.2091 21.8024 13.174 21.7672 13.174 21.7672ZM13.3496 21.6615C13.3496 21.6262 13.3145 21.6262 13.3145 21.6262L13.2794 21.591L13.174 21.5205L12.9281 21.3091L3.75979 13.7686C3.72466 13.839 3.68954 13.9095 3.65441 13.9447L12.8227 21.4853L1.58188 18.5254C1.54676 18.5959 1.54676 18.6664 1.51163 18.7369L12.8929 21.7319L12.9983 21.7672L13.2091 21.8376H13.2442C13.2442 21.8376 13.2442 21.8376 13.2794 21.8376L13.3145 21.8024C13.3145 21.8024 13.3145 21.8024 13.3145 21.7672C13.3496 21.6967 13.3496 21.6967 13.3496 21.6615Z" fill="white"/>
</g>
</g>
<g id="Group_81">
<g id="Group_82">
<path id="Vector_49" d="M25.6461 17.4329C25.611 17.3976 25.5759 17.3272 25.5407 17.2919L13.6676 21.4498C13.6676 21.485 13.6676 21.5555 13.6676 21.626C13.6676 21.6612 13.6676 21.6612 13.6325 21.6965L25.5759 17.5386L25.6461 17.4329C25.6812 17.4329 25.6812 17.4329 25.6461 17.4329ZM26.2082 17.1862C26.2082 17.151 26.2082 17.1862 26.2082 17.1862C26.2082 17.151 26.2082 17.151 26.2082 17.151C26.2082 17.151 26.2082 17.151 26.2082 17.1158L25.9623 16.8691L25.6812 16.5872L15.2132 6.36873L15.0727 6.26302L14.9673 6.15731C14.9322 6.12207 14.8971 6.12207 14.862 6.12207C14.862 6.12207 14.862 6.12207 14.8268 6.12207C14.8268 6.12207 14.8268 6.12207 14.7917 6.15731C14.7917 6.15731 14.7917 6.15731 14.7917 6.19255C14.7917 6.19255 14.7917 6.19255 14.7917 6.22779V6.26302V6.36873L14.7566 6.61539L13.2812 21.1327L13.2461 21.5203V21.5908V21.6612V21.6965V21.7317C13.2461 21.7669 13.2461 21.7669 13.2461 21.8022C13.2461 21.8022 13.2461 21.8022 13.2461 21.8374C13.2461 21.8374 13.2461 21.8374 13.2812 21.8374H13.3164C13.3164 21.8374 13.3163 21.8374 13.3515 21.8374L13.492 21.8022L13.7028 21.7317L25.6461 17.5738L25.7515 17.5386L26.0676 17.4329L26.173 17.3976H26.2082C26.2082 17.3976 26.2081 17.3976 26.2433 17.3976C26.2433 17.3976 26.2433 17.3977 26.2433 17.3624C26.2081 17.2215 26.2082 17.2215 26.2082 17.1862ZM13.6676 21.4146L13.3866 21.5203L13.4217 21.1327L14.8971 6.54491V6.40397L14.9673 6.47443L25.4705 16.7282L25.8569 17.1158L25.5056 17.2215L13.6676 21.4146Z" fill="white"/>
</g>
<g id="Group_83">
<path id="Vector_50" d="M12.892 21.7671L2.56448 27.7573C2.59961 27.8277 2.59961 27.8982 2.59961 27.9687V28.0039L2.66986 27.9687L2.81037 27.8982L13.0676 21.9785C12.9974 21.8728 12.9622 21.8376 12.892 21.7671ZM13.3486 21.6614C13.3486 21.6262 13.3486 21.6262 13.3486 21.6262C13.3486 21.6262 13.3135 21.6262 13.3135 21.5909H13.2784L13.2081 21.5557L12.892 21.4852H12.8568L1.61604 18.5254C1.58091 18.5959 1.58091 18.6663 1.54578 18.7368L12.9271 21.7319L13.0325 21.7671L12.9622 21.8024L2.63473 27.7925L2.31859 27.9687L2.0727 27.5811L0.246062 24.4098V24.4451C0.246062 24.5508 0.210938 24.6565 0.210938 24.7622L1.89706 27.722L2.03757 27.9687L2.14295 28.1449L2.17808 28.1801V28.2153C2.17808 28.2506 2.21321 28.2506 2.24834 28.2506H2.28346C2.28346 28.2506 2.28346 28.2506 2.31859 28.2506H2.35371L2.38884 28.2153L2.63473 28.0744L2.70499 28.0392L2.8455 27.9687L13.1027 22.049L13.2432 21.9785L13.2784 21.9433L13.3135 21.9081C13.3135 21.9081 13.3135 21.9081 13.3135 21.8728C13.3486 21.6966 13.3486 21.6966 13.3486 21.6614C13.3486 21.6966 13.3486 21.6966 13.3486 21.6614Z" fill="white"/>
</g>
</g>
</g>
</g>
<path id="Vector_51" d="M6.42867 31.7034C6.35842 32.1262 5.93689 32.3729 5.55048 32.3024C5.12895 32.2319 4.88306 31.8091 4.95332 31.4215C5.02357 30.9987 5.4451 30.752 5.8315 30.8225C6.21791 30.893 6.49893 31.3158 6.42867 31.7034Z" fill="white"/>
<path id="Vector_52" d="M2.59841 28.0045C2.56328 28.2512 2.31738 28.3921 2.10662 28.3569C1.86072 28.3216 1.72021 28.075 1.75534 27.8636C1.79047 27.6169 2.03636 27.476 2.24713 27.5112C2.49302 27.5465 2.63353 27.7931 2.59841 28.0045Z" fill="white"/>
<path id="Vector_53" d="M13.6648 21.5914C13.6297 21.8381 13.3838 21.979 13.173 21.9438C12.9271 21.9086 12.7866 21.6619 12.8217 21.4505C12.8569 21.2038 13.1028 21.0629 13.3135 21.0981C13.5594 21.1334 13.6999 21.38 13.6648 21.5914Z" fill="white"/>
<path id="Vector_54" d="M17.0359 25.3961C17.0008 25.6428 16.7549 25.7837 16.5441 25.7485C16.2982 25.7132 16.1577 25.4666 16.1928 25.2552C16.228 25.0085 16.4739 24.8676 16.6846 24.9028C16.9305 24.9381 17.071 25.1495 17.0359 25.3961Z" fill="white"/>
<path id="Vector_55" d="M15.1765 6.22815C15.1414 6.47481 14.8955 6.61575 14.6847 6.58052C14.4388 6.54528 14.2983 6.29863 14.3335 6.08721C14.3686 5.84056 14.6145 5.69961 14.8252 5.73485C15.0711 5.77009 15.2117 6.01674 15.1765 6.22815Z" fill="white"/>
<path id="Vector_56" d="M23.0086 2.98597C22.9734 3.23262 22.7275 3.37356 22.5168 3.33833C22.2709 3.30309 22.1304 3.05644 22.1655 2.84502C22.2006 2.59837 22.4465 2.45743 22.6573 2.49266C22.9032 2.5279 23.0437 2.73931 23.0086 2.98597Z" fill="white"/>
<path id="Vector_57" d="M26.696 17.1158C26.6258 17.4681 26.3096 17.6795 25.9584 17.6091C25.6071 17.5386 25.3963 17.2215 25.4666 16.8691C25.5368 16.5167 25.853 16.3053 26.2043 16.3758C26.5555 16.4463 26.7663 16.7634 26.696 17.1158Z" fill="white"/>
<path id="Vector_58" d="M39.2028 18.1024C39.1326 18.3843 38.8867 18.5605 38.5705 18.5253C38.2895 18.4548 38.1139 18.2081 38.149 17.891C38.1841 17.5739 38.4651 17.4329 38.7813 17.4682C39.0974 17.5386 39.2731 17.8205 39.2028 18.1024Z" fill="white"/>
<path id="Vector_59" d="M45.7692 22.4717C45.699 22.7536 45.4531 22.9298 45.1369 22.8946C44.8559 22.8241 44.6803 22.5774 44.7154 22.2603C44.7856 21.9784 45.0315 21.8022 45.3477 21.8375C45.6287 21.9079 45.8043 22.1898 45.7692 22.4717Z" fill="white"/>
<path id="Vector_60" d="M48.3708 32.9014C48.3005 33.1833 48.0546 33.3595 47.7385 33.3242C47.4575 33.2538 47.2818 33.0071 47.317 32.69C47.3872 32.4081 47.6331 32.2319 47.9493 32.2672C48.2654 32.3376 48.441 32.6195 48.3708 32.9014Z" fill="white"/>
<path id="Vector_61" d="M21.7431 39.1381C21.6728 39.4553 21.3918 39.6667 21.0757 39.5962C20.7595 39.5257 20.5488 39.2438 20.619 38.9267C20.6893 38.6096 20.9703 38.3982 21.2864 38.4687C21.5675 38.5039 21.7782 38.821 21.7431 39.1381Z" fill="white"/>
<path id="Vector_62" d="M15.2118 50.0268C15.1416 50.344 14.8606 50.5554 14.5444 50.4849C14.2283 50.4144 14.0175 50.1325 14.0878 49.8154C14.158 49.4983 14.439 49.2869 14.7552 49.3573C15.0713 49.3926 15.2821 49.7097 15.2118 50.0268Z" fill="white"/>
<path id="Vector_63" d="M28.0321 28.2153C27.9618 28.5324 27.6808 28.7438 27.3647 28.6734C27.0485 28.6029 26.8378 28.321 26.908 28.0039C26.9783 27.6867 27.2593 27.4753 27.5754 27.5458C27.8916 27.6163 28.1023 27.8982 28.0321 28.2153Z" fill="white"/>
<path id="Vector_64" d="M37.9737 31.8803C37.9034 32.1975 37.6224 32.4089 37.3063 32.3384C36.9901 32.2679 36.7793 31.986 36.8496 31.6689C36.9199 31.3518 37.2009 31.1404 37.517 31.2108C37.8332 31.2813 38.0439 31.5632 37.9737 31.8803Z" fill="white"/>
<path id="Vector_65" d="M34.286 39.1743C34.2158 39.4914 33.9348 39.7028 33.6186 39.6323C33.3025 39.5619 33.0917 39.28 33.162 38.9629C33.2322 38.6457 33.5132 38.4343 33.8294 38.5048C34.1455 38.5753 34.3563 38.8572 34.286 39.1743Z" fill="white"/>
<path id="Vector_66" d="M28.665 41.7466C28.5947 42.0637 28.3137 42.2751 27.9975 42.2046C27.6814 42.1341 27.4706 41.8522 27.5409 41.5351C27.6111 41.218 27.8922 41.0066 28.2083 41.0771C28.5245 41.1475 28.7001 41.4294 28.665 41.7466Z" fill="white"/>
<path id="Vector_67" d="M31.2275 50.9077C31.1572 51.2248 30.8762 51.4362 30.56 51.3658C30.2439 51.2953 30.0331 51.0134 30.1034 50.6963C30.1736 50.3791 30.4547 50.1677 30.7708 50.2382C31.0869 50.3087 31.2626 50.5906 31.2275 50.9077Z" fill="white"/>
</g>
</g>
<g id="Group_84">
<g id="Group_85">
<g id="Group_86">
<path id="Vector_68" d="M8.39453 37.976C8.39453 37.6588 8.67555 37.377 8.9917 37.377C9.30785 37.377 9.58886 37.6588 9.58886 37.976C9.58886 38.2931 9.30785 38.575 8.9917 38.575C8.67555 38.575 8.39453 38.3283 8.39453 37.976Z" fill="white"/>
</g>
<g id="Group_87">
<path id="Vector_69" d="M23.4297 47.0668C23.4297 46.7497 23.7107 46.4678 24.0269 46.4678C24.343 46.4678 24.624 46.7497 24.624 47.0668C24.624 47.3839 24.343 47.6658 24.0269 47.6658C23.6756 47.6658 23.4297 47.3839 23.4297 47.0668Z" fill="white"/>
</g>
<g id="Group_88">
<path id="Vector_70" d="M7.41016 26.4542C7.41016 25.4676 8.21809 24.6924 9.16653 24.6924C10.1501 24.6924 10.9229 25.5028 10.9229 26.4542C10.9229 27.4408 10.115 28.216 9.16653 28.216C8.18296 28.216 7.41016 27.4408 7.41016 26.4542Z" fill="white"/>
</g>
<g id="Group_89">
<path id="Vector_71" d="M13.2773 44.4594C13.2773 43.8604 13.7691 43.4023 14.3312 43.4023C14.9283 43.4023 15.385 43.8957 15.385 44.4594C15.385 45.0584 14.8932 45.5165 14.3312 45.5165C13.734 45.5165 13.2773 45.0584 13.2773 44.4594Z" fill="white"/>
</g>
<g id="Group_90">
<path id="Vector_72" d="M12.7148 32.5846C12.7148 32.197 13.031 31.8799 13.4174 31.8799C13.8038 31.8799 14.1199 32.197 14.1199 32.5846C14.1199 32.9722 13.8038 33.2893 13.4174 33.2893C13.031 33.2893 12.7148 32.9722 12.7148 32.5846Z" fill="white"/>
</g>
<g id="Group_91">
<path id="Vector_73" d="M39.6211 40.5836C39.6211 40.196 39.9372 39.8789 40.3236 39.8789C40.71 39.8789 41.0262 40.196 41.0262 40.5836C41.0262 40.9712 40.71 41.2883 40.3236 41.2883C39.9372 41.2883 39.6211 40.9712 39.6211 40.5836Z" fill="white"/>
</g>
<g id="Group_92">
<g id="Group_93">
<path id="Vector_74" d="M41.8008 34.171C41.8008 33.8891 42.0115 33.6777 42.2926 33.6777C42.5736 33.6777 42.7843 33.8891 42.7843 34.171C42.7843 34.4529 42.5736 34.6643 42.2926 34.6643C42.0115 34.6643 41.8008 34.4529 41.8008 34.171Z" fill="white"/>
</g>
</g>
<g id="Group_94">
<path id="Vector_75" d="M46.0157 23.3529C46.0157 22.5425 46.6479 21.9082 47.4559 21.9082C48.2638 21.9082 48.8961 22.5425 48.8961 23.3529C48.8961 24.1633 48.2638 24.7976 47.4559 24.7976C46.6479 24.7976 46.0157 24.1281 46.0157 23.3529Z" fill="white"/>
</g>
<g id="Group_95">
<path id="Vector_76" d="M40.5 28.04C40.5 27.5819 40.8864 27.1943 41.3431 27.1943C41.7997 27.1943 42.1861 27.5819 42.1861 28.04C42.1861 28.4981 41.7997 28.8857 41.3431 28.8857C40.8864 28.9209 40.5 28.5333 40.5 28.04Z" fill="white"/>
</g>
<g id="Group_96">
<path id="Vector_77" d="M33.7188 7.2503C33.7188 6.93318 33.9646 6.68652 34.2808 6.68652C34.5969 6.68652 34.8428 6.93318 34.8428 7.2503C34.8428 7.56743 34.5969 7.81409 34.2808 7.81409C33.9646 7.81409 33.7188 7.56743 33.7188 7.2503Z" fill="white"/>
</g>
<g id="Group_97">
<path id="Vector_78" d="M48.1588 35.4043C48.1588 34.9462 47.7724 34.5586 47.3157 34.5586C46.8591 34.5586 46.4727 34.9462 46.4727 35.4043C46.4727 35.8623 46.8591 36.2499 47.3157 36.2499C47.8075 36.2147 48.1588 35.8623 48.1588 35.4043Z" fill="white"/>
</g>
<path id="Vector_79" d="M20.5155 14.9314C20.5155 13.5572 19.4266 12.4648 18.0566 12.4648C16.6866 12.4648 15.5977 13.5572 15.5977 14.9314C15.5977 16.3056 16.6866 17.3979 18.0566 17.3979C19.3914 17.4331 20.5155 16.3056 20.5155 14.9314Z" fill="white"/>
<g id="Group_98">
<path id="Vector_80" d="M40.3614 11.5491C40.5019 12.3595 41.2748 12.8881 42.0827 12.7471C42.8906 12.6062 43.4175 11.831 43.277 11.0206C43.1365 10.2101 42.3637 9.68159 41.5558 9.82253C40.783 9.96348 40.2209 10.7387 40.3614 11.5491Z" fill="white"/>
</g>
<g id="Group_99">
<path id="Vector_81" d="M39.3416 19.3014C39.4469 19.8652 39.9739 20.2528 40.5359 20.147C41.0979 20.0413 41.4843 19.5128 41.379 18.949C41.2736 18.3852 40.7467 17.9976 40.1846 18.1033C39.6226 18.1738 39.2362 18.7376 39.3416 19.3014Z" fill="white"/>
</g>
<g id="Group_100">
<path id="Vector_82" d="M35.1976 46.4681C35.1976 45.9043 34.741 45.4814 34.214 45.4814C33.652 45.4814 33.2305 45.9395 33.2305 46.4681C33.2305 47.0318 33.6871 47.4547 34.214 47.4547C34.741 47.4547 35.1976 47.0318 35.1976 46.4681Z" fill="white"/>
</g>
</g>
</g>
<g id="Group_101">
<path id="Vector_83" d="M38.2861 42.8033C38.2861 43.1909 37.9699 43.508 37.5835 43.508H19.809C19.4226 43.508 19.1065 43.1909 19.1065 42.8033C19.1065 41.429 20.2305 40.3015 21.5654 40.3015H26.5184C26.132 39.9844 25.8158 39.5615 25.6051 39.0682C25.5348 38.9273 25.4645 38.7511 25.4294 38.6101H25.4997C25.4645 38.6101 25.4294 38.5749 25.3943 38.5749V38.6101L24.5512 38.6806L19.8793 39.033C19.8793 39.033 19.8441 39.033 19.809 39.033C19.4226 39.033 19.0713 38.7159 19.0362 38.3283V38.1873C19.0011 37.7645 19.3172 37.4121 19.7388 37.3769L22.2328 37.2007L22.83 37.1655L25.324 36.9893H25.3943H25.324L21.6356 36.0731L20.9682 35.897L16.788 34.8399C16.1909 34.6989 15.8045 34.0647 15.9801 33.4657L16.0504 33.1838C16.1206 32.9019 16.2963 32.6552 16.5773 32.4791C16.8583 32.3029 17.1393 32.2676 17.4203 32.3381L19.3524 32.8314L19.8441 32.9371L25.1484 34.2761L26.5184 34.6285L26.9399 34.7342C27.3263 34.4875 27.7478 34.3466 28.2396 34.2761C29.0827 34.1352 29.8555 34.3466 30.5229 34.7342C32.9467 33.818 34.3518 31.2106 33.7546 28.6383C33.4385 27.3698 32.7008 26.2775 31.7172 25.5728C31.4713 25.6432 31.2255 25.6785 30.9796 25.6785C30.6985 25.6785 30.4175 25.6432 30.1365 25.5728L28.4153 25.0442L27.8181 27.0527C27.7478 27.3346 27.5722 27.546 27.2912 27.6869C27.1155 27.7574 26.975 27.8279 26.7994 27.8279C26.694 27.8279 26.5886 27.8279 26.4832 27.7926L26.3076 27.7222L25.8158 29.3078C25.7104 29.6954 25.3592 29.9068 25.0079 29.9068C24.9376 29.9068 24.8322 29.9068 24.762 29.8716L23.4623 29.484L23.0407 29.343L22.3031 29.1316C21.8464 28.9907 21.6005 28.5326 21.741 28.0745L22.2328 26.4889L21.8113 26.348C21.2492 26.1718 20.9331 25.5728 21.1087 25.009L21.4249 24.0224L21.7059 23.0357L24.0946 15.0724C24.1648 14.861 24.3053 14.6848 24.5161 14.5791C24.7269 14.4734 24.9376 14.4381 25.1835 14.5086L25.9212 14.7552L27.1858 10.5621L26.8696 10.4564C26.694 10.4212 26.6238 10.245 26.6589 10.0688C26.694 9.9279 26.8345 9.85742 26.9399 9.85742C26.975 9.85742 27.0102 9.85742 27.0102 9.85742L31.1903 11.1259C31.366 11.1612 31.4362 11.3373 31.4011 11.5135C31.366 11.6545 31.2255 11.7249 31.1201 11.7249C31.0849 11.7249 31.0498 11.7249 31.0498 11.7249L30.7337 11.6192L29.4691 15.8123L30.3121 16.059C30.5229 16.1295 30.6985 16.2704 30.8391 16.4818C30.9444 16.6932 30.9796 16.9047 30.9093 17.1513L30.2419 19.4064L31.8929 19.8997C32.7008 20.1464 33.3331 20.7102 33.6844 21.4149C35.9325 22.7186 37.6538 24.9033 38.2861 27.6517C39.4453 32.5495 36.6702 37.4826 32.0334 39.1034C31.8226 39.5968 31.5065 40.0548 31.085 40.372H35.8623C37.162 40.3015 38.2861 41.429 38.2861 42.8033Z" fill="#2D3037"/>
</g>
</g>
<g id="Group 160">
<path id="Vector_84" d="M8.09393 72.2394H7.14548V65.9497L4.58117 72.2394H4.19477L1.61641 65.9533V72.2394H0.667969V64.5967H2.0274L4.39149 70.3437L6.76611 64.5967H8.09393V72.2394Z" fill="#2D3037"/>
<path id="Vector_85" d="M20.3553 72.2414H15.3672V64.5986H20.3553V65.4443H16.3156V67.9108H20.2745V68.7565H16.3156V71.3886H20.3553V72.2414Z" fill="#2D3037"/>
<path id="Vector_86" d="M26.8125 73.65V71.4759C27.0949 71.4691 27.3703 71.3864 27.6099 71.2363C27.8698 71.0043 28.0576 70.7022 28.1509 70.366C28.354 69.7411 28.4894 69.0961 28.5549 68.4421L29.0221 64.6084H33.68V71.3984H34.3825V73.65H33.4341V72.2406H27.7645V73.65H26.8125ZM29.4963 68.509C29.3206 69.9819 28.9331 70.9439 28.3336 71.3949H32.7385V65.447H29.8721L29.4963 68.509Z" fill="#2D3037"/>
<path id="Vector_87" d="M41.9797 72.2414H41.0664V64.5986H42.0149V70.5641L46.3812 64.5986H47.3507V72.2414H46.4023V66.1455L41.9797 72.2414Z" fill="#2D3037"/>
<path id="Vector_88" d="M55.3457 64.5986V66.6036C55.3457 67.7781 55.9312 68.3654 57.1021 68.3654C57.6978 68.3703 58.2905 68.2811 58.8585 68.1011V64.6092H59.8069V72.2414H58.8585V68.9433C58.2606 69.1132 57.6427 69.2021 57.0213 69.2075C56.6626 69.2333 56.3025 69.184 55.9639 69.0627C55.6252 68.9414 55.3154 68.7507 55.0542 68.5028C54.5885 67.9771 54.3486 67.2882 54.3868 66.586V64.6057L55.3457 64.5986Z" fill="#2D3037"/>
<path id="Vector_89" d="M73.4292 72.2414H72.4807V68.7177H68.0266V72.2414H67.0781V64.5986H68.0266V67.8862H72.4772V64.5986H73.4292V72.2414Z" fill="#2D3037"/>
<path id="Vector_90" d="M87.2049 72.2411H86.1195L85.445 70.5463H81.6548L80.9838 72.2411H79.8984L82.958 64.6055H84.1348L87.2049 72.2411ZM85.1605 69.7006L83.5516 65.5886L81.9323 69.7006H85.1605Z" fill="#2D3037"/>
<path id="Vector_91" d="M101.57 72.3713V71.5362C101.854 71.5488 102.134 71.4684 102.368 71.3072C102.632 71.062 102.822 70.7468 102.916 70.3981C103.114 69.7625 103.248 69.1085 103.316 68.446L103.783 64.6123H108.441V72.2409H107.503V65.4474H104.637L104.261 68.5024C104.189 69.1845 104.058 69.859 103.868 70.5179C103.753 70.9513 103.547 71.355 103.263 71.7018C103.063 71.9371 102.809 72.1197 102.522 72.2339C102.215 72.3342 101.893 72.3807 101.57 72.3713Z" fill="#2D3037"/>
<path id="Vector_92" d="M122.221 72.2411H121.135L120.461 70.5463H116.674L116 72.2411H114.914L117.974 64.6055H119.15L122.221 72.2411ZM120.176 69.7006L118.567 65.5886L116.948 69.7006H120.176Z" fill="#2D3037"/>
<path id="Vector_93" d="M128.691 64.5986H133.633V65.4443H129.636V67.6325H131.743C132.066 67.614 132.389 67.6634 132.691 67.7775C132.994 67.8916 133.269 68.0678 133.5 68.2949C133.912 68.7396 134.141 69.3243 134.141 69.9316C134.141 70.5389 133.912 71.1237 133.5 71.5683C133.269 71.7956 132.994 71.972 132.691 72.0861C132.389 72.2002 132.066 72.2495 131.743 72.2308H128.684L128.691 64.5986ZM131.634 68.4746H129.636V71.3816H131.634C131.835 71.39 132.035 71.3586 132.223 71.289C132.411 71.2194 132.583 71.1132 132.73 70.9764C133.001 70.6952 133.153 70.3193 133.153 69.9281C133.153 69.5369 133.001 69.1611 132.73 68.8798C132.583 68.7443 132.41 68.6393 132.222 68.571C132.034 68.5026 131.834 68.4723 131.634 68.4817V68.4746Z" fill="#2D3037"/>
<path id="Vector_94" d="M144.338 72.3718C143.829 72.3909 143.323 72.3008 142.852 72.1075C142.381 71.9143 141.957 71.6223 141.608 71.2513C140.931 70.4657 140.559 69.462 140.559 68.4236C140.559 67.3851 140.931 66.3814 141.608 65.5959C142.332 64.874 143.312 64.4688 144.332 64.4688C145.353 64.4688 146.333 64.874 147.057 65.5959C147.737 66.3797 148.112 67.3841 148.112 68.4236C148.112 69.463 147.737 70.4674 147.057 71.2513C146.708 71.6206 146.286 71.9115 145.817 72.1047C145.348 72.2979 144.844 72.3889 144.338 72.3718ZM144.338 71.5261C144.719 71.54 145.099 71.4685 145.45 71.3167C145.8 71.1649 146.113 70.9368 146.365 70.6487C146.864 70.0131 147.135 69.2274 147.135 68.4183C147.135 67.6091 146.864 66.8235 146.365 66.1878C146.102 65.9134 145.787 65.695 145.439 65.5458C145.09 65.3966 144.715 65.3197 144.336 65.3197C143.957 65.3197 143.582 65.3966 143.233 65.5458C142.885 65.695 142.57 65.9134 142.307 66.1878C141.812 66.825 141.542 67.6101 141.542 68.4183C141.542 69.2265 141.812 70.0115 142.307 70.6487C142.558 70.9393 142.871 71.1699 143.222 71.3236C143.573 71.4772 143.955 71.55 144.338 71.5367V71.5261Z" fill="#2D3037"/>
<path id="Vector_95" d="M156.027 72.2413H155.078V64.5986H158.138C158.46 64.5799 158.783 64.6292 159.086 64.7433C159.388 64.8574 159.664 65.0337 159.894 65.261C160.306 65.7057 160.536 66.2905 160.536 66.8977C160.536 67.505 160.306 68.0898 159.894 68.5345C159.664 68.7616 159.388 68.9378 159.086 69.0519C158.783 69.166 158.46 69.2154 158.138 69.1969H156.03L156.027 72.2413ZM158.025 68.3653C158.226 68.3738 158.426 68.3423 158.614 68.2727C158.802 68.2032 158.974 68.0969 159.121 67.9601C159.392 67.6789 159.544 67.303 159.544 66.9118C159.544 66.5207 159.392 66.1448 159.121 65.8636C158.974 65.7267 158.802 65.6205 158.614 65.5509C158.426 65.4814 158.226 65.4499 158.025 65.4583H156.027V68.3653H158.025Z" fill="#2D3037"/>
<path id="Vector_96" d="M173.776 72.2411H172.69L172.016 70.5463H168.229L167.558 72.2411H166.473L169.532 64.6055H170.709L173.776 72.2411ZM171.731 69.7006L170.122 65.5886L168.503 69.7006H171.731Z" fill="#2D3037"/>
<path id="Vector_97" d="M183.077 72.2408H182.128V65.4472H179.719V64.6016H185.487V65.4472H183.066L183.077 72.2408Z" fill="#2D3037"/>
<path id="Vector_98" d="M195.701 72.3718C195.193 72.3909 194.686 72.3008 194.215 72.1075C193.745 71.9143 193.321 71.6223 192.972 71.2513C192.294 70.4657 191.922 69.462 191.922 68.4236C191.922 67.3851 192.294 66.3814 192.972 65.5959C193.696 64.874 194.675 64.4688 195.696 64.4688C196.717 64.4688 197.696 64.874 198.42 65.5959C199.1 66.3797 199.475 67.3841 199.475 68.4236C199.475 69.463 199.1 70.4674 198.42 71.2513C198.072 71.6206 197.649 71.9115 197.18 72.1047C196.712 72.2979 196.207 72.3889 195.701 72.3718ZM195.701 71.5261C196.083 71.54 196.462 71.4685 196.813 71.3167C197.164 71.1649 197.476 70.9368 197.728 70.6487C198.227 70.0131 198.498 69.2274 198.498 68.4183C198.498 67.6091 198.227 66.8235 197.728 66.1878C197.466 65.9134 197.151 65.695 196.802 65.5458C196.453 65.3966 196.078 65.3197 195.699 65.3197C195.32 65.3197 194.945 65.3966 194.596 65.5458C194.248 65.695 193.933 65.9134 193.671 66.1878C193.175 66.825 192.906 67.6101 192.906 68.4183C192.906 69.2265 193.175 70.0115 193.671 70.6487C193.921 70.9393 194.234 71.1699 194.585 71.3236C194.937 71.4772 195.318 71.55 195.701 71.5367V71.5261Z" fill="#2D3037"/>
<path id="Vector_99" d="M207.386 72.2413H206.437V64.5986H209.497C209.819 64.5799 210.142 64.6292 210.445 64.7433C210.747 64.8574 211.023 65.0337 211.253 65.261C211.666 65.7057 211.895 66.2905 211.895 66.8977C211.895 67.505 211.666 68.0898 211.253 68.5345C211.023 68.7616 210.747 68.9378 210.445 69.0519C210.142 69.166 209.819 69.2154 209.497 69.1969H207.389L207.386 72.2413ZM209.374 68.3653C209.574 68.3738 209.774 68.3423 209.962 68.2727C210.15 68.2032 210.323 68.0969 210.47 67.9601C210.741 67.6789 210.892 67.303 210.892 66.9118C210.892 66.5207 210.741 66.1448 210.47 65.8636C210.323 65.7267 210.15 65.6205 209.962 65.5509C209.774 65.4814 209.574 65.4499 209.374 65.4583H207.375V68.3653H209.374Z" fill="#2D3037"/>
<path id="Vector_100" d="M219.562 72.2414H218.613V64.5986H219.562V72.2414Z" fill="#2D3037"/>
<path id="Vector_101" d="M227.579 72.2412H226.473L228.528 69.1263C227.995 69.0896 227.495 68.8576 227.123 68.4745C226.925 68.2661 226.773 68.0196 226.673 67.75C226.574 67.4804 226.531 67.1934 226.546 66.9065C226.533 66.5965 226.586 66.2872 226.701 65.9992C226.816 65.7113 226.991 65.4512 227.214 65.2363C227.685 64.8061 228.306 64.5795 228.942 64.6055H232.002V72.2412H231.053V69.2074H229.525L227.579 72.2412ZM229.048 68.3652H231.057V65.4442H229.048C228.847 65.4357 228.647 65.4672 228.459 65.5368C228.271 65.6063 228.098 65.7126 227.952 65.8494C227.675 66.1314 227.52 66.511 227.52 66.9065C227.52 67.3019 227.675 67.6815 227.952 67.9635C228.099 68.1001 228.271 68.2059 228.459 68.2748C228.647 68.3438 228.847 68.3745 229.048 68.3652Z" fill="#2D3037"/>
</g>
</g>
</svg>
