<svg width="40" height="40" viewBox="0 0 40 40" fill="none" xmlns="http://www.w3.org/2000/svg">
<g clip-path="url(#clip0_124_144)">
<path d="M15.5981 36.79C15.5981 37.135 15.3241 37.4178 14.9791 37.4178C14.6341 37.4178 14.3513 37.135 14.3513 36.79V28.9275C14.3513 28.3972 14.5809 27.9193 14.9525 27.5747C15.3153 27.2387 15.8019 27.0353 16.3413 27.0353H23.655C24.1944 27.0353 24.6897 27.2384 25.0431 27.5747C25.4144 27.9197 25.645 28.3972 25.645 28.9275V36.79C25.645 37.135 25.3706 37.4178 25.0256 37.4178C24.6806 37.4178 24.3978 37.135 24.3978 36.79V28.9275C24.3978 28.7597 24.3269 28.6003 24.2031 28.4856C24.0619 28.3618 23.8759 28.2822 23.655 28.2822H20.6213V36.7903C20.6213 37.1353 20.3475 37.4181 20.0025 37.4181C19.6578 37.4181 19.3747 37.1353 19.3747 36.7903V28.2818H16.3413C16.1291 28.2818 15.9431 28.3618 15.8019 28.4853C15.6781 28.6 15.5984 28.7593 15.5984 28.9272L15.5981 36.79Z" fill="#333333"/>
<path d="M13.8384 18.6513H17.924C18.269 18.6513 18.5431 18.9257 18.5431 19.2703V23.0735C18.5431 23.4185 18.269 23.6919 17.924 23.6919H13.8384C13.4934 23.6919 13.2194 23.4182 13.2194 23.0735V19.2703C13.219 18.9257 13.4934 18.6513 13.8384 18.6513ZM13.8384 11.0897H17.924C18.269 11.0897 18.5431 11.3641 18.5431 11.7088V15.5116C18.5431 15.8566 18.269 16.1307 17.924 16.1307H13.8384C13.4934 16.1307 13.2194 15.8563 13.2194 15.5116V11.7091C13.219 11.3641 13.4934 11.0897 13.8384 11.0897ZM17.2962 12.3372H14.4662V14.8838H17.2962V12.3372ZM24.1234 14.8838C24.4684 14.8838 24.7422 15.1669 24.7422 15.5119C24.7422 15.8569 24.4681 16.131 24.1234 16.131H22.0806C21.7356 16.131 21.4525 15.8566 21.4525 15.5119V11.7091C21.4525 11.3641 21.7353 11.09 22.0806 11.09C22.4256 11.09 22.6997 11.3644 22.6997 11.7091V14.8838H24.1234ZM22.0806 18.6513H26.1575C26.5025 18.6513 26.7853 18.9257 26.7853 19.2703V23.0735C26.7853 23.4185 26.5025 23.6919 26.1575 23.6919H22.0806C21.7356 23.6919 21.4525 23.4182 21.4525 23.0735V19.2703C21.4525 18.9257 21.7356 18.6513 22.0806 18.6513ZM25.5387 19.8985H22.7V22.4453H25.5387V19.8985ZM17.2962 19.8985H14.4662V22.4453H17.2962V19.8985Z" fill="#333333"/>
<path d="M30.5084 19.1556C30.3319 19.4475 29.9519 19.5534 29.6597 19.3766C29.5622 19.3147 29.4828 19.2353 29.4297 19.1469L24.0703 10.0641C23.7959 9.59531 23.5662 8.99406 23.425 8.46344C23.2831 7.915 23.2125 7.34938 23.2125 6.76531C23.2125 4.89906 23.9644 3.21031 25.1934 1.98062C26.4141 0.760625 28.1031 0 29.9781 0C31.8441 0 33.5331 0.760625 34.7625 1.98094C35.9828 3.21063 36.7437 4.89937 36.7437 6.76562C36.7437 7.34937 36.6641 7.91531 36.5228 8.46375C36.3809 9.03 36.1597 9.56031 35.8859 10.0556L30.5084 19.1556ZM29.9781 17.6166L34.8066 9.43594C35.0278 9.03813 35.2047 8.60469 35.3197 8.15375C35.4344 7.71125 35.4962 7.25156 35.4962 6.76531C35.4962 5.24406 34.8778 3.86469 33.8781 2.86531C32.8787 1.86625 31.4991 1.24688 29.9781 1.24688C28.4481 1.24688 27.0684 1.86594 26.0694 2.86531C25.0784 3.86469 24.4597 5.24406 24.4597 6.76531C24.4597 7.25187 24.5212 7.71125 24.6278 8.15375C24.7425 8.59562 24.9194 9.02031 25.1316 9.41813L29.9781 17.6166Z" fill="#333333"/>
<path d="M29.9781 3.15723C30.9687 3.15723 31.8706 3.56441 32.5247 4.21848C33.1794 4.8641 33.5862 5.76598 33.5862 6.76535C33.5862 7.76441 33.1791 8.66691 32.5247 9.32129C31.8703 9.96691 30.9687 10.3735 29.9781 10.3735C28.9787 10.3735 28.0766 9.96691 27.4222 9.32129C26.7678 8.66691 26.37 7.76473 26.37 6.76535C26.37 5.76598 26.7678 4.8641 27.4222 4.21848C28.0766 3.5641 28.9784 3.15723 29.9781 3.15723ZM31.6406 5.0941C31.2159 4.66973 30.6237 4.40441 29.9781 4.40441C29.3237 4.40441 28.7309 4.66973 28.3066 5.0941C27.8819 5.52754 27.6169 6.11098 27.6169 6.76566C27.6169 7.42004 27.8819 8.01254 28.3066 8.43723C28.7306 8.8616 29.3237 9.12691 29.9781 9.12691C30.6237 9.12691 31.2159 8.8616 31.6406 8.43723C32.0737 8.01285 32.3391 7.42004 32.3391 6.76566C32.3391 6.11098 32.0737 5.52754 31.6406 5.0941Z" fill="#333333"/>
<path d="M32.8606 30.3782C32.5156 30.3782 32.2422 30.0954 32.2422 29.7504C32.2422 29.4054 32.5159 29.131 32.8606 29.131H35.1247C35.9031 29.131 36.5931 29.5822 36.8937 30.2985L39.8209 37.4266C39.9447 37.7272 39.9887 38.0282 39.9534 38.3288C39.8916 38.9391 39.4844 39.5047 38.945 39.7879C38.6709 39.9294 38.3703 40.0004 38.0522 40.0004H1.95249C1.63406 40.0004 1.33343 39.9294 1.05937 39.7879C0.510932 39.5047 0.113119 38.9391 0.0424943 38.3288C0.0159318 38.0282 0.0599943 37.7272 0.174994 37.4266L3.11124 30.2985C3.41187 29.5822 4.10156 29.131 4.87999 29.131H7.12624C7.47124 29.131 7.74531 29.4057 7.74531 29.7504C7.74531 30.095 7.47124 30.3782 7.12624 30.3782H4.87999C4.60593 30.3782 4.36687 30.5107 4.26093 30.776L1.33374 37.9038C1.28937 38.0016 1.27187 38.0985 1.28062 38.196C1.30718 38.3994 1.44874 38.585 1.62562 38.6825C1.72281 38.7269 1.82874 38.7535 1.95281 38.7535H38.0528C38.1766 38.7535 38.2825 38.7269 38.3712 38.6825C38.5572 38.585 38.6984 38.3997 38.7162 38.196C38.725 38.0985 38.7162 38.0016 38.6719 37.9038L35.7447 30.776C35.6384 30.5104 35.3997 30.3782 35.1256 30.3782H32.8606Z" fill="#333333"/>
<path d="M29.3503 21.835C29.3503 21.49 29.6331 21.2069 29.9781 21.2069C30.3231 21.2069 30.5972 21.49 30.5972 21.835V36.7897C30.5972 37.1347 30.3228 37.4175 29.9781 37.4175H10.0266C9.68156 37.4175 9.4075 37.1347 9.4075 36.7897V9.45405C9.4075 8.92343 9.6375 8.44562 10.0091 8.10093C10.3628 7.76468 10.8581 7.55249 11.3975 7.55249H21.2403C21.5853 7.55249 21.8594 7.8353 21.8594 8.18062C21.8594 8.52562 21.585 8.80843 21.2403 8.80843H11.3975C11.1763 8.80843 10.9906 8.87937 10.8494 9.01187C10.7256 9.12655 10.6547 9.28593 10.6547 9.45405V36.1703H29.3506L29.3503 21.835Z" fill="#333333"/>
</g>
<defs>
<clipPath id="clip0_124_144">
<rect width="40" height="40" fill="white"/>
</clipPath>
</defs>
</svg>
