<svg width="40" height="40" viewBox="0 0 40 40" fill="none" xmlns="http://www.w3.org/2000/svg">
<mask id="mask0_124_643" style="mask-type:luminance" maskUnits="userSpaceOnUse" x="0" y="0" width="40" height="40">
<path d="M0 3.8147e-06H40V40H0V3.8147e-06Z" fill="white"/>
</mask>
<g mask="url(#mask0_124_643)">
<path d="M10.2365 7.18012H2.21578C1.4232 7.18012 0.78125 7.82293 0.78125 8.69449V29.402C0.78125 30.1149 1.4232 30.7568 2.21578 30.7568H30.333C31.1257 30.7568 31.7676 30.1149 31.7676 29.402V18.8074L30.4646 18.7277C29.8737 18.7277 29.3944 18.2484 29.3944 17.6568V16.8936C29.3944 16.0857 28.4679 15.4414 27.6737 15.9L27.0126 16.282C26.5006 16.5779 25.8459 16.4024 25.5501 15.8896L24.3181 13.7565C24.0223 13.2446 24.1984 12.5899 24.7096 12.294L25.3706 11.9129C26.1019 11.4903 26.1019 10.3475 25.3706 9.92574L24.7104 9.54457C24.1984 9.24871 24.0223 8.59316 24.3181 8.08207L24.8388 7.18012H17.2518" stroke="#333333" stroke-miterlimit="10" stroke-linecap="round" stroke-linejoin="round"/>
<path d="M31.768 26.7811V29.4022C31.768 30.1147 31.1258 30.757 30.3328 30.757H2.21563C1.42344 30.757 0.78125 30.1147 0.78125 29.4022V26.7811H31.768Z" stroke="#333333" stroke-miterlimit="10" stroke-linecap="round" stroke-linejoin="round"/>
<path d="M20.2853 34.8948L19.8032 30.7568H13.5432L13.061 34.8948C12.9314 36.031 11.9693 36.8886 10.8258 36.8874C10.7877 36.8889 10.8643 36.8896 10.8258 36.8896H22.5205C22.4821 36.8896 22.5587 36.8889 22.5205 36.8874C21.3771 36.8886 20.4149 36.031 20.2853 34.8948Z" stroke="#333333" stroke-miterlimit="10" stroke-linecap="round" stroke-linejoin="round"/>
<path d="M10.8258 36.8896H9.90143" stroke="#333333" stroke-miterlimit="10" stroke-linecap="round" stroke-linejoin="round"/>
<path d="M23.4449 36.8896H22.5205" stroke="#333333" stroke-miterlimit="10" stroke-linecap="round" stroke-linejoin="round"/>
<path d="M7.23965 15.3065L5.01895 12.9729L7.23965 10.6393" stroke="#333333" stroke-miterlimit="10" stroke-linecap="round" stroke-linejoin="round"/>
<path d="M16.0159 15.3065L18.2366 12.9729L16.0159 10.6393" stroke="#333333" stroke-miterlimit="10" stroke-linecap="round" stroke-linejoin="round"/>
<path d="M13.111 10.6392L10.2361 15.3064" stroke="#333333" stroke-miterlimit="10" stroke-linecap="round" stroke-linejoin="round"/>
<path d="M18.383 18.8297H5.01892" stroke="#333333" stroke-miterlimit="10" stroke-linecap="round" stroke-linejoin="round"/>
<path d="M14.5774 22.7942H5.01895" stroke="#333333" stroke-miterlimit="10" stroke-linecap="round" stroke-linejoin="round"/>
<path d="M25.4429 22.7942H18.769" stroke="#333333" stroke-miterlimit="10" stroke-linecap="round" stroke-linejoin="round"/>
<path d="M31.6965 8.44629C33.0621 8.44621 34.1697 9.55324 34.1697 10.9189C34.1697 12.2846 33.0621 13.3917 31.6965 13.3917C30.3308 13.3917 29.2237 12.2846 29.2237 10.9189C29.2237 9.55324 30.3308 8.44629 31.6965 8.44629ZM24.7105 9.54434L25.371 9.92582C26.1022 10.3471 26.1022 11.4901 25.371 11.9127L24.7099 12.2942C24.1984 12.5899 24.0226 13.2444 24.3183 13.7565L25.5505 15.89C25.8462 16.4021 26.5007 16.5779 27.0127 16.2822L27.6738 15.9001C28.4676 15.4418 29.3942 16.0859 29.3942 16.8932V17.6569C29.3942 18.2482 29.8735 18.7275 30.4648 18.7275H32.9286C33.52 18.7275 33.9993 18.2482 33.9993 17.6569V16.8932C33.9993 16.0857 34.9258 15.4418 35.7197 15.9001L36.3808 16.2822C36.8929 16.5779 37.5474 16.4021 37.843 15.89L39.0752 13.7565C39.3708 13.2444 39.195 12.5899 38.6829 12.2942L38.0225 11.9127C37.293 11.4911 37.2897 10.3481 38.0225 9.92582L38.6829 9.54434C39.195 9.24863 39.3708 8.5941 39.0752 8.08199L37.843 5.94793C37.5474 5.4359 36.8929 5.26059 36.3808 5.55629L35.7197 5.93777C34.9253 6.39637 33.9993 5.75215 33.9993 4.94465V4.18098C33.9993 3.58965 33.52 3.11035 32.9286 3.11035H30.4648C29.8735 3.11035 29.3942 3.58965 29.3942 4.18098V4.94465C29.3942 5.75215 28.4682 6.39637 27.6739 5.93777L27.0127 5.55629C26.5007 5.26059 25.8462 5.4359 25.5505 5.94793L24.3183 8.08199C24.0226 8.59348 24.1984 9.24863 24.7105 9.54434Z" stroke="#333333" stroke-miterlimit="10" stroke-linecap="round" stroke-linejoin="round"/>
</g>
</svg>
