<svg width="40" height="40" viewBox="0 0 40 40" fill="none" xmlns="http://www.w3.org/2000/svg">
<g clip-path="url(#clip0_124_639)">
<path d="M33.9199 14.1294C33.1667 13.8397 32.3631 13.5768 31.5182 13.3409C31.7363 12.4912 31.9105 11.6638 32.0363 10.8666C32.6906 6.71703 31.9675 3.80622 30.0001 2.67031C29.4282 2.3401 28.7709 2.17261 28.0466 2.17261C25.7587 2.17261 22.8678 3.87176 19.9514 6.7412C19.3143 6.1155 18.6743 5.54078 18.0363 5.02486C14.77 2.38333 11.8874 1.55414 9.92017 2.69005C8.65583 3.42001 7.88689 4.91074 7.69668 7.00086C7.66468 7.35193 7.9234 7.66239 8.27447 7.69431C8.62664 7.72682 8.93591 7.46759 8.96791 7.11652C9.07328 5.95959 9.43464 4.44435 10.5584 3.79559C12.0146 2.95465 14.4477 3.76452 17.2336 6.01737C17.8415 6.50895 18.4518 7.05712 19.0601 7.65422C17.8368 8.95576 16.6196 10.4537 15.4507 12.1093C13.3946 12.2964 11.4361 12.6104 9.63872 13.041C9.324 11.8175 9.10783 10.6501 9.00119 9.56639C8.96672 9.21559 8.65574 8.95925 8.30349 8.99371C7.95268 9.02818 7.69625 9.34061 7.73081 9.69142C7.84366 10.8381 8.07191 12.0715 8.4046 13.3623C7.58791 13.5926 6.81055 13.8484 6.08026 14.1293C2.15923 15.6374 0 17.7191 0 19.9908C0 22.2626 2.15923 24.3443 6.08009 25.8523C6.83328 26.142 7.63685 26.4049 8.48179 26.6408C8.26366 27.4905 8.08953 28.3179 7.96374 29.1151C7.30936 33.2646 8.03251 36.1754 9.99991 37.3113C10.5718 37.6415 11.2291 37.809 11.9534 37.809C14.215 37.809 17.0659 36.1481 19.9482 33.3383C20.5656 33.9414 21.1856 34.4965 21.8037 34.9964C24.1153 36.8658 26.2343 37.8275 27.973 37.8274C28.6911 37.8273 29.3448 37.6632 29.9199 37.3312C31.8873 36.1952 32.6105 33.2844 31.9561 29.1349C31.8304 28.3378 31.6563 27.5105 31.4381 26.6609C32.7521 26.299 33.9607 25.8728 35.0311 25.3877C35.3523 25.2421 35.4946 24.8639 35.349 24.5428C35.2035 24.2217 34.8252 24.0793 34.5042 24.2249C33.4904 24.6844 32.3444 25.0888 31.0963 25.4328C30.5803 23.7084 29.8932 21.9083 29.0558 20.0874C29.9308 18.2047 30.646 16.3424 31.1786 14.5609C35.9161 15.8874 38.7234 17.9824 38.7234 19.9908C38.7234 21.2884 37.5918 22.3591 36.6426 23.0286C36.3545 23.2318 36.2857 23.6301 36.4888 23.9181C36.6921 24.2063 37.0903 24.275 37.3784 24.0718C39.0935 22.8621 40 21.4508 40 19.9908C40 17.7191 37.8408 15.6374 33.9199 14.1294ZM28.0465 3.44929C28.5438 3.44929 28.9864 3.55916 29.3617 3.77593C30.818 4.61678 31.3333 7.12878 30.7751 10.6678C30.6555 11.4258 30.49 12.2132 30.2824 13.0226C28.4775 12.5946 26.5123 12.2838 24.4499 12.1004C23.2928 10.4628 22.0783 8.9652 20.8435 7.65337C21.0694 7.43056 21.2956 7.21439 21.5213 7.00639C24.0108 4.71252 26.3281 3.44929 28.0465 3.44929ZM19.9532 8.56861C20.9163 9.59516 21.8681 10.7403 22.7892 11.9815C21.8727 11.9316 20.9414 11.9057 20 11.9057C19.0271 11.9057 18.0649 11.933 17.1187 11.9863C18.0386 10.7472 18.9916 9.59737 19.9532 8.56861ZM19.9487 31.5181C18.9514 30.4611 17.966 29.2764 17.0137 27.9891C17.9936 28.0465 18.9911 28.0759 20 28.0759C20.9718 28.0759 21.9346 28.0476 22.8826 27.9935C21.9311 29.2755 20.9442 30.4624 19.9487 31.5181ZM20 26.7993C18.6285 26.7993 17.3125 26.7462 16.0584 26.6475C15.354 25.6198 14.6725 24.5386 14.0237 23.4148C13.3852 22.3089 12.7978 21.1929 12.2657 20.0825C12.818 18.9198 13.4323 17.7495 14.1037 16.5866C14.7539 15.4604 15.4441 14.3684 16.1613 13.3264C17.3846 13.2329 18.6659 13.1823 20 13.1823C21.2998 13.1823 22.5494 13.2303 23.7442 13.3192C24.462 14.3632 25.1561 15.4626 25.8164 16.6063C26.4845 17.7635 27.0959 18.9279 27.6462 20.0849C27.1169 21.1863 26.5321 22.294 25.8964 23.395C25.2475 24.519 24.5586 25.609 23.8428 26.6494C22.5904 26.7479 21.3041 26.7993 20 26.7993ZM14.4157 26.4883C12.8453 26.3068 11.3875 26.0518 10.0579 25.7385C10.4616 24.3947 10.9734 23.0015 11.5837 21.5861C12.0006 22.4106 12.4457 23.2349 12.9181 24.0531C13.4005 24.8887 13.901 25.7017 14.4157 26.4883ZM14.517 13.4815C13.9969 14.2746 13.4891 15.0978 12.9981 15.9483C12.4932 16.8228 12.0195 17.7023 11.5788 18.5804C10.9369 17.1066 10.3994 15.6548 9.97983 14.2614C11.3588 13.9329 12.877 13.6671 14.517 13.4815ZM1.2766 19.9908C1.2766 17.9932 4.05396 15.9099 8.74528 14.5823C9.27592 16.3527 9.98791 18.2095 10.8563 20.0842C10.0212 21.9022 9.33591 23.6992 8.82119 25.4208C4.08392 24.0942 1.2766 21.9992 1.2766 19.9908ZM11.9535 36.5323C11.4562 36.5323 11.0136 36.4225 10.6383 36.2057C9.18196 35.3649 8.66672 32.8529 9.22494 29.3139C9.34451 28.5558 9.51004 27.7684 9.71762 26.9591C11.4638 27.3731 13.3602 27.6775 15.3494 27.8628C16.5367 29.5485 17.7849 31.0869 19.054 32.4286C18.8622 32.6159 18.6703 32.7987 18.4787 32.9752C15.9892 35.2692 13.6719 36.5323 11.9535 36.5323ZM30.6951 29.3337C31.2534 32.8727 30.7381 35.3847 29.2818 36.2255C27.8254 37.0663 25.3925 36.2565 22.6066 34.0038C22.0199 33.5294 21.4309 33.0023 20.8438 32.4294C22.1001 31.1036 23.3512 29.5695 24.5513 27.8695C26.5455 27.6864 28.4511 27.3846 30.2014 26.9751C30.4095 27.7858 30.5754 28.5745 30.6951 29.3337ZM29.8586 25.7462C28.4914 26.0639 27.0236 26.3139 25.4893 26.4905C26.0071 25.7004 26.5128 24.8804 27.0019 24.0334C27.4714 23.2201 27.9136 22.4026 28.3277 21.586C28.9401 23.0038 29.4535 24.3998 29.8586 25.7462ZM28.3336 18.5849C27.8951 17.7118 27.424 16.8375 26.922 15.968C26.4268 15.1103 25.9127 14.2763 25.3835 13.4703C27.0307 13.6529 28.5559 13.9165 29.9421 14.2432C29.5204 15.6468 28.9803 17.1047 28.3336 18.5849Z" fill="#333333"/>
<path d="M20 16.7993C18.2402 16.7993 16.8085 18.231 16.8085 19.9908C16.8085 21.7506 18.2402 23.1823 20 23.1823C21.7598 23.1823 23.1915 21.7506 23.1915 19.9908C23.1915 18.231 21.7598 16.7993 20 16.7993ZM20 21.9057C18.9442 21.9057 18.0851 21.0466 18.0851 19.9908C18.0851 18.935 18.9442 18.0759 20 18.0759C21.0558 18.0759 21.9149 18.935 21.9149 19.9908C21.9149 21.0466 21.0558 21.9057 20 21.9057Z" fill="#333333"/>
</g>
<defs>
<clipPath id="clip0_124_639">
<rect width="40" height="40" fill="white"/>
</clipPath>
</defs>
</svg>
