<svg width="40" height="40" viewBox="0 0 40 40" fill="none" xmlns="http://www.w3.org/2000/svg">
<g clip-path="url(#clip0_124_562)">
<mask id="mask0_124_562" style="mask-type:luminance" maskUnits="userSpaceOnUse" x="0" y="0" width="40" height="40">
<path d="M0 3.8147e-06H40V40H0V3.8147e-06Z" fill="white"/>
</mask>
<g mask="url(#mask0_124_562)">
<path fill-rule="evenodd" clip-rule="evenodd" d="M2.09857 22.5449C2.37471 22.5449 2.59857 22.321 2.59857 22.0449V18.7703C2.59857 17.8182 3.37041 17.0463 4.32256 17.0463H4.68748C4.96362 17.0463 5.18748 16.8225 5.18748 16.5463C5.18748 16.2702 4.96362 16.0463 4.68748 16.0463H4.32256C2.81814 16.0463 1.59857 17.2659 1.59857 18.7703V22.0449C1.59857 22.321 1.82243 22.5449 2.09857 22.5449Z" fill="#333333"/>
<path fill-rule="evenodd" clip-rule="evenodd" d="M37.9014 22.4667C38.1775 22.4667 38.4014 22.2428 38.4014 21.9667V18.7703C38.4014 17.2658 37.1818 16.0463 35.6774 16.0463H35.3906C35.1145 16.0463 34.8906 16.2701 34.8906 16.5463C34.8906 16.8224 35.1145 17.0463 35.3906 17.0463H35.6774C36.6296 17.0463 37.4014 17.8181 37.4014 18.7703V21.9667C37.4014 22.2428 37.6253 22.4667 37.9014 22.4667Z" fill="#333333"/>
<path fill-rule="evenodd" clip-rule="evenodd" d="M4.69157 20.6395C4.96772 20.6395 5.19157 20.4156 5.19157 20.1395V16.4022C5.19157 15.0052 6.08808 13.8165 7.33864 13.3822C7.5995 13.2916 7.73754 13.0067 7.64695 12.7458C7.55637 12.485 7.27146 12.3469 7.0106 12.4375C5.37023 13.0072 4.19157 14.5663 4.19157 16.4022V20.1395C4.19157 20.4156 4.41543 20.6395 4.69157 20.6395Z" fill="#333333"/>
<path fill-rule="evenodd" clip-rule="evenodd" d="M14.4165 17.762C14.6926 17.7556 14.9112 17.5267 14.9049 17.2506L14.8853 16.3962C14.8827 14.5748 13.72 13.0267 12.0981 12.4487C11.838 12.356 11.552 12.4917 11.4593 12.7518C11.3666 13.0119 11.5023 13.2979 11.7624 13.3906C13.0003 13.8318 13.8853 15.0143 13.8853 16.4022V16.4137L13.8854 16.4137L13.9052 17.2736C13.9115 17.5496 14.1405 17.7683 14.4165 17.762Z" fill="#333333"/>
<path fill-rule="evenodd" clip-rule="evenodd" d="M6.04361 10.9463C6.04361 12.8746 7.60684 14.4379 9.53517 14.4379H9.54166C11.47 14.4379 13.0332 12.8746 13.0332 10.9463V8.40216C13.0332 6.47382 11.47 4.91068 9.54166 4.91068H9.53517C7.60686 4.91068 6.04361 6.47382 6.04361 8.40216V10.9463ZM9.53517 13.4379C8.15913 13.4379 7.04361 12.3223 7.04361 10.9463V8.40216C7.04361 7.02613 8.15911 5.91068 9.53517 5.91068H9.54166C10.9177 5.91068 12.0332 7.02613 12.0332 8.40216V10.9463C12.0332 12.3223 10.9177 13.4379 9.54166 13.4379H9.53517Z" fill="#333333"/>
<path fill-rule="evenodd" clip-rule="evenodd" d="M6.22872 10.0626C6.34582 10.1576 6.4995 10.1946 6.64699 10.1634L12.6366 8.89767C12.8678 8.84881 13.0332 8.64477 13.0332 8.40847C13.0332 6.47708 11.469 4.91066 9.53838 4.91066C7.60786 4.91066 6.04361 6.47709 6.04361 8.40847V9.67425C6.04361 9.825 6.11162 9.9677 6.22872 10.0626ZM7.04361 9.05754V8.40847C7.04361 7.02844 8.16108 5.91066 9.53838 5.91066C10.7803 5.91066 11.8109 6.81942 12.0016 8.00977L7.04361 9.05754Z" fill="#333333"/>
<path fill-rule="evenodd" clip-rule="evenodd" d="M34.5663 14.784C34.7304 15.0061 35.0434 15.0532 35.2656 14.8892C35.8395 14.4652 36.2135 13.7822 36.2135 13.0119V6.41166C36.2135 5.12348 35.1692 4.07916 33.881 4.07916C32.8521 4.07916 31.9801 4.74513 31.6697 5.66799C31.5817 5.92973 31.7226 6.21326 31.9843 6.30128C32.246 6.3893 32.5296 6.24847 32.6176 5.98673C32.7952 5.4585 33.2945 5.07916 33.881 5.07916C34.6169 5.07916 35.2135 5.67577 35.2135 6.41166V13.0119C35.2135 13.4514 35.0012 13.8412 34.6714 14.0848C34.4493 14.2488 34.4023 14.5619 34.5663 14.784Z" fill="#333333"/>
<path fill-rule="evenodd" clip-rule="evenodd" d="M35.3084 20.6394C35.5845 20.6394 35.8084 20.4155 35.8084 20.1394V16.4021C35.8084 14.578 34.6447 13.027 33.0207 12.4485C32.7606 12.3558 32.4746 12.4916 32.3819 12.7517C32.2892 13.0118 32.425 13.2978 32.6851 13.3905C33.9233 13.8315 34.8084 15.0141 34.8084 16.4021V20.1394C34.8084 20.4155 35.0322 20.6394 35.3084 20.6394Z" fill="#333333"/>
<path fill-rule="evenodd" clip-rule="evenodd" d="M25.6147 17.7656C25.8909 17.7656 26.1147 17.5418 26.1147 17.2656V16.4022C26.1147 15.014 27.0001 13.8313 28.2385 13.3904C28.4986 13.2978 28.6344 13.0118 28.5418 12.7517C28.4492 12.4915 28.1632 12.3557 27.903 12.4483C26.2788 13.0266 25.1147 14.5779 25.1147 16.4022V17.2656C25.1147 17.5418 25.3386 17.7656 25.6147 17.7656Z" fill="#333333"/>
<path fill-rule="evenodd" clip-rule="evenodd" d="M26.9668 10.9463C26.9668 12.8746 28.53 14.4379 30.4583 14.4379H30.4648C32.3931 14.4379 33.9564 12.8746 33.9564 10.9463V8.40216C33.9564 6.47382 32.3931 4.91068 30.4648 4.91068H30.4583C28.53 4.91068 26.9668 6.47382 26.9668 8.40216V10.9463ZM30.4583 13.4379C29.0823 13.4379 27.9668 12.3223 27.9668 10.9463V8.40216C27.9668 7.02613 29.0823 5.91068 30.4583 5.91068H30.4648C31.8409 5.91068 32.9564 7.02613 32.9564 8.40216V10.9463C32.9564 12.3223 31.8409 13.4379 30.4648 13.4379H30.4583Z" fill="#333333"/>
<path fill-rule="evenodd" clip-rule="evenodd" d="M27.1519 10.0626C27.269 10.1576 27.4227 10.1946 27.5701 10.1634L33.5598 8.89767C33.791 8.84881 33.9564 8.64477 33.9564 8.40847C33.9564 6.47708 32.3921 4.91066 30.4615 4.91066C28.531 4.91066 26.9668 6.47709 26.9668 8.40847V9.67425C26.9668 9.825 27.0348 9.9677 27.1519 10.0626ZM27.9668 9.05754V8.40847C27.9668 7.02844 29.0842 5.91066 30.4615 5.91066C31.7035 5.91066 32.7341 6.81942 32.9248 8.00977L27.9668 9.05754Z" fill="#333333"/>
<path fill-rule="evenodd" clip-rule="evenodd" d="M14.3682 33.855C16.1537 34.0858 18.044 34.2097 20 34.2097C21.9519 34.2097 23.8385 34.0864 25.6207 33.8564C25.8945 33.8211 26.0879 33.5704 26.0526 33.2965C26.0172 33.0226 25.7665 32.8293 25.4927 32.8646C23.7539 33.089 21.9102 33.2097 20 33.2097C18.0859 33.2097 16.2384 33.0885 14.4965 32.8632C14.2226 32.8278 13.9719 33.0211 13.9365 33.295C13.9011 33.5689 14.0944 33.8196 14.3682 33.855Z" fill="#333333"/>
<path fill-rule="evenodd" clip-rule="evenodd" d="M34.4911 30.9075C34.6186 31.1525 34.9205 31.2477 35.1655 31.1202C38.0036 29.6433 39.914 27.644 39.914 25.3088C39.914 22.8941 37.8728 20.8383 34.8641 19.3443C31.8169 17.8312 27.6033 16.7979 22.8678 16.498C22.5922 16.4805 22.3547 16.6898 22.3372 16.9653C22.3198 17.2409 22.529 17.4785 22.8046 17.496C27.4467 17.79 31.5221 18.8013 34.4194 20.2399C37.3551 21.6977 38.914 23.5008 38.914 25.3088C38.914 27.0558 37.4601 28.7988 34.7038 30.2332C34.4589 30.3607 34.3636 30.6626 34.4911 30.9075Z" fill="#333333"/>
<path fill-rule="evenodd" clip-rule="evenodd" d="M5.54946 30.927C5.67628 30.6817 5.58024 30.3801 5.33495 30.2533C2.5541 28.8155 1.08594 27.0642 1.08594 25.3088C1.08594 23.4314 2.76851 21.5604 5.91242 20.0794C9.01198 18.6194 13.3542 17.6331 18.2529 17.4419C18.5288 17.4311 18.7437 17.1987 18.733 16.9227C18.7222 16.6468 18.4898 16.4319 18.2139 16.4426C13.2183 16.6376 8.73689 17.6436 5.48628 19.1748C2.28001 20.6851 0.0859375 22.8043 0.0859375 25.3088C0.0859375 27.655 2.01418 29.6621 4.87568 31.1416C5.12098 31.2684 5.42264 31.1723 5.54946 30.927Z" fill="#333333"/>
<path fill-rule="evenodd" clip-rule="evenodd" d="M4.69157 32.9832C4.96772 32.9832 5.19157 32.7594 5.19157 32.4832C5.19157 31.3554 5.77534 30.3637 6.6596 29.7941C6.89175 29.6446 6.95872 29.3351 6.80918 29.103C6.65964 28.8709 6.35023 28.8039 6.11808 28.9534C4.96015 29.6993 4.19157 31.0013 4.19157 32.4832C4.19157 32.7594 4.41543 32.9832 4.69157 32.9832Z" fill="#333333"/>
<path fill-rule="evenodd" clip-rule="evenodd" d="M14.3852 35.1846C14.6614 35.1846 14.8852 34.9608 14.8852 34.6846V32.4832C14.8852 30.985 14.0997 29.6707 12.9203 28.929C12.6866 28.7819 12.3779 28.8523 12.2309 29.086C12.0839 29.3198 12.1542 29.6285 12.3879 29.7755C13.2886 30.3419 13.8852 31.343 13.8852 32.4832V34.6846C13.8852 34.9608 14.1091 35.1846 14.3852 35.1846Z" fill="#333333"/>
<path fill-rule="evenodd" clip-rule="evenodd" d="M10.3726 33.6018C10.4912 33.8513 10.7895 33.9573 11.0389 33.8388C12.2169 33.2789 13.0332 32.0772 13.0332 30.6838V24.4833C13.0332 22.555 11.47 20.9917 9.54164 20.9917H9.53516C7.60683 20.9917 6.04359 22.555 6.04359 24.4833V30.6838C6.04359 31.5094 6.33084 32.2692 6.81027 32.867C6.98304 33.0824 7.29773 33.117 7.51315 32.9442C7.72856 32.7714 7.76313 32.4567 7.59036 32.2413C7.24806 31.8146 7.04359 31.2737 7.04359 30.6838V24.4833C7.04359 23.1073 8.15911 21.9917 9.53516 21.9917H9.54164C10.9177 21.9917 12.0332 23.1073 12.0332 24.4833V30.6838C12.0332 31.6768 11.4523 32.5351 10.6096 32.9356C10.3602 33.0542 10.2541 33.3524 10.3726 33.6018Z" fill="#333333"/>
<path fill-rule="evenodd" clip-rule="evenodd" d="M35.3084 33.1302C35.5846 33.1302 35.8084 32.9063 35.8084 32.6302V32.4832C35.8084 30.6434 34.6246 29.0814 32.9786 28.5148C32.7175 28.425 32.4329 28.5638 32.3431 28.8249C32.2532 29.086 32.392 29.3705 32.6531 29.4604C33.908 29.8923 34.8084 31.0832 34.8084 32.4832V32.6302C34.8084 32.9063 35.0323 33.1302 35.3084 33.1302Z" fill="#333333"/>
<path fill-rule="evenodd" clip-rule="evenodd" d="M25.6148 35.2135C25.8909 35.2135 26.1148 34.9896 26.1148 34.7135V32.4832C26.1148 31.0766 27.0238 29.8809 28.2879 29.4543C28.5496 29.366 28.6901 29.0823 28.6018 28.8207C28.5135 28.559 28.2298 28.4185 27.9682 28.5068C26.3098 29.0664 25.1148 30.6347 25.1148 32.4832V34.7135C25.1148 34.9896 25.3386 35.2135 25.6148 35.2135Z" fill="#333333"/>
<path fill-rule="evenodd" clip-rule="evenodd" d="M26.9668 27.0274C26.9668 28.9557 28.53 30.519 30.4583 30.519H30.4648C32.3931 30.519 33.9564 28.9557 33.9564 27.0274V24.4833C33.9564 22.5549 32.3931 20.9918 30.4648 20.9918H30.4583C28.53 20.9918 26.9668 22.5549 26.9668 24.4833V27.0274ZM30.4583 29.519C29.0823 29.519 27.9668 28.4035 27.9668 27.0274V24.4833C27.9668 23.1073 29.0823 21.9918 30.4583 21.9918H30.4648C31.8409 21.9918 32.9564 23.1073 32.9564 24.4833V27.0274C32.9564 28.4035 31.8409 29.519 30.4648 29.519H30.4583Z" fill="#333333"/>
<path fill-rule="evenodd" clip-rule="evenodd" d="M1.59856 37.9516C1.59856 39.0354 2.47718 39.9141 3.56106 39.9141H11.2721C11.5482 39.9141 11.7721 39.6902 11.7721 39.4141V34.8514C11.7721 33.347 10.5525 32.1274 9.04809 32.1274H4.32254C2.81812 32.1274 1.59856 33.347 1.59856 34.8514V37.9516ZM3.56106 38.9141C3.02946 38.9141 2.59856 38.4832 2.59856 37.9516V34.8514C2.59856 33.8993 3.3704 33.1274 4.32254 33.1274H9.04809C10.0002 33.1274 10.7721 33.8993 10.7721 34.8514V38.9141H3.56106Z" fill="#333333"/>
<path fill-rule="evenodd" clip-rule="evenodd" d="M10.8263 39.6813C10.9739 39.9147 11.2828 39.9842 11.5161 39.8365L15.914 37.054C16.379 36.7499 16.659 36.2318 16.659 35.6764C16.659 34.37 15.2106 33.585 14.1164 34.2958L10.9841 36.2505C10.7498 36.3967 10.6784 36.7052 10.8246 36.9394C10.9708 37.1737 11.2793 37.2451 11.5135 37.0989L14.659 35.1359C15.0889 34.8546 15.659 35.1629 15.659 35.6764C15.659 35.8934 15.5501 36.0958 15.3693 36.2153L10.9815 38.9915C10.7481 39.1391 10.6786 39.448 10.8263 39.6813Z" fill="#333333"/>
<path fill-rule="evenodd" clip-rule="evenodd" d="M28.9691 39.852C29.1287 39.7641 29.2279 39.5963 29.2279 39.414V36.6747C29.2279 36.5022 29.139 36.3419 28.9926 36.2505L25.8604 34.2958C24.7662 33.585 23.3178 34.37 23.3178 35.6764C23.3178 36.2318 23.5979 36.7499 24.0627 37.054L24.0691 37.0581L24.0691 37.0581L28.4606 39.8365C28.6146 39.934 28.8094 39.9399 28.9691 39.852ZM24.6074 36.2154C24.4267 36.0958 24.3178 35.8934 24.3178 35.6764C24.3178 35.1629 24.888 34.8546 25.3177 35.1358L25.3267 35.1416L25.3268 35.1415L28.2279 36.952V38.506L24.6074 36.2154Z" fill="#333333"/>
<path fill-rule="evenodd" clip-rule="evenodd" d="M28.2279 39.414C28.2279 39.6901 28.4518 39.914 28.7279 39.914H36.4389C37.4842 39.914 38.335 39.0971 38.3961 38.0688C38.4125 37.7932 38.2023 37.5564 37.9266 37.54C37.651 37.5237 37.4142 37.7339 37.3978 38.0095C37.3678 38.5146 36.9498 38.914 36.4389 38.914H29.2279V34.8513C29.2279 33.8992 29.9998 33.1274 30.9519 33.1274H35.6774C36.6296 33.1274 37.4014 33.8992 37.4014 34.8513V34.9295C37.4014 35.2057 37.6253 35.4295 37.9014 35.4295C38.1776 35.4295 38.4014 35.2057 38.4014 34.9295V34.8513C38.4014 33.3469 37.1819 32.1274 35.6774 32.1274H30.9519C29.4475 32.1274 28.2279 33.3469 28.2279 34.8513V39.414Z" fill="#333333"/>
<path fill-rule="evenodd" clip-rule="evenodd" d="M24.4692 29.5889C24.6247 29.4998 24.7206 29.3342 24.7206 29.155V27.5348C25.4919 26.7776 25.9721 25.7223 25.9721 24.5546C25.9721 22.2473 24.1018 20.377 21.7945 20.377C19.4874 20.377 17.617 22.2473 17.617 24.5546C17.617 26.8617 19.4874 28.7321 21.7945 28.7321C22.0099 28.7321 22.2215 28.7156 22.4282 28.684L23.9678 29.5864C24.1224 29.677 24.3137 29.678 24.4692 29.5889ZM23.7206 28.2824L22.7753 27.7284C22.6694 27.6663 22.5444 27.6453 22.424 27.6695C22.2206 27.7104 22.0102 27.7321 21.7945 27.7321C20.0396 27.7321 18.617 26.3094 18.617 24.5546C18.617 22.7996 20.0397 21.377 21.7945 21.377C23.5495 21.377 24.9721 22.7996 24.9721 24.5546C24.9721 25.5056 24.5542 26.3583 23.8905 26.9416C23.7825 27.0365 23.7206 27.1733 23.7206 27.3171V28.2824Z" fill="#333333"/>
<path d="M20.0469 25.1953C20.801 25.1953 20.8021 24.0234 20.0469 24.0234C19.2928 24.0234 19.2916 25.1953 20.0469 25.1953Z" fill="#333333"/>
<path d="M21.7945 25.1953C22.5486 25.1953 22.5498 24.0234 21.7945 24.0234C21.0405 24.0234 21.0393 25.1953 21.7945 25.1953Z" fill="#333333"/>
<path d="M23.5422 25.1953C24.2963 25.1953 24.2975 24.0234 23.5422 24.0234C22.7881 24.0234 22.787 25.1953 23.5422 25.1953Z" fill="#333333"/>
<path fill-rule="evenodd" clip-rule="evenodd" d="M15.4079 14.1727C15.5634 14.2618 15.7547 14.2608 15.9093 14.1702L17.4489 13.2678C17.6555 13.2994 17.8671 13.3159 18.0826 13.3159C20.3898 13.3159 22.2601 11.4455 22.2601 9.13836C22.2601 8.56331 22.1436 8.01406 21.9325 7.51419C21.8251 7.25979 21.5318 7.14064 21.2774 7.24805C21.023 7.35546 20.9039 7.64877 21.0113 7.90316C21.1713 8.2822 21.2601 8.69936 21.2601 9.13836C21.2601 10.8932 19.8375 12.3159 18.0826 12.3159C17.867 12.3159 17.6567 12.2942 17.4531 12.2533C17.3327 12.2291 17.2077 12.2501 17.1018 12.3122L16.1565 12.8662V11.9009C16.1565 11.7571 16.0946 11.6203 15.9866 11.5254C15.323 10.9421 14.905 10.0894 14.905 9.13836C14.905 7.38343 16.3276 5.96086 18.0826 5.96086C18.5223 5.96086 18.9399 6.0498 19.3192 6.21026C19.5735 6.31785 19.8669 6.19889 19.9745 5.94456C20.0821 5.69024 19.9631 5.39686 19.7088 5.28928C19.2083 5.07755 18.6584 4.96086 18.0826 4.96086C15.7754 4.96086 13.905 6.83111 13.905 9.13836C13.905 10.3061 14.3853 11.3614 15.1565 12.1186V13.7388C15.1565 13.918 15.2524 14.0836 15.4079 14.1727Z" fill="#333333"/>
<path d="M16.3349 9.77911C17.089 9.77911 17.0902 8.60724 16.3349 8.60724C15.5808 8.60724 15.5797 9.77911 16.3349 9.77911Z" fill="#333333"/>
<path d="M18.0826 9.77911C18.8366 9.77911 18.8379 8.60724 18.0826 8.60724C17.3285 8.60724 17.3273 9.77911 18.0826 9.77911Z" fill="#333333"/>
<path d="M19.8302 9.77911C20.5843 9.77911 20.5855 8.60724 19.8302 8.60724C19.0762 8.60724 19.0749 9.77911 19.8302 9.77911Z" fill="#333333"/>
<path fill-rule="evenodd" clip-rule="evenodd" d="M25.6858 9.29778C25.8413 9.20868 25.9372 9.04317 25.9372 8.86395V7.24375C26.7084 6.48655 27.1887 5.43124 27.1887 4.26348C27.1887 1.95625 25.3184 0.085907 23.0111 0.085907C20.704 0.085907 18.8336 1.95624 18.8336 4.26348C18.8336 6.57066 20.704 8.44098 23.0111 8.44098C23.2266 8.44098 23.4382 8.42448 23.6448 8.39292L25.1844 9.29532C25.339 9.38594 25.5303 9.38688 25.6858 9.29778ZM24.9372 7.99133L23.9919 7.43728C23.886 7.3752 23.761 7.35426 23.6406 7.37843C23.4372 7.4193 23.2268 7.44098 23.0111 7.44098C21.2562 7.44098 19.8336 6.01834 19.8336 4.26348C19.8336 2.50854 21.2563 1.08591 23.0111 1.08591C24.7661 1.08591 26.1887 2.50853 26.1887 4.26348C26.1887 5.21454 25.7708 6.0672 25.1071 6.65051C24.9991 6.74544 24.9372 6.88227 24.9372 7.02606V7.99133Z" fill="#333333"/>
<path fill-rule="evenodd" clip-rule="evenodd" d="M24.3225 5.59537C24.5178 5.40011 24.5178 5.08353 24.3225 4.88827L22.407 2.97272C22.2117 2.77746 21.8951 2.77746 21.6999 2.97272C21.5046 3.16798 21.5046 3.48457 21.6999 3.67983L23.6154 5.59537C23.8107 5.79064 24.1272 5.79064 24.3225 5.59537Z" fill="#333333"/>
<path fill-rule="evenodd" clip-rule="evenodd" d="M21.6998 5.59537C21.8951 5.79064 22.2117 5.79064 22.4069 5.59537L24.3225 3.67983C24.5177 3.48457 24.5177 3.16798 24.3225 2.97272C24.1272 2.77746 23.8106 2.77746 23.6154 2.97272L21.6998 4.88827C21.5045 5.08353 21.5045 5.40011 21.6998 5.59537Z" fill="#333333"/>
</g>
</g>
<defs>
<clipPath id="clip0_124_562">
<rect width="40" height="40" fill="white"/>
</clipPath>
</defs>
</svg>
