<svg width="40" height="40" viewBox="0 0 40 40" fill="none" xmlns="http://www.w3.org/2000/svg">
<mask id="mask0_145_84" style="mask-type:luminance" maskUnits="userSpaceOnUse" x="0" y="0" width="40" height="40">
<path d="M0 3.8147e-06H40V40H0V3.8147e-06Z" fill="white"/>
</mask>
<g mask="url(#mask0_145_84)">
<path d="M18.1713 35.911H35.634C36.5946 35.911 37.3734 35.1323 37.3734 34.1716V27.4287" stroke="#333333" stroke-miterlimit="10" stroke-linecap="round" stroke-linejoin="round"/>
<path d="M16.3212 0.585888H11.5798C10.6192 0.585888 9.84047 1.36464 9.84047 2.32526V13.8406" stroke="#333333" stroke-miterlimit="10" stroke-linecap="round" stroke-linejoin="round"/>
<path d="M37.3733 24.7587V2.32531C37.3733 1.36468 36.5946 0.585934 35.634 0.585934H18.9913" stroke="#333333" stroke-miterlimit="10" stroke-linecap="round" stroke-linejoin="round"/>
<path d="M34 10.5464H13.2139V4.78717H34V10.5464Z" stroke="#333333" stroke-miterlimit="10" stroke-linecap="round" stroke-linejoin="round"/>
<path d="M19.1045 14.8601C19.2984 14.5269 19.6593 14.3029 20.0726 14.3029H21.5234C22.1415 14.3029 22.6426 14.804 22.6426 15.4222C22.6426 16.0403 22.1415 16.5414 21.5234 16.5414H20.5413" stroke="#333333" stroke-miterlimit="10" stroke-linecap="round" stroke-linejoin="round"/>
<path d="M27.1413 16.5414H25.6906C25.0724 16.5414 24.5713 16.0403 24.5713 15.4222C24.5713 14.804 25.0724 14.3029 25.6906 14.3029H27.1413C27.7595 14.3029 28.2606 14.804 28.2606 15.4222C28.2606 16.0403 27.7595 16.5414 27.1413 16.5414Z" stroke="#333333" stroke-miterlimit="10" stroke-linecap="round" stroke-linejoin="round"/>
<path d="M32.7593 16.5414H31.3085C30.6904 16.5414 30.1893 16.0403 30.1893 15.4222C30.1893 14.804 30.6904 14.3029 31.3085 14.3029H32.7593C33.3774 14.3029 33.8785 14.804 33.8785 15.4222C33.8785 16.0403 33.3774 16.5414 32.7593 16.5414Z" stroke="#333333" stroke-miterlimit="10" stroke-linecap="round" stroke-linejoin="round"/>
<path d="M20.385 20.0003H21.5233C22.1414 20.0003 22.6425 20.5014 22.6425 21.1196C22.6425 21.7377 22.1414 22.2388 21.5233 22.2388H20.0725C19.4544 22.2388 18.9533 21.7377 18.9533 21.1196" stroke="#333333" stroke-miterlimit="10" stroke-linecap="round" stroke-linejoin="round"/>
<path d="M27.1413 22.2388H25.6906C25.0724 22.2388 24.5713 21.7377 24.5713 21.1196C24.5713 20.5014 25.0724 20.0003 25.6906 20.0003H27.1413C27.7595 20.0003 28.2606 20.5014 28.2606 21.1196C28.2606 21.7377 27.7595 22.2388 27.1413 22.2388Z" stroke="#333333" stroke-miterlimit="10" stroke-linecap="round" stroke-linejoin="round"/>
<path d="M32.7593 22.2388H31.3085C30.6904 22.2388 30.1893 21.7377 30.1893 21.1196C30.1893 20.5014 30.6904 20.0003 31.3085 20.0003H32.7593C33.3774 20.0003 33.8785 20.5014 33.8785 21.1196C33.8785 21.7377 33.3774 22.2388 32.7593 22.2388Z" stroke="#333333" stroke-miterlimit="10" stroke-linecap="round" stroke-linejoin="round"/>
<path d="M18.9533 25.6977C18.9533 25.0796 19.4544 24.5785 20.0725 24.5785H21.5233C22.1415 24.5785 22.6426 25.0796 22.6426 25.6977C22.6426 26.3158 22.1415 26.817 21.5233 26.817H20.2288" stroke="#333333" stroke-miterlimit="10" stroke-linecap="round" stroke-linejoin="round"/>
<path d="M27.1413 26.817H25.6906C25.0724 26.817 24.5713 26.3158 24.5713 25.6977C24.5713 25.0796 25.0724 24.5785 25.6906 24.5785H27.1413C27.7595 24.5785 28.2606 25.0796 28.2606 25.6977C28.2606 26.3158 27.7595 26.817 27.1413 26.817Z" stroke="#333333" stroke-miterlimit="10" stroke-linecap="round" stroke-linejoin="round"/>
<path d="M32.7593 26.817H31.3085C30.6904 26.817 30.1893 26.3158 30.1893 25.6977C30.1893 25.0796 30.6904 24.5785 31.3085 24.5785H32.7593C33.3774 24.5785 33.8785 25.0796 33.8785 25.6977C33.8785 26.3158 33.3774 26.817 32.7593 26.817Z" stroke="#333333" stroke-miterlimit="10" stroke-linecap="round" stroke-linejoin="round"/>
<path d="M20.5413 29.1566H21.5233C22.1414 29.1566 22.6425 29.6577 22.6425 30.2758C22.6425 30.894 22.1414 31.3951 21.5233 31.3951H20.2288" stroke="#333333" stroke-miterlimit="10" stroke-linecap="round" stroke-linejoin="round"/>
<path d="M27.1413 31.3951H25.6906C25.0724 31.3951 24.5713 30.894 24.5713 30.2758C24.5713 29.6577 25.0724 29.1566 25.6906 29.1566H27.1413C27.7595 29.1566 28.2606 29.6577 28.2606 30.2758C28.2606 30.894 27.7595 31.3951 27.1413 31.3951Z" stroke="#333333" stroke-miterlimit="10" stroke-linecap="round" stroke-linejoin="round"/>
<path d="M32.7593 31.3951H31.3085C30.6904 31.3951 30.1893 30.894 30.1893 30.2758C30.1893 29.6577 30.6904 29.1566 31.3085 29.1566H32.7593C33.3774 29.1566 33.8785 29.6577 33.8785 30.2758C33.8785 30.894 33.3774 31.3951 32.7593 31.3951Z" stroke="#333333" stroke-miterlimit="10" stroke-linecap="round" stroke-linejoin="round"/>
<path d="M2.6266 33.6026V36.8743C2.6266 38.1093 5.32449 39.1381 8.89934 39.3666" stroke="#333333" stroke-miterlimit="10" stroke-linecap="round" stroke-linejoin="round"/>
<path d="M11.5694 39.3854C15.3066 39.2009 18.1713 38.1469 18.1713 36.8744V33.6026" stroke="#333333" stroke-miterlimit="10" stroke-linecap="round" stroke-linejoin="round"/>
<path d="M17.7048 32.7341C18.0067 33.0051 18.1714 33.2976 18.1714 33.6027C18.1714 35.0053 14.6915 36.1423 10.3989 36.1423C6.10645 36.1423 2.6266 35.0053 2.6266 33.6027C2.6266 32.8464 3.63832 32.1673 5.24363 31.7021" stroke="#333333" stroke-miterlimit="10" stroke-linecap="round" stroke-linejoin="round"/>
<path d="M4.83528 27.4427V30.7144C4.83528 32.1171 8.31513 33.254 12.6076 33.254C16.9002 33.254 20.38 32.1171 20.38 30.7144V27.4427" stroke="#333333" stroke-miterlimit="10" stroke-linecap="round" stroke-linejoin="round"/>
<path d="M17.7327 25.5333C19.3555 25.9988 20.38 26.6816 20.38 27.4427C20.38 28.8453 16.9002 29.9823 12.6077 29.9823C8.31508 29.9823 4.83531 28.8453 4.83531 27.4427C4.83531 27.1332 5.00476 26.8365 5.31508 26.5622" stroke="#333333" stroke-miterlimit="10" stroke-linecap="round" stroke-linejoin="round"/>
<path d="M2.6266 21.2827V24.5544C2.6266 25.9571 6.10645 27.0941 10.3989 27.0941C14.6915 27.0941 18.1714 25.9571 18.1714 24.5544V21.5424" stroke="#333333" stroke-miterlimit="10" stroke-linecap="round" stroke-linejoin="round"/>
<path d="M18.1312 21.5424C17.7332 22.823 14.4232 23.8224 10.3989 23.8224C6.10645 23.8224 2.6266 22.6854 2.6266 21.2827C2.6266 20.6309 3.37801 20.0365 4.61324 19.5868" stroke="#333333" stroke-miterlimit="10" stroke-linecap="round" stroke-linejoin="round"/>
<path d="M4.83528 16.3802V19.652C4.83528 21.0546 8.31513 22.1917 12.6076 22.1917C16.9002 22.1917 20.38 21.0546 20.38 19.652V16.3802" stroke="#333333" stroke-miterlimit="10" stroke-linecap="round" stroke-linejoin="round"/>
<path d="M20.38 16.3803C20.38 17.7829 16.9002 18.9199 12.6077 18.9199C8.3151 18.9199 4.83525 17.7829 4.83525 16.3803C4.83525 14.9777 8.3151 13.8406 12.6077 13.8406C16.9002 13.8406 20.38 14.9777 20.38 16.3803Z" stroke="#333333" stroke-miterlimit="10" stroke-linecap="round" stroke-linejoin="round"/>
<path d="M5.37613 12.1542H7.35722" stroke="#333333" stroke-miterlimit="10" stroke-linecap="round" stroke-linejoin="round"/>
<path d="M5.37613 10.3385H7.35722" stroke="#333333" stroke-miterlimit="10" stroke-linecap="round" stroke-linejoin="round"/>
<path d="M7.3611 8.32422H7.35329" stroke="#333333" stroke-miterlimit="10" stroke-linecap="round" stroke-linejoin="round"/>
</g>
</svg>
