<svg width="40" height="40" viewBox="0 0 40 40" fill="none" xmlns="http://www.w3.org/2000/svg">
<g id="module 1">
<g id="Group">
<path id="Vector (Stroke)" fill-rule="evenodd" clip-rule="evenodd" d="M1.99539 2.46899C1.4931 2.46899 1.08594 2.87615 1.08594 3.37845V21.5874C1.08594 21.8636 0.86208 22.0874 0.585938 22.0874C0.309795 22.0874 0.0859375 21.8636 0.0859375 21.5874V3.37845C0.0859375 2.32387 0.940811 1.46899 1.99539 1.46899H38.0046C39.0592 1.46899 39.9141 2.32387 39.9141 3.37845V26.9186C39.9141 27.1947 39.6902 27.4186 39.4141 27.4186H0.585938C0.309795 27.4186 0.0859375 27.1947 0.0859375 26.9186V24.579C0.0859375 24.3029 0.309795 24.079 0.585938 24.079C0.86208 24.079 1.08594 24.3029 1.08594 24.579V26.4186H38.9141V3.37845C38.9141 2.87615 38.5069 2.46899 38.0046 2.46899H1.99539Z" fill="#333333"/>
<path id="Vector (Stroke)_2" fill-rule="evenodd" clip-rule="evenodd" d="M0.0859375 26.9186C0.0859375 26.6424 0.309795 26.4186 0.585938 26.4186H39.4141C39.6902 26.4186 39.9141 26.6424 39.9141 26.9186V29.6728C39.9141 30.7274 39.0592 31.5822 38.0046 31.5822H32.5163C32.2401 31.5822 32.0163 31.3584 32.0163 31.0822C32.0163 30.8061 32.2401 30.5822 32.5163 30.5822H38.0046C38.5069 30.5822 38.9141 30.1751 38.9141 29.6728V27.4186H1.08594V29.6728C1.08594 30.1751 1.49309 30.5822 1.99539 30.5822H29.7887C30.0648 30.5822 30.2887 30.8061 30.2887 31.0822C30.2887 31.3584 30.0648 31.5822 29.7887 31.5822H1.99539C0.940811 31.5822 0.0859375 30.7274 0.0859375 29.6728V26.9186Z" fill="#333333"/>
<path id="Vector (Stroke)_3" fill-rule="evenodd" clip-rule="evenodd" d="M14.1396 31.0822C14.1396 30.806 14.3635 30.5822 14.6396 30.5822H25.3604C25.6365 30.5822 25.8604 30.806 25.8604 31.0822V38.031C25.8604 38.3071 25.6365 38.531 25.3604 38.531H14.6396C14.3635 38.531 14.1396 38.3071 14.1396 38.031V31.0822ZM15.1396 31.5822V37.531H24.8604V31.5822H15.1396Z" fill="#333333"/>
<path id="Vector (Stroke)_4" fill-rule="evenodd" clip-rule="evenodd" d="M10.2748 38.031C10.2748 37.7549 10.4987 37.531 10.7748 37.531H29.2252C29.5013 37.531 29.7252 37.7549 29.7252 38.031C29.7252 38.3071 29.5013 38.531 29.2252 38.531H10.7748C10.4987 38.531 10.2748 38.3071 10.2748 38.031Z" fill="#333333"/>
<g id="Group_2">
<path id="Vector (Stroke)_5" fill-rule="evenodd" clip-rule="evenodd" d="M10.8061 8.94554C10.9419 8.7217 11.2274 8.64054 11.4607 8.75945L20.2273 13.2287C20.3948 13.314 20.5002 13.4861 20.5002 13.6741V24.4306C20.5002 24.7068 20.2764 24.9306 20.0002 24.9306C19.7249 24.9306 19.4502 24.8659 19.1982 24.7373C19.1982 24.7373 19.1981 24.7373 19.1981 24.7373C19.1981 24.7372 19.198 24.7372 19.198 24.7372L11.5335 20.8298C11.5335 20.8298 11.5334 20.8298 11.5334 20.8297C10.9152 20.5148 10.5338 19.8698 10.5338 19.1755V9.92233C10.5338 9.57098 10.6311 9.234 10.8061 8.94554ZM11.5338 9.91919C11.5338 9.92024 11.5338 9.92128 11.5338 9.92233V19.1755C11.5338 19.5074 11.7162 19.8006 11.9874 19.9387L11.9875 19.9388L19.5002 23.7688V13.9805L11.5338 9.91919Z" fill="#333333"/>
<path id="Vector (Stroke)_6" fill-rule="evenodd" clip-rule="evenodd" d="M28.5392 8.75946C28.7724 8.64056 29.0579 8.72167 29.1937 8.94543C29.3689 9.23395 29.4662 9.57098 29.4662 9.92233V19.1755C29.4662 19.8697 29.0852 20.5149 28.4663 20.8299L20.8024 24.7372C20.5503 24.8658 20.2756 24.9306 20.0002 24.9306C19.724 24.9306 19.5002 24.7068 19.5002 24.4306V13.6741C19.5002 13.4861 19.6056 13.3141 19.7731 13.2287L28.5392 8.75946ZM20.5002 13.9804V23.7688L28.0124 19.9388L28.0128 19.9387C28.284 19.8007 28.4662 19.5076 28.4662 19.1755V9.92233C28.4662 9.92127 28.4662 9.92022 28.4662 9.91917L20.5002 13.9804Z" fill="#333333"/>
<path id="Vector (Stroke)_7" fill-rule="evenodd" clip-rule="evenodd" d="M20.3627 5.04891C20.1361 4.92702 19.8683 4.92638 19.6409 5.04716C19.6394 5.04798 19.6378 5.0488 19.6363 5.0496L19.6353 5.05015C19.6337 5.05097 19.632 5.05185 19.6302 5.05278L17.0815 6.42161C16.8382 6.55226 16.5351 6.46097 16.4044 6.21769C16.2738 5.97441 16.3651 5.67128 16.6083 5.54062L19.1639 4.16813C19.1661 4.16693 19.1683 4.16575 19.1706 4.16459L19.1716 4.16404C19.1739 4.16282 19.1765 4.16147 19.1794 4.16001C19.6998 3.88681 20.3179 3.88922 20.8365 4.16832L28.5001 8.28536C28.5003 8.28543 28.5004 8.28551 28.5005 8.28558C28.7918 8.4417 29.0285 8.67279 29.1939 8.9455C29.2661 9.06436 29.2854 9.20787 29.2474 9.34159C29.2094 9.47531 29.1174 9.58717 28.9936 9.65032L20.2274 14.1195C20.0847 14.1923 19.9159 14.1923 19.7732 14.1195L11.0065 9.65024C10.8825 9.58704 10.7905 9.47505 10.7525 9.34118C10.7146 9.20731 10.7341 9.06367 10.8065 8.94482C10.9719 8.67301 11.2078 8.44179 11.4997 8.28542C11.4998 8.28536 11.4999 8.2853 11.5 8.28524L13.9661 6.96042C14.2094 6.82973 14.5125 6.921 14.6432 7.16426C14.7739 7.40752 14.6826 7.71066 14.4393 7.84135L12.1122 9.0915L20.0003 13.1129L27.8878 9.09159L20.363 5.04908L20.3627 5.04891ZM19.6486 5.04287C19.6496 5.04228 19.6506 5.04173 19.6511 5.04141L19.6503 5.04192" fill="#333333"/>
</g>
<path id="Vector (Stroke)_8" fill-rule="evenodd" clip-rule="evenodd" d="M26.4257 4.51624C26.5152 4.44261 26.6275 4.40234 26.7434 4.40234H31.8698C32.146 4.40234 32.3698 4.6262 32.3698 4.90234C32.3698 5.17849 32.146 5.40234 31.8698 5.40234H26.9226L23.1173 8.53344C22.9041 8.7089 22.589 8.67827 22.4135 8.46503C22.2381 8.2518 22.2687 7.9367 22.4819 7.76124L26.4257 4.51624Z" fill="#333333"/>
<path id="Vector (Stroke)_9" fill-rule="evenodd" clip-rule="evenodd" d="M23.012 19.6464C23.2072 19.4512 23.5238 19.4512 23.7191 19.6464L27.8076 23.735H32.0103C32.2864 23.735 32.5103 23.9589 32.5103 24.235C32.5103 24.5111 32.2864 24.735 32.0103 24.735H27.6005C27.4679 24.735 27.3408 24.6823 27.247 24.5886L23.012 20.3536C22.8167 20.1583 22.8167 19.8417 23.012 19.6464Z" fill="#333333"/>
<path id="Vector (Stroke)_10" fill-rule="evenodd" clip-rule="evenodd" d="M7.44266 18.3759C7.44266 18.0997 7.66652 17.8759 7.94266 17.8759H14.3248C14.601 17.8759 14.8248 18.0997 14.8248 18.3759C14.8248 18.652 14.601 18.8759 14.3248 18.8759H7.94266C7.66652 18.8759 7.44266 18.652 7.44266 18.3759Z" fill="#333333"/>
<path id="Vector (Stroke)_11" fill-rule="evenodd" clip-rule="evenodd" d="M32.0459 5.40234C31.8548 5.40234 31.6999 5.55728 31.6999 5.74836V10.5316C31.6999 10.7227 31.8549 10.8776 32.0459 10.8776H36.3382C36.5293 10.8776 36.6842 10.7227 36.6842 10.5316V5.74836C36.6842 5.55727 36.5293 5.40234 36.3382 5.40234H32.0459ZM30.6999 5.74836C30.6999 5.00506 31.3025 4.40234 32.0459 4.40234H36.3382C37.0815 4.40234 37.6842 5.00492 37.6842 5.74836V10.5316C37.6842 11.275 37.0816 11.8776 36.3382 11.8776H32.0459C31.3026 11.8776 30.6999 11.275 30.6999 10.5316V5.74836Z" fill="#333333"/>
<g id="Group_3">
<path id="Vector (Stroke)_12" fill-rule="evenodd" clip-rule="evenodd" d="M32.6175 7.06946C32.6175 6.79332 32.8414 6.56946 33.1175 6.56946H35.3172C35.5933 6.56946 35.8172 6.79332 35.8172 7.06946C35.8172 7.3456 35.5933 7.56946 35.3172 7.56946H33.1175C32.8414 7.56946 32.6175 7.3456 32.6175 7.06946Z" fill="#333333"/>
<path id="Vector (Stroke)_13" fill-rule="evenodd" clip-rule="evenodd" d="M32.6175 9.21045C32.6175 8.93431 32.8414 8.71045 33.1175 8.71045H35.3172C35.5933 8.71045 35.8172 8.93431 35.8172 9.21045C35.8172 9.48659 35.5933 9.71045 35.3172 9.71045H33.1175C32.8414 9.71045 32.6175 9.48659 32.6175 9.21045Z" fill="#333333"/>
</g>
<path id="Vector (Stroke)_14" fill-rule="evenodd" clip-rule="evenodd" d="M32.0459 18.2598C31.8548 18.2598 31.6999 18.4147 31.6999 18.6058V23.389C31.6999 23.5801 31.8549 23.735 32.0459 23.735H36.3382C36.5293 23.735 36.6842 23.5801 36.6842 23.389V18.6058C36.6842 18.4147 36.5293 18.2598 36.3382 18.2598H32.0459ZM30.6999 18.6058C30.6999 17.8625 31.3025 17.2598 32.0459 17.2598H36.3382C37.0815 17.2598 37.6842 17.8623 37.6842 18.6058V23.389C37.6842 24.1324 37.0816 24.735 36.3382 24.735H32.0459C31.3026 24.735 30.6999 24.1324 30.6999 23.389V18.6058Z" fill="#333333"/>
<g id="Group_4">
<path id="Vector (Stroke)_15" fill-rule="evenodd" clip-rule="evenodd" d="M32.6175 19.9269C32.6175 19.6507 32.8414 19.4269 33.1175 19.4269H35.3172C35.5933 19.4269 35.8172 19.6507 35.8172 19.9269C35.8172 20.203 35.5933 20.4269 35.3172 20.4269H33.1175C32.8414 20.4269 32.6175 20.203 32.6175 19.9269Z" fill="#333333"/>
<path id="Vector (Stroke)_16" fill-rule="evenodd" clip-rule="evenodd" d="M32.6175 22.0679C32.6175 21.7917 32.8414 21.5679 33.1175 21.5679H35.3172C35.5933 21.5679 35.8172 21.7917 35.8172 22.0679C35.8172 22.344 35.5933 22.5679 35.3172 22.5679H33.1175C32.8414 22.5679 32.6175 22.344 32.6175 22.0679Z" fill="#333333"/>
</g>
<path id="Vector (Stroke)_17" fill-rule="evenodd" clip-rule="evenodd" d="M3.6504 12.4006C3.4593 12.4006 3.30438 12.5556 3.30438 12.7466V17.5299C3.30438 17.7209 3.45932 17.8759 3.6504 17.8759H7.94266C8.13363 17.8759 8.2886 17.721 8.28868 17.5299C8.28868 17.5298 8.28868 17.5299 8.28868 17.5299V12.7466C8.28868 12.5556 8.13374 12.4006 7.94266 12.4006H3.6504ZM2.30438 12.7466C2.30438 12.0033 2.90696 11.4006 3.6504 11.4006H7.94266C8.68596 11.4006 9.28868 12.0032 9.28868 12.7466V17.5299C9.28855 18.2732 8.68604 18.8759 7.94266 18.8759H3.6504C2.9071 18.8759 2.30438 18.2733 2.30438 17.5299V12.7466Z" fill="#333333"/>
<g id="Group_5">
<path id="Vector (Stroke)_18" fill-rule="evenodd" clip-rule="evenodd" d="M4.22195 14.0679C4.22195 13.7917 4.44581 13.5679 4.72195 13.5679H6.92164C7.19778 13.5679 7.42164 13.7917 7.42164 14.0679C7.42164 14.344 7.19778 14.5679 6.92164 14.5679H4.72195C4.44581 14.5679 4.22195 14.344 4.22195 14.0679Z" fill="#333333"/>
<path id="Vector (Stroke)_19" fill-rule="evenodd" clip-rule="evenodd" d="M4.22195 16.2089C4.22195 15.9327 4.44581 15.7089 4.72195 15.7089H6.92164C7.19778 15.7089 7.42164 15.9327 7.42164 16.2089C7.42164 16.485 7.19778 16.7089 6.92164 16.7089H4.72195C4.44581 16.7089 4.22195 16.485 4.22195 16.2089Z" fill="#333333"/>
</g>
<path id="Vector (Stroke)_20" fill-rule="evenodd" clip-rule="evenodd" d="M2.30438 4.8761C2.30438 4.59996 2.52824 4.3761 2.80438 4.3761H6.92165C7.19779 4.3761 7.42165 4.59996 7.42165 4.8761C7.42165 5.15224 7.19779 5.3761 6.92165 5.3761H2.80438C2.52824 5.3761 2.30438 5.15224 2.30438 4.8761Z" fill="#333333"/>
<path id="Vector (Stroke)_21" fill-rule="evenodd" clip-rule="evenodd" d="M2.30438 7.04053C2.30438 6.76438 2.52824 6.54053 2.80438 6.54053H5.79649C6.07263 6.54053 6.29649 6.76438 6.29649 7.04053C6.29649 7.31667 6.07263 7.54053 5.79649 7.54053H2.80438C2.52824 7.54053 2.30438 7.31667 2.30438 7.04053Z" fill="#333333"/>
<path id="Vector (Stroke)_22" fill-rule="evenodd" clip-rule="evenodd" d="M2.30438 9.20483C2.30438 8.92869 2.52824 8.70483 2.80438 8.70483H8.27571C8.55185 8.70483 8.77571 8.92869 8.77571 9.20483C8.77571 9.48098 8.55185 9.70483 8.27571 9.70483H2.80438C2.52824 9.70483 2.30438 9.48098 2.30438 9.20483Z" fill="#333333"/>
<path id="Vector (Stroke)_23" fill-rule="evenodd" clip-rule="evenodd" d="M35.9698 26.4186C36.2459 26.4186 36.4698 26.6424 36.4698 26.9186V28.6704C36.4698 28.9465 36.2459 29.1704 35.9698 29.1704C35.6936 29.1704 35.4698 28.9465 35.4698 28.6704V26.9186C35.4698 26.6424 35.6936 26.4186 35.9698 26.4186Z" fill="#333333"/>
</g>
</g>
</svg>
