<svg width="40" height="40" viewBox="0 0 40 40" fill="none" xmlns="http://www.w3.org/2000/svg">
<g id="workspace" clip-path="url(#clip0_124_243)">
<g id="Group">
<path id="Vector" d="M39.3951 32.6635C39.0718 32.6635 38.8098 32.9255 38.8098 33.2488V39.3756C38.8098 40.1306 39.9805 40.1306 39.9805 39.3756V33.2488C39.9805 32.9255 39.7185 32.6635 39.3951 32.6635Z" fill="#333333"/>
<path id="Vector_2" d="M39.3951 19.4619H34.7985V17.3512H36.2042C37.06 17.3512 37.7561 16.6551 37.7561 15.7993V1.55192C37.7561 0.696195 37.06 0 36.2042 0H14.3656C13.5098 0 12.8137 0.696195 12.8137 1.55192V3.6537C12.8137 4.40866 13.9845 4.40866 13.9845 3.6537V1.55192C13.9845 1.34174 14.1554 1.17073 14.3656 1.17073H36.2043C36.4144 1.17073 36.5854 1.34174 36.5854 1.55192V12.9025H34.7986V6.66583C34.7986 6.47266 34.7033 6.29198 34.5439 6.18287C34.3846 6.07376 34.1817 6.05026 34.0015 6.12004C33.8484 6.17943 30.6189 7.4983 29.9316 12.9024H13.9845V6.69752C13.9845 5.94256 12.8137 5.94256 12.8137 6.69752V15.7993C12.8137 16.6551 13.5098 17.3512 14.3656 17.3512H22.2287V19.4619H8.93782C10.2344 18.1667 10.361 16.1158 10.361 14.3927C10.361 14.0694 10.099 13.8073 9.7756 13.8073H6.61462V12.7022C8.49248 13.1013 10.5395 11.5614 10.5145 9.60796C10.5111 9.34634 10.4787 9.08051 10.2369 8.9209C9.12506 8.18701 7.59374 8.4928 6.61462 9.2942V8.23828C8.28744 7.08371 8.4117 4.3648 6.8042 3.09573C6.64225 2.96788 6.46305 2.8462 6.27082 2.76784C5.44576 2.43099 4.53884 3.90057 4.34223 4.46782C3.87776 5.80823 4.2979 7.34985 5.44381 8.20043V9.28773C4.69244 8.67637 3.71113 8.37487 2.75246 8.56687C2.35628 8.64624 1.66204 8.82552 1.57564 9.30576C1.20428 11.3722 3.5452 13.1023 5.44389 12.7039V13.8073H2.04877C1.72541 13.8073 1.4634 14.0694 1.4634 14.3927C1.4634 16.1134 1.55675 18.1669 2.85314 19.4619H0.604867C0.28151 19.4619 0.0195007 19.7239 0.0195007 20.0472V39.3756C0.0195007 40.1306 1.19023 40.1306 1.19023 39.3756V36.6439H11.7658V39.3756C11.7658 40.1306 12.9366 40.1306 12.9366 39.3756V24.4683H33.6363C33.6393 24.6722 33.6588 25.7708 33.6613 26.1H23.7546C21.4404 26.1 19.7257 26.7024 18.6582 27.8903C17.3765 29.3166 17.5452 31.0455 17.5531 31.1184C17.5849 31.4158 17.8359 31.6414 18.1351 31.6414H25.6975V32.695H23.3951C22.6401 32.695 22.6401 33.8658 23.3951 33.8658H25.6975V38.7902H18.2049C17.4499 38.7902 17.4499 39.961 18.2049 39.961H26.0741C26.1391 39.9858 26.2092 40 26.2829 40C26.3566 40 26.4268 39.9858 26.4917 39.961H34.361C35.1159 39.961 35.1159 38.7902 34.361 38.7902H26.8683V31.6414H30.779C32.1228 31.6414 33.0942 31.3175 33.7489 30.651C34.8961 29.483 34.8612 27.5273 34.8169 25.0512C34.8135 24.8597 34.8101 24.6649 34.8072 24.4682H38.8097V29.9707C38.8097 30.7257 39.9805 30.7257 39.9805 29.9707V20.0472C39.9805 19.7239 39.7185 19.4619 39.3951 19.4619ZM7.59226 10.029C8.34559 9.55099 9.00096 9.66361 9.34219 9.78412C9.23917 10.9975 7.76397 11.8805 6.6364 11.4983C6.6837 11.1228 6.87429 10.4844 7.59226 10.029ZM3.70137 11.2466C3.20405 10.931 2.78102 10.3877 2.72631 9.7838C3.8986 9.37171 5.27718 10.2847 5.42992 11.4983C4.86133 11.6911 4.19979 11.5628 3.70137 11.2466ZM6.05946 3.99368C7.03975 4.73936 6.99581 6.44121 6.05603 7.19789C5.76608 6.95945 5.32869 6.45791 5.32869 5.6025C5.32861 4.7104 5.7749 4.21737 6.05946 3.99368ZM2.64241 14.978H9.18141C9.08229 18.1402 8.13853 19.3878 5.91211 19.3878C3.65517 19.3879 2.73732 18.1804 2.64241 14.978ZM32.9137 29.8306C32.4906 30.2614 31.7924 30.4707 30.779 30.4707H18.7327C18.7869 30.0034 18.9673 29.298 19.529 28.6729C20.3651 27.7424 21.7868 27.2707 23.7547 27.2707H33.6463C33.5979 28.418 33.4245 29.3107 32.9137 29.8306ZM36.5854 14.0732V15.7994C36.5854 16.0096 36.4144 16.1805 36.2042 16.1805H34.7985V14.0732H36.5854ZM32.7123 8.69136C33.031 8.27028 33.3515 7.95692 33.6278 7.72964V22.3921C33.3524 22.1562 33.0343 21.8344 32.7178 21.407C31.5771 19.8664 30.9741 17.6568 30.9741 15.017C30.9741 12.381 31.5752 10.1936 32.7123 8.69136ZM29.9608 17.3513C30.0726 18.1392 30.2381 18.8402 30.4399 19.4619H28.3411V17.3513H29.9608ZM13.9845 15.7993V14.0731H29.8278C29.7912 14.7749 29.7954 15.4792 29.841 16.1804H14.3656C14.1554 16.1805 13.9845 16.0095 13.9845 15.7993ZM23.3994 17.3513H27.1704V19.4619H23.3994V17.3513ZM30.8996 20.6326C31.5095 21.936 32.2667 22.778 32.8793 23.2976H1.19023V20.6326H30.8996ZM1.19023 35.4732V30.5561H11.7658V35.4732H1.19023ZM11.7658 29.3854H1.19023V24.4683H11.7658V29.3854ZM34.7985 23.2976V20.6326H38.8097V23.2976H34.7985Z" fill="#333333"/>
<path id="Vector_3" d="M4.27316 27.5122H8.72194C9.47691 27.5122 9.47691 26.3414 8.72194 26.3414H4.27316C3.5182 26.3414 3.5182 27.5122 4.27316 27.5122Z" fill="#333333"/>
<path id="Vector_4" d="M8.72194 32.4293H4.27316C3.5182 32.4293 3.5182 33.6001 4.27316 33.6001H8.72194C9.47691 33.6001 9.47691 32.4293 8.72194 32.4293Z" fill="#333333"/>
</g>
</g>
<defs>
<clipPath id="clip0_124_243">
<rect width="40" height="40" fill="white"/>
</clipPath>
</defs>
</svg>
