<svg width="40" height="41" viewBox="0 0 40 41" fill="none" xmlns="http://www.w3.org/2000/svg">
<g id="xbox 1">
<g id="Group">
<g id="Group_2">
<path id="Vector" d="M23.8938 28.8096C24.2277 28.8096 24.4984 28.5389 24.4984 28.205C24.4984 27.8711 24.2277 27.6004 23.8938 27.6004C23.5599 27.6004 23.2892 27.8711 23.2892 28.205C23.2892 28.5389 23.5599 28.8096 23.8938 28.8096Z" fill="#333333"/>
</g>
</g>
<g id="Group_3">
<g id="Group_4">
<path id="Vector_2" d="M34.236 26.3104C33.1913 26.3104 32.3415 27.1603 32.3415 28.205C32.3415 29.2496 33.1913 30.0995 34.236 30.0995C35.2807 30.0995 36.1305 29.2496 36.1305 28.205C36.1305 27.1603 35.2807 26.3104 34.236 26.3104ZM34.236 28.8902C33.8581 28.8902 33.5508 28.5828 33.5508 28.205C33.5508 27.8271 33.8582 27.5197 34.236 27.5197C34.6139 27.5197 34.9212 27.8271 34.9212 28.205C34.9212 28.5828 34.6139 28.8902 34.236 28.8902Z" fill="#333333"/>
</g>
</g>
<g id="Group_5">
<g id="Group_6">
<path id="Vector_3" d="M38.5992 21.8735H31.7986C32.9813 20.5541 33.4745 18.6978 33.0176 16.9144L31.4615 10.8423C31.3787 10.5189 31.0494 10.324 30.7258 10.4067C30.4023 10.4896 30.2072 10.819 30.2901 11.1425L31.8462 17.2146C32.2953 18.9673 31.5631 20.8113 30.0583 21.7849L26.8357 17.7488C26.2031 16.9565 25.2587 16.5021 24.2448 16.5021H20H15.7553C14.7414 16.5021 13.7971 16.9566 13.1644 17.7488L9.94182 21.7849C8.43705 20.8113 7.70494 18.9673 8.154 17.2146L10.1292 9.50631C10.4474 8.26443 11.3543 7.25497 12.5551 6.80599L14.2157 6.18513C14.6003 6.04114 15.0367 6.13599 15.3271 6.42638L15.3273 6.42654L16.9828 8.08201C17.4012 8.50045 17.9575 8.73084 18.5492 8.73084H20H21.4509C22.0426 8.73084 22.5989 8.50037 23.0174 8.08201L24.6729 6.42646C24.9634 6.13599 25.3995 6.0413 25.7846 6.18513L27.4451 6.80599C28.4214 7.17107 29.199 7.89357 29.6347 8.84037C29.7366 9.06185 29.9555 9.19248 30.1844 9.19248C30.2689 9.19248 30.3548 9.17467 30.4367 9.13701C30.7401 8.9974 30.8729 8.63834 30.7333 8.33498C30.1633 7.0963 29.146 6.15107 27.8686 5.67341L26.2082 5.05255C25.4655 4.77481 24.6341 4.91177 24.0197 5.39435H15.9806C15.3662 4.91169 14.5348 4.77474 13.7921 5.05255L12.1316 5.67341C10.5606 6.26083 9.37416 7.58146 8.95783 9.20615L6.98259 16.9144C6.52564 18.6978 7.01876 20.5542 8.2015 21.8735H1.40094C0.628439 21.8735 0 22.502 0 23.2744V27.1167V29.2934V33.1356C0 33.908 0.628439 34.5364 1.40094 34.5364H3.85618V34.9389C3.85618 35.2728 4.12688 35.5435 4.46079 35.5435C4.7947 35.5435 5.0654 35.2728 5.0654 34.9389V34.5364H34.9346V34.9389C34.9346 35.2728 35.2053 35.5435 35.5392 35.5435C35.8731 35.5435 36.1438 35.2728 36.1438 34.9389V34.5364H38.5991C39.3716 34.5364 40 33.908 40 33.1356V23.2744C40.0001 22.502 39.3716 21.8735 38.5992 21.8735ZM22.7857 6.60357L22.1623 7.22693C21.9723 7.41701 21.7196 7.52162 21.4509 7.52162H20H18.5492C18.2805 7.52162 18.0278 7.41701 17.8378 7.22701L17.2144 6.60357H22.7857ZM38.5992 33.3271H1.40094C1.29532 33.3271 1.2093 33.2412 1.2093 33.1356V29.2934V27.7213H20.4368V28.6888H3.1979C2.86399 28.6888 2.59329 28.9595 2.59329 29.2934C2.59329 29.6273 2.86399 29.898 3.1979 29.898H20.5254C21.1434 29.898 21.6461 29.3953 21.6461 28.7772V27.6328C21.6461 27.0148 21.1434 26.512 20.5254 26.512H1.2093V23.2745C1.2093 23.1688 1.29524 23.0829 1.40094 23.0829H9.99127C9.99744 23.0831 10.0036 23.0841 10.0097 23.0841C10.0168 23.0841 10.0238 23.0831 10.031 23.0829H12.8184C13.1523 23.0829 13.423 22.8122 13.423 22.4783C13.423 22.1444 13.1523 21.8737 12.8184 21.8737H11.4185L14.1093 18.5035C14.5112 18.0002 15.1111 17.7115 15.7553 17.7115H20H24.2448C24.889 17.7115 25.4889 18.0002 25.8908 18.5035L28.5817 21.8737H15.4577C15.1238 21.8737 14.8531 22.1444 14.8531 22.4783C14.8531 22.8122 15.1238 23.0829 15.4577 23.0829H29.969C29.9762 23.0831 29.9832 23.0841 29.9903 23.0841C29.9965 23.0841 30.0026 23.083 30.0087 23.0829H38.5991C38.7048 23.0829 38.7907 23.1688 38.7907 23.2745V33.1356H38.7908C38.7908 33.2412 38.7048 33.3271 38.5992 33.3271Z" fill="#333333"/>
</g>
</g>
<g id="Group_7">
<g id="Group_8">
<path id="Vector_4" d="M13.7088 7.21362C12.5813 7.21362 11.6638 8.13097 11.6638 9.25855C11.6638 10.3861 12.5812 11.3034 13.7088 11.3034C14.8364 11.3034 15.7536 10.3861 15.7536 9.25855C15.7536 8.13097 14.8363 7.21362 13.7088 7.21362ZM13.7088 10.0941C13.248 10.0941 12.8731 9.71925 12.8731 9.25847C12.8731 8.79769 13.248 8.42284 13.7088 8.42284C14.1696 8.42284 14.5444 8.79769 14.5444 9.25847C14.5443 9.71925 14.1695 10.0941 13.7088 10.0941Z" fill="#333333"/>
</g>
</g>
<g id="Group_9">
<g id="Group_10">
<path id="Vector_5" d="M23.6537 11.1939C22.5262 11.1939 21.6088 12.1113 21.6088 13.2388C21.6088 14.3664 22.5261 15.2837 23.6537 15.2837C24.7813 15.2837 25.6986 14.3663 25.6986 13.2388C25.6986 12.1113 24.7812 11.1939 23.6537 11.1939ZM23.6537 14.0745C23.1929 14.0745 22.8181 13.6996 22.8181 13.2388C22.8181 12.7781 23.1929 12.4032 23.6537 12.4032C24.1145 12.4032 24.4893 12.7781 24.4893 13.2388C24.4893 13.6996 24.1145 14.0745 23.6537 14.0745Z" fill="#333333"/>
</g>
</g>
<g id="Group_11">
<g id="Group_12">
<path id="Vector_6" d="M26.5649 8.5877C26.8988 8.5877 27.1695 8.31701 27.1695 7.98309C27.1695 7.64917 26.8988 7.37848 26.5649 7.37848C26.231 7.37848 25.9603 7.64917 25.9603 7.98309C25.9603 8.31701 26.231 8.5877 26.5649 8.5877Z" fill="#333333"/>
</g>
</g>
<g id="Group_13">
<g id="Group_14">
<path id="Vector_7" d="M26.5649 11.7986C26.8988 11.7986 27.1695 11.5279 27.1695 11.194C27.1695 10.8601 26.8988 10.5894 26.5649 10.5894C26.231 10.5894 25.9603 10.8601 25.9603 11.194C25.9603 11.5279 26.231 11.7986 26.5649 11.7986Z" fill="#333333"/>
</g>
</g>
<g id="Group_15">
<g id="Group_16">
<path id="Vector_8" d="M24.8383 10.2181C25.1722 10.2181 25.4429 9.94744 25.4429 9.61352C25.4429 9.2796 25.1722 9.00891 24.8383 9.00891C24.5044 9.00891 24.2337 9.2796 24.2337 9.61352C24.2337 9.94744 24.5044 10.2181 24.8383 10.2181Z" fill="#333333"/>
</g>
</g>
<g id="Group_17">
<g id="Group_18">
<path id="Vector_9" d="M28.2915 10.2181C28.6254 10.2181 28.8961 9.94744 28.8961 9.61352C28.8961 9.2796 28.6254 9.00891 28.2915 9.00891C27.9576 9.00891 27.6869 9.2796 27.6869 9.61352C27.6869 9.94744 27.9576 10.2181 28.2915 10.2181Z" fill="#333333"/>
</g>
</g>
<g id="Group_19">
<g id="Group_20">
<path id="Vector_10" d="M18.3382 12.6343H17.5026V11.7986C17.5026 11.4647 17.2319 11.194 16.898 11.194C16.5641 11.194 16.2934 11.4647 16.2934 11.7986V12.6343H15.4578C15.1239 12.6343 14.8531 12.905 14.8531 13.2389C14.8531 13.5728 15.1239 13.8435 15.4578 13.8435H16.2934V14.6791C16.2934 15.013 16.5641 15.2837 16.898 15.2837C17.2319 15.2837 17.5026 15.013 17.5026 14.6791V13.8435H18.3382C18.6721 13.8435 18.9428 13.5728 18.9428 13.2389C18.9428 12.905 18.6721 12.6343 18.3382 12.6343Z" fill="#333333"/>
</g>
</g>
</g>
</svg>
