<svg width="455" height="437" viewBox="0 0 455 437" fill="none" xmlns="http://www.w3.org/2000/svg">
<path d="M229 2.63452C348.19 2.63452 445 99.6107 445 218.635C445 337.658 348.024 434.635 229 434.635" stroke="url(#paint0_linear_46_54)" stroke-width="3.31634" stroke-miterlimit="10"/>
<path d="M229 2.63452C109.81 2.63452 13 99.6107 13 218.635C13 337.658 109.976 434.635 229 434.635" stroke="url(#paint1_linear_46_54)" stroke-width="3.31634" stroke-miterlimit="10"/>
<g opacity="0.3">
<path d="M352.054 395.778C348.67 391.459 349.593 385.134 353.9 381.741C358.208 378.347 364.515 379.118 367.899 383.592C371.284 387.911 370.515 394.236 366.053 397.629C364.207 399.018 362.054 399.635 359.9 399.635C356.977 399.635 353.9 398.246 352.054 395.778Z" fill="url(#paint2_linear_46_54)"/>
<path d="M352.054 395.778C348.67 391.459 349.593 385.134 353.9 381.741C358.208 378.347 364.515 379.118 367.899 383.592C371.284 387.911 370.515 394.236 366.053 397.629C364.207 399.018 362.054 399.635 359.9 399.635C356.977 399.635 353.9 398.246 352.054 395.778Z" fill="url(#paint3_linear_46_54)"/>
</g>
<g opacity="0.3">
<path d="M418.512 322.556C413.592 320.092 411.593 314.085 414.053 309.156C416.513 304.227 422.511 302.225 427.431 304.689C432.352 307.154 434.351 313.161 432.045 318.09C430.353 321.632 426.816 323.635 423.126 323.635C421.434 323.635 419.896 323.172 418.512 322.556Z" fill="url(#paint4_linear_46_54)"/>
<path d="M418.512 322.556C413.592 320.092 411.593 314.085 414.053 309.156C416.513 304.227 422.511 302.225 427.431 304.689C432.352 307.154 434.351 313.161 432.045 318.09C430.353 321.632 426.816 323.635 423.126 323.635C421.434 323.635 419.896 323.172 418.512 322.556Z" fill="url(#paint5_linear_46_54)"/>
</g>
<g opacity="0.3">
<path d="M435 217.635C435 212.096 439.462 207.635 445 207.635C450.538 207.635 455 212.096 455 217.635C455 223.173 450.538 227.635 445 227.635C439.462 227.635 435 223.173 435 217.635Z" fill="url(#paint6_linear_46_54)"/>
<path d="M435 217.635C435 212.096 439.462 207.635 445 207.635C450.538 207.635 455 212.096 455 217.635C455 223.173 450.538 227.635 445 227.635C439.462 227.635 435 223.173 435 217.635Z" fill="url(#paint7_linear_46_54)"/>
</g>
<g opacity="0.3">
<path d="M413.056 127.09C410.589 122.161 412.593 116.154 417.528 113.689C422.463 111.225 428.477 113.227 430.944 118.156C433.411 123.085 431.407 129.092 426.472 131.556C425.084 132.326 423.542 132.635 422 132.635C418.299 132.635 414.752 130.632 413.056 127.09Z" fill="url(#paint8_linear_46_54)"/>
<path d="M413.056 127.09C410.589 122.161 412.593 116.154 417.528 113.689C422.463 111.225 428.477 113.227 430.944 118.156C433.411 123.085 431.407 129.092 426.472 131.556C425.084 132.326 423.542 132.635 422 132.635C418.299 132.635 414.752 130.632 413.056 127.09Z" fill="url(#paint9_linear_46_54)"/>
</g>
<g opacity="0.3">
<path d="M353.909 54.6245C349.592 51.223 348.667 44.8838 352.059 40.5545C355.451 36.2253 361.773 35.2976 366.091 38.6991C370.408 42.1007 371.333 48.4399 367.941 52.7691C365.936 55.3976 363.007 56.6345 359.923 56.6345C357.764 56.6345 355.605 56.016 353.909 54.6245Z" fill="url(#paint10_linear_46_54)"/>
<path d="M353.909 54.6245C349.592 51.223 348.667 44.8838 352.059 40.5545C355.451 36.2253 361.773 35.2976 366.091 38.6991C370.408 42.1007 371.333 48.4399 367.941 52.7691C365.936 55.3976 363.007 56.6345 359.923 56.6345C357.764 56.6345 355.605 56.016 353.909 54.6245Z" fill="url(#paint11_linear_46_54)"/>
</g>
<g opacity="0.3">
<path d="M104.946 395.778C108.33 391.459 107.407 385.134 103.1 381.741C98.7923 378.347 92.485 379.118 89.1006 383.592C85.7162 387.911 86.4854 394.236 90.9466 397.629C92.7927 399.018 94.9464 399.635 97.1001 399.635C100.023 399.635 102.946 398.246 104.946 395.778Z" fill="url(#paint12_linear_46_54)"/>
<path d="M104.946 395.778C108.33 391.459 107.407 385.134 103.1 381.741C98.7923 378.347 92.485 379.118 89.1006 383.592C85.7162 387.911 86.4854 394.236 90.9466 397.629C92.7927 399.018 94.9464 399.635 97.1001 399.635C100.023 399.635 102.946 398.246 104.946 395.778Z" fill="url(#paint13_linear_46_54)"/>
</g>
<g opacity="0.3">
<path d="M38.4876 322.556C43.4084 320.092 45.4075 314.085 42.9471 309.156C40.4866 304.227 34.4894 302.225 29.5685 304.689C24.6477 307.154 22.6486 313.161 24.9553 318.09C26.6468 321.632 30.1836 323.635 33.8743 323.635C35.5658 323.635 37.1036 323.172 38.4876 322.556Z" fill="url(#paint14_linear_46_54)"/>
<path d="M38.4876 322.556C43.4084 320.092 45.4075 314.085 42.9471 309.156C40.4866 304.227 34.4894 302.225 29.5685 304.689C24.6477 307.154 22.6486 313.161 24.9553 318.09C26.6468 321.632 30.1836 323.635 33.8743 323.635C35.5658 323.635 37.1036 323.172 38.4876 322.556Z" fill="url(#paint15_linear_46_54)"/>
</g>
<g opacity="0.3">
<path d="M20 217.635C20 212.096 15.5385 207.635 10 207.635C4.46154 207.635 0 212.096 0 217.635C0 223.173 4.46154 227.635 10 227.635C15.5385 227.635 20 223.173 20 217.635Z" fill="url(#paint16_linear_46_54)"/>
<path d="M20 217.635C20 212.096 15.5385 207.635 10 207.635C4.46154 207.635 0 212.096 0 217.635C0 223.173 4.46154 227.635 10 227.635C15.5385 227.635 20 223.173 20 217.635Z" fill="url(#paint17_linear_46_54)"/>
</g>
<g opacity="0.3">
<path d="M42.9441 127.09C45.4114 122.161 43.4067 116.154 38.4721 113.689C33.5374 111.225 27.5232 113.227 25.0559 118.156C22.5886 123.085 24.5933 129.092 29.528 131.556C30.9159 132.326 32.4579 132.635 34 132.635C37.701 132.635 41.2478 130.632 42.9441 127.09Z" fill="url(#paint18_linear_46_54)"/>
<path d="M42.9441 127.09C45.4114 122.161 43.4067 116.154 38.4721 113.689C33.5374 111.225 27.5232 113.227 25.0559 118.156C22.5886 123.085 24.5933 129.092 29.528 131.556C30.9159 132.326 32.4579 132.635 34 132.635C37.701 132.635 41.2478 130.632 42.9441 127.09Z" fill="url(#paint19_linear_46_54)"/>
</g>
<g opacity="0.3">
<path d="M103.091 54.6245C107.408 51.223 108.333 44.8838 104.941 40.5545C101.549 36.2253 95.2268 35.2976 90.9093 38.6991C86.5919 42.1007 85.6667 48.4399 89.059 52.7691C91.0635 55.3976 93.9932 56.6345 97.0771 56.6345C99.2358 56.6345 101.395 56.016 103.091 54.6245Z" fill="url(#paint20_linear_46_54)"/>
<path d="M103.091 54.6245C107.408 51.223 108.333 44.8838 104.941 40.5545C101.549 36.2253 95.2268 35.2976 90.9093 38.6991C86.5919 42.1007 85.6667 48.4399 89.059 52.7691C91.0635 55.3976 93.9932 56.6345 97.0771 56.6345C99.2358 56.6345 101.395 56.016 103.091 54.6245Z" fill="url(#paint21_linear_46_54)"/>
</g>
<path d="M414 218.469C414 320.492 331.098 403.635 229 403.635V336.889C294.197 336.889 347.149 283.89 347.149 218.635C347.149 153.38 294.197 100.381 229 100.381V33.6355C331.098 33.3043 414 116.446 414 218.469Z" fill="#FFCD01"/>
<path d="M45 218.469C45 320.492 127.902 403.635 230 403.635V336.889C164.803 336.889 111.851 283.89 111.851 218.635C111.851 153.38 164.803 100.381 230 100.381V33.6355C127.902 33.3043 45 116.446 45 218.469Z" fill="#FFCD01"/>
<path d="M235.752 151C202.494 162.191 174.439 185.005 163 219C174.308 252.607 202.1 275.676 235.752 287C265.677 263.981 281.995 245.494 294 219C276.769 207.458 269.531 201.516 255.561 183.655C236.843 192.328 220.551 202.435 206.118 218.631C211.298 225.992 219.897 232.862 226.849 238.507C236.981 231.078 244.708 223.84 249.714 217.629C252.852 221.455 256.391 224.001 259.761 226.129C251.055 240.906 241.285 249.019 229.22 256.768C211.098 247.197 196.531 230.629 189.451 216.62C202.721 194.792 223.535 180.053 247.185 171.839C243.353 165.143 238.331 158.908 235.752 151Z" fill="#FFE30B"/>
<defs>
<linearGradient id="paint0_linear_46_54" x1="229.076" y1="218.634" x2="446.781" y2="218.634" gradientUnits="userSpaceOnUse">
<stop stop-color="white"/>
<stop offset="1" stop-color="#F5F5F5"/>
</linearGradient>
<linearGradient id="paint1_linear_46_54" x1="229.075" y1="218.634" x2="11.3703" y2="218.634" gradientUnits="userSpaceOnUse">
<stop stop-color="white"/>
<stop offset="1" stop-color="#F5F5F5"/>
</linearGradient>
<linearGradient id="paint2_linear_46_54" x1="352.855" y1="382.528" x2="367.963" y2="397.595" gradientUnits="userSpaceOnUse">
<stop stop-color="#E991FC"/>
<stop offset="1" stop-color="#7533D8"/>
</linearGradient>
<linearGradient id="paint3_linear_46_54" x1="347.897" y1="378.957" x2="371.496" y2="401.776" gradientUnits="userSpaceOnUse">
<stop stop-color="#FFDF00"/>
<stop offset="1" stop-color="#FFB800"/>
</linearGradient>
<linearGradient id="paint4_linear_46_54" x1="415.842" y1="306.47" x2="430.932" y2="321.535" gradientUnits="userSpaceOnUse">
<stop stop-color="#E991FC"/>
<stop offset="1" stop-color="#7533D8"/>
</linearGradient>
<linearGradient id="paint5_linear_46_54" x1="410.897" y1="302.957" x2="434.496" y2="325.776" gradientUnits="userSpaceOnUse">
<stop stop-color="#FFDF00"/>
<stop offset="1" stop-color="#FFB800"/>
</linearGradient>
<linearGradient id="paint6_linear_46_54" x1="437.889" y1="210.602" x2="452.955" y2="225.668" gradientUnits="userSpaceOnUse">
<stop stop-color="#E991FC"/>
<stop offset="1" stop-color="#7533D8"/>
</linearGradient>
<linearGradient id="paint7_linear_46_54" x1="432.897" y1="206.957" x2="456.496" y2="229.776" gradientUnits="userSpaceOnUse">
<stop stop-color="#FFDF00"/>
<stop offset="1" stop-color="#FFB800"/>
</linearGradient>
<linearGradient id="paint8_linear_46_54" x1="414.91" y1="115.566" x2="429.995" y2="130.669" gradientUnits="userSpaceOnUse">
<stop stop-color="#E991FC"/>
<stop offset="1" stop-color="#7533D8"/>
</linearGradient>
<linearGradient id="paint9_linear_46_54" x1="409.897" y1="111.957" x2="433.496" y2="134.776" gradientUnits="userSpaceOnUse">
<stop stop-color="#FFDF00"/>
<stop offset="1" stop-color="#FFB800"/>
</linearGradient>
<linearGradient id="paint10_linear_46_54" x1="352.849" y1="39.486" x2="367.999" y2="54.5943" gradientUnits="userSpaceOnUse">
<stop stop-color="#E991FC"/>
<stop offset="1" stop-color="#7533D8"/>
</linearGradient>
<linearGradient id="paint11_linear_46_54" x1="347.897" y1="35.9566" x2="371.496" y2="58.7764" gradientUnits="userSpaceOnUse">
<stop stop-color="#FFDF00"/>
<stop offset="1" stop-color="#FFB800"/>
</linearGradient>
<linearGradient id="paint12_linear_46_54" x1="89.987" y1="382.527" x2="105.1" y2="397.599" gradientUnits="userSpaceOnUse">
<stop stop-color="#FFDB65"/>
<stop offset="1" stop-color="#FF8C33"/>
</linearGradient>
<linearGradient id="paint13_linear_46_54" x1="84.8971" y1="378.957" x2="108.496" y2="401.776" gradientUnits="userSpaceOnUse">
<stop stop-color="#FFDF00"/>
<stop offset="1" stop-color="#FFB800"/>
</linearGradient>
<linearGradient id="paint14_linear_46_54" x1="27.0032" y1="306.47" x2="42.0942" y2="321.536" gradientUnits="userSpaceOnUse">
<stop stop-color="#FFDB65"/>
<stop offset="1" stop-color="#FF8C33"/>
</linearGradient>
<linearGradient id="paint15_linear_46_54" x1="21.8971" y1="302.957" x2="45.4959" y2="325.776" gradientUnits="userSpaceOnUse">
<stop stop-color="#FFDF00"/>
<stop offset="1" stop-color="#FFB800"/>
</linearGradient>
<linearGradient id="paint16_linear_46_54" x1="2.95523" y1="210.602" x2="18.0229" y2="225.67" gradientUnits="userSpaceOnUse">
<stop stop-color="#FFDB65"/>
<stop offset="1" stop-color="#FF8C33"/>
</linearGradient>
<linearGradient id="paint17_linear_46_54" x1="-2.10292" y1="206.957" x2="21.4959" y2="229.776" gradientUnits="userSpaceOnUse">
<stop stop-color="#FFDF00"/>
<stop offset="1" stop-color="#FFB800"/>
</linearGradient>
<linearGradient id="paint18_linear_46_54" x1="26.899" y1="115.565" x2="41.9876" y2="130.671" gradientUnits="userSpaceOnUse">
<stop stop-color="#FFDB65"/>
<stop offset="1" stop-color="#FF8C33"/>
</linearGradient>
<linearGradient id="paint19_linear_46_54" x1="21.8971" y1="111.957" x2="45.4959" y2="134.776" gradientUnits="userSpaceOnUse">
<stop stop-color="#FFDF00"/>
<stop offset="1" stop-color="#FFB800"/>
</linearGradient>
<linearGradient id="paint20_linear_46_54" x1="89.959" y1="39.4897" x2="105.102" y2="54.5914" gradientUnits="userSpaceOnUse">
<stop stop-color="#FFDB65"/>
<stop offset="1" stop-color="#FF8C33"/>
</linearGradient>
<linearGradient id="paint21_linear_46_54" x1="84.8971" y1="35.9566" x2="108.496" y2="58.7764" gradientUnits="userSpaceOnUse">
<stop stop-color="#FFDF00"/>
<stop offset="1" stop-color="#FFB800"/>
</linearGradient>
</defs>
</svg>
