<svg width="66" height="66" viewBox="0 0 66 66" fill="none" xmlns="http://www.w3.org/2000/svg">
<path d="M62.0734 48.527L59.7446 50.8558L57.1182 48.2294L59.447 45.9006C59.6374 45.7102 59.7444 45.4519 59.7444 45.1825C59.7444 44.9132 59.6374 44.6549 59.447 44.4645C59.2565 44.2741 58.9983 44.1671 58.7289 44.1671C58.4596 44.1671 58.2013 44.2741 58.0109 44.4645L55.6821 46.7933L54.3689 45.4801C54.2746 45.3857 54.1627 45.3108 54.0395 45.2597C53.9163 45.2086 53.7842 45.1823 53.6508 45.1823C53.5174 45.1823 53.3854 45.2086 53.2621 45.2597C53.1389 45.3108 53.027 45.3857 52.9328 45.4801L48.2751 50.1378C47.7049 50.7097 47.3847 51.4843 47.3847 52.2919C47.3847 53.0995 47.7049 53.8742 48.2751 54.4461L48.4681 54.639C43.976 57.8575 38.7171 59.5729 33.1667 59.5729C18.6057 59.5729 6.76042 47.7267 6.76042 33.1667C6.76042 31.4868 5.39339 30.1198 3.71354 30.1198C2.0337 30.1198 0.666668 31.4868 0.666668 33.1667C0.666668 51.0874 15.246 65.6667 33.1667 65.6667C40.2766 65.657 47.1881 63.3214 52.8464 59.0164L53.5279 59.6979C54.1007 60.2717 54.8665 60.5886 55.6821 60.5886C56.4976 60.5886 57.2634 60.2717 57.8362 59.6989L62.4939 55.0412C62.5883 54.947 62.6632 54.8351 62.7142 54.7118C62.7653 54.5886 62.7916 54.4566 62.7916 54.3232C62.7916 54.1898 62.7653 54.0577 62.7142 53.9345C62.6632 53.8113 62.5883 53.6994 62.4939 53.6051L61.1807 52.2919L63.5095 49.9631C63.6038 49.8688 63.6786 49.7569 63.7296 49.6337C63.7806 49.5104 63.8069 49.3784 63.8069 49.245C63.8069 49.1117 63.7806 48.9796 63.7296 48.8564C63.6786 48.7332 63.6038 48.6213 63.5095 48.527C63.4152 48.4327 63.3032 48.3579 63.18 48.3069C63.0568 48.2558 62.9248 48.2296 62.7914 48.2296C62.6581 48.2296 62.526 48.2558 62.4028 48.3069C62.2796 48.3579 62.1677 48.4327 62.0734 48.527ZM33.1667 63.6354C16.3662 63.6354 2.69792 49.9672 2.69792 33.1667C2.70962 32.9052 2.82173 32.6583 3.01092 32.4774C3.2001 32.2964 3.45178 32.1955 3.71354 32.1955C3.97531 32.1955 4.22698 32.2964 4.41617 32.4774C4.60536 32.6583 4.71747 32.9052 4.72917 33.1667C4.72917 48.8469 17.4854 61.6042 33.1667 61.6042C39.2584 61.6042 45.0251 59.6887 49.9225 56.0934L51.3819 57.5529C46.0895 61.5199 39.8251 63.6354 33.1667 63.6354ZM56.4001 58.2618C56.2059 58.445 55.9491 58.5471 55.6821 58.5471C55.4151 58.5471 55.1582 58.445 54.964 58.2618L49.7112 53.009C49.5208 52.8185 49.4138 52.5602 49.4138 52.2909C49.4138 52.0216 49.5208 51.7633 49.7112 51.5729L53.6508 47.6332L60.3397 54.3222L56.4001 58.2618Z" fill="#50AB09"/>
<path d="M35.4924 15.9447C35.2838 15.8815 35.0604 15.8871 34.8552 15.9606C34.65 16.0341 34.4739 16.1717 34.3529 16.353L22.1654 34.6343C22.0634 34.7872 22.0047 34.965 21.9958 35.1487C21.9869 35.3323 22.028 35.515 22.1148 35.6771C22.2015 35.8392 22.3306 35.9747 22.4884 36.0692C22.6461 36.1637 22.8265 36.2136 23.0104 36.2136H30.1198V49.4167C30.1197 49.6347 30.1898 49.8469 30.3197 50.022C30.4496 50.1971 30.6323 50.3257 30.8409 50.3889C31.0496 50.4521 31.273 50.4465 31.4782 50.373C31.6834 50.2994 31.8595 50.1617 31.9804 49.9804L44.1679 31.6991C44.27 31.5462 44.3286 31.3684 44.3375 31.1847C44.3464 31.0011 44.3053 30.8184 44.2186 30.6563C44.1318 30.4942 44.0027 30.3587 43.8449 30.2642C43.6872 30.1697 43.5068 30.1198 43.3229 30.1198H36.2135V16.9167C36.2135 16.6988 36.1434 16.4866 36.0136 16.3116C35.8837 16.1366 35.701 16.008 35.4924 15.9447ZM41.4257 32.1511L32.151 46.0621V35.198C32.151 34.9286 32.044 34.6703 31.8536 34.4798C31.6631 34.2893 31.4048 34.1823 31.1354 34.1823H24.9076L34.1823 20.2713V31.1355C34.1823 31.4048 34.2893 31.6631 34.4797 31.8536C34.6702 32.0441 34.9285 32.1511 35.1979 32.1511H41.4257Z" fill="#50AB09"/>
<path d="M33.1667 0.666687C26.0568 0.67639 19.1453 3.01196 13.4869 7.317L12.8054 6.63552C11.6588 5.48786 9.64376 5.48786 8.49712 6.63552L3.83947 11.2932C3.74507 11.3874 3.67018 11.4993 3.61908 11.6225C3.56798 11.7458 3.54168 11.8778 3.54168 12.0112C3.54168 12.1446 3.56798 12.2767 3.61908 12.3999C3.67018 12.5231 3.74507 12.635 3.83947 12.7293L5.15267 14.0425L2.82384 16.3713C2.72955 16.4656 2.65475 16.5775 2.60371 16.7007C2.55268 16.8239 2.52642 16.956 2.52642 17.0893C2.52642 17.2227 2.55268 17.3547 2.60371 17.4779C2.65475 17.6012 2.72955 17.7131 2.82384 17.8074C2.91814 17.9017 3.03008 17.9765 3.15328 18.0275C3.27649 18.0786 3.40853 18.1048 3.54189 18.1048C3.67524 18.1048 3.80729 18.0786 3.93049 18.0275C4.0537 17.9765 4.16564 17.9017 4.25994 17.8074L6.58876 15.4786L9.21517 18.105L6.88634 20.4338C6.79205 20.5281 6.71725 20.64 6.66621 20.7632C6.61518 20.8864 6.58892 21.0185 6.58892 21.1518C6.58892 21.2852 6.61518 21.4172 6.66621 21.5404C6.71725 21.6637 6.79205 21.7756 6.88634 21.8699C6.98064 21.9642 7.09258 22.039 7.21578 22.09C7.33899 22.1411 7.47103 22.1673 7.60439 22.1673C7.73774 22.1673 7.86979 22.1411 7.99299 22.09C8.1162 22.039 8.22814 21.9642 8.32244 21.8699L10.6513 19.5411L11.9645 20.8543C12.0586 20.9489 12.1704 21.024 12.2937 21.0753C12.4169 21.1265 12.5491 21.1529 12.6825 21.1529C12.816 21.1529 12.9481 21.1265 13.0713 21.0753C13.1946 21.024 13.3065 20.9489 13.4006 20.8543L18.0582 16.1966C18.6284 15.6247 18.9486 14.8501 18.9486 14.0425C18.9486 13.2349 18.6284 12.4602 18.0582 11.8883L17.8652 11.6954C22.3574 8.47583 27.6163 6.76044 33.1667 6.76044C47.7277 6.76044 59.5729 18.6067 59.5729 33.1667C59.5729 34.8465 60.9399 36.2136 62.6198 36.2136C64.2996 36.2136 65.6667 34.8465 65.6667 33.1667C65.6667 15.246 51.0863 0.666687 33.1667 0.666687ZM16.6221 14.7605L12.6825 18.7001L5.99361 12.0112L9.93322 8.07161C10.1274 7.88834 10.3843 7.78625 10.6513 7.78625C10.9183 7.78625 11.1751 7.88834 11.3693 8.07161L16.6221 13.3244C16.8125 13.5149 16.9195 13.7732 16.9195 14.0425C16.9195 14.3118 16.8125 14.5701 16.6221 14.7605ZM62.6198 34.1823C62.0592 34.1823 61.6042 33.7263 61.6042 33.1667C61.6042 17.4854 48.8469 4.72919 33.1667 4.72919C27.0749 4.72919 21.3082 6.64466 16.4109 10.24L14.9524 8.78255C20.1941 4.86528 26.6067 2.69794 33.1667 2.69794C49.9671 2.69794 63.6354 16.3662 63.6354 33.1667C63.6354 33.7263 63.1804 34.1823 62.6198 34.1823Z" fill="#50AB09"/>
</svg>
