<svg width="66" height="58" viewBox="0 0 66 58" fill="none" xmlns="http://www.w3.org/2000/svg">
<path d="M42.8333 48.2381C42.8333 48.7904 42.3856 49.2381 41.8333 49.2381H41.8095C41.2572 49.2381 40.8095 48.7904 40.8095 48.2381V48.2143C40.8095 47.662 41.2572 47.2143 41.8095 47.2143H41.8333C42.3856 47.2143 42.8333 47.662 42.8333 48.2143V48.2381ZM38.7857 48.2381C38.7857 48.7904 38.338 49.2381 37.7857 49.2381H37.7619C37.2096 49.2381 36.7619 48.7904 36.7619 48.2381V48.2143C36.7619 47.662 37.2096 47.2143 37.7619 47.2143H37.7857C38.338 47.2143 38.7857 47.662 38.7857 48.2143V48.2381ZM34.7381 48.2381C34.7381 48.7904 34.2904 49.2381 33.7381 49.2381H33.7143C33.162 49.2381 32.7143 48.7904 32.7143 48.2381V48.2143C32.7143 47.662 33.162 47.2143 33.7143 47.2143H33.7381C34.2904 47.2143 34.7381 47.662 34.7381 48.2143V48.2381ZM30.6904 48.2381C30.6904 48.7904 30.2427 49.2381 29.6904 49.2381H29.6666C29.1143 49.2381 28.6666 48.7904 28.6666 48.2381V48.2143C28.6666 47.662 29.1144 47.2143 29.6666 47.2143H29.6904C30.2427 47.2143 30.6904 47.662 30.6904 48.2143V48.2381ZM26.6428 48.2381C26.6428 48.7904 26.1951 49.2381 25.6428 49.2381H25.619C25.0667 49.2381 24.619 48.7904 24.619 48.2381V48.2143C24.619 47.662 25.0667 47.2143 25.619 47.2143H25.6428C26.1951 47.2143 26.6428 47.662 26.6428 48.2143V48.2381ZM22.5952 48.2381C22.5952 48.7904 22.1475 49.2381 21.5952 49.2381H21.5714C21.0191 49.2381 20.5714 48.7904 20.5714 48.2381V48.2143C20.5714 47.662 21.0191 47.2143 21.5714 47.2143H21.5952C22.1475 47.2143 22.5952 47.662 22.5952 48.2143V48.2381ZM18.5476 48.2381C18.5476 48.7904 18.0999 49.2381 17.5476 49.2381H17.5238C16.9715 49.2381 16.5238 48.7904 16.5238 48.2381V48.2143C16.5238 47.662 16.9715 47.2143 17.5238 47.2143H17.5476C18.0999 47.2143 18.5476 47.662 18.5476 48.2143V48.2381ZM14.5 48.2381C14.5 48.7904 14.0523 49.2381 13.5 49.2381H13.4762C12.9239 49.2381 12.4762 48.7904 12.4762 48.2381V48.2143C12.4762 47.662 12.9239 47.2143 13.4762 47.2143H13.5C14.0523 47.2143 14.5 47.662 14.5 48.2143V48.2381ZM10.4523 48.2381C10.4523 48.7904 10.0046 49.2381 9.45235 49.2381H9.42854C8.87625 49.2381 8.42854 48.7904 8.42854 48.2381V48.2143C8.42854 47.662 8.87626 47.2143 9.42854 47.2143H9.45235C10.0046 47.2143 10.4523 47.662 10.4523 48.2143V48.2381ZM6.40473 48.2381C6.40473 48.7904 5.95701 49.2381 5.40473 49.2381H5.38092C4.82863 49.2381 4.38092 48.7904 4.38092 48.2381V48.2143C4.38092 47.662 4.82864 47.2143 5.38092 47.2143H5.40473C5.95702 47.2143 6.40473 47.662 6.40473 48.2143V48.2381ZM42.8333 52.2857C42.8333 52.838 42.3856 53.2857 41.8333 53.2857H41.8095C41.2572 53.2857 40.8095 52.838 40.8095 52.2857V52.2619C40.8095 51.7096 41.2572 51.2619 41.8095 51.2619H41.8333C42.3856 51.2619 42.8333 51.7096 42.8333 52.2619V52.2857ZM38.7857 52.2857C38.7857 52.838 38.338 53.2857 37.7857 53.2857H37.7619C37.2096 53.2857 36.7619 52.838 36.7619 52.2857V52.2619C36.7619 51.7096 37.2096 51.2619 37.7619 51.2619H37.7857C38.338 51.2619 38.7857 51.7096 38.7857 52.2619V52.2857ZM34.7381 52.2857C34.7381 52.838 34.2904 53.2857 33.7381 53.2857H33.7143C33.162 53.2857 32.7143 52.838 32.7143 52.2857V52.2619C32.7143 51.7096 33.162 51.2619 33.7143 51.2619H33.7381C34.2904 51.2619 34.7381 51.7096 34.7381 52.2619V52.2857ZM30.6904 52.2857C30.6904 52.838 30.2427 53.2857 29.6904 53.2857H29.6666C29.1143 53.2857 28.6666 52.838 28.6666 52.2857V52.2619C28.6666 51.7096 29.1144 51.2619 29.6666 51.2619H29.6904C30.2427 51.2619 30.6904 51.7096 30.6904 52.2619V52.2857ZM26.6428 52.2857C26.6428 52.838 26.1951 53.2857 25.6428 53.2857H25.619C25.0667 53.2857 24.619 52.838 24.619 52.2857V52.2619C24.619 51.7096 25.0667 51.2619 25.619 51.2619H25.6428C26.1951 51.2619 26.6428 51.7096 26.6428 52.2619V52.2857ZM22.5952 52.2857C22.5952 52.838 22.1475 53.2857 21.5952 53.2857H21.5714C21.0191 53.2857 20.5714 52.838 20.5714 52.2857V52.2619C20.5714 51.7096 21.0191 51.2619 21.5714 51.2619H21.5952C22.1475 51.2619 22.5952 51.7096 22.5952 52.2619V52.2857ZM18.5476 52.2857C18.5476 52.838 18.0999 53.2857 17.5476 53.2857H17.5238C16.9715 53.2857 16.5238 52.838 16.5238 52.2857V52.2619C16.5238 51.7096 16.9715 51.2619 17.5238 51.2619H17.5476C18.0999 51.2619 18.5476 51.7096 18.5476 52.2619V52.2857ZM14.5 52.2857C14.5 52.838 14.0523 53.2857 13.5 53.2857H13.4762C12.9239 53.2857 12.4762 52.838 12.4762 52.2857V52.2619C12.4762 51.7096 12.9239 51.2619 13.4762 51.2619H13.5C14.0523 51.2619 14.5 51.7096 14.5 52.2619V52.2857ZM10.4523 52.2857C10.4523 52.838 10.0046 53.2857 9.45235 53.2857H9.42854C8.87625 53.2857 8.42854 52.838 8.42854 52.2857V52.2619C8.42854 51.7096 8.87626 51.2619 9.42854 51.2619H9.45235C10.0046 51.2619 10.4523 51.7096 10.4523 52.2619V52.2857ZM6.40473 52.2857C6.40473 52.838 5.95701 53.2857 5.40473 53.2857H5.38092C4.82863 53.2857 4.38092 52.838 4.38092 52.2857V52.2619C4.38092 51.7096 4.82864 51.2619 5.38092 51.2619H5.40473C5.95702 51.2619 6.40473 51.7096 6.40473 52.2619V52.2857ZM52.9524 5.71429C52.9524 5.16201 53.4001 4.71429 53.9524 4.71429H60.0476C60.5999 4.71429 61.0476 5.16201 61.0476 5.71429V5.7381C61.0476 6.29039 60.5999 6.7381 60.0476 6.7381H53.9524C53.4001 6.7381 52.9524 6.29039 52.9524 5.7381V5.71429ZM52.9524 9.76191C52.9524 9.20963 53.4001 8.76191 53.9524 8.76191H60.0476C60.5999 8.76191 61.0476 9.20963 61.0476 9.76191V9.78572C61.0476 10.338 60.5999 10.7857 60.0476 10.7857H53.9524C53.4001 10.7857 52.9524 10.338 52.9524 9.78572V9.76191ZM52.9524 13.8095C52.9524 13.2572 53.4001 12.8095 53.9524 12.8095H60.0476C60.5999 12.8095 61.0476 13.2572 61.0476 13.8095V13.8333C61.0476 14.3856 60.5999 14.8333 60.0476 14.8333H53.9524C53.4001 14.8333 52.9524 14.3856 52.9524 13.8333V13.8095Z" fill="#50AB09"/>
<path d="M62.0595 0.666687H51.9405C50.264 0.666687 48.9047 2.02593 48.9047 3.7024V39.1191H65.0952V3.7024C65.0952 2.02593 63.736 0.666687 62.0595 0.666687ZM63.0714 37.0953H50.9286V3.7024C50.9286 3.43403 51.0352 3.17665 51.2249 2.98688C51.4147 2.79711 51.6721 2.6905 51.9405 2.6905H62.0595C62.3279 2.6905 62.5853 2.79711 62.775 2.98688C62.9648 3.17665 63.0714 3.43403 63.0714 3.7024V37.0953ZM43.8452 43.1667H3.36903C1.69255 43.1667 0.333313 44.5259 0.333313 46.2024V54.2976C0.333313 55.9741 1.69255 57.3334 3.36903 57.3334H43.8452C45.5217 57.3334 46.8809 55.9741 46.8809 54.2976V46.2024C46.8809 44.5259 45.5217 43.1667 43.8452 43.1667ZM44.8571 54.2976C44.8571 54.566 44.7505 54.8234 44.5607 55.0132C44.371 55.2029 44.1136 55.3095 43.8452 55.3095H3.36903C3.10065 55.3095 2.84327 55.2029 2.6535 55.0132C2.46373 54.8234 2.35712 54.566 2.35712 54.2976V46.2024C2.35712 45.934 2.46373 45.6766 2.6535 45.4869C2.84327 45.2971 3.10065 45.1905 3.36903 45.1905H43.8452C44.1136 45.1905 44.371 45.2971 44.5607 45.4869C44.7505 45.6766 44.8571 45.934 44.8571 46.2024V54.2976ZM55.9881 43.1667C53.195 43.1701 50.932 45.4331 50.9286 48.2262V52.2738C50.9286 55.068 53.194 57.3334 55.9881 57.3334C58.7822 57.3334 61.0476 55.068 61.0476 52.2738V48.2262C61.0442 45.4331 58.7812 43.1701 55.9881 43.1667ZM59.0238 52.2738C59.0238 53.9503 57.6645 55.3095 55.9881 55.3095C54.3116 55.3095 52.9524 53.9503 52.9524 52.2738V48.2262C52.955 47.6006 53.1509 46.9911 53.5131 46.4811C53.8754 45.9711 54.3864 45.5854 54.9762 45.3768V48.2381C54.9762 48.7904 55.4239 49.2381 55.9762 49.2381H56C56.5523 49.2381 57 48.7904 57 48.2381V45.3768C57.5898 45.5854 58.1007 45.9711 58.463 46.4811C58.8253 46.9911 59.0211 47.6006 59.0238 48.2262V52.2738ZM43.8452 0.666687H3.36903C1.69255 0.666687 0.333313 2.02593 0.333313 3.7024V27.9881C0.333313 29.6646 1.69255 31.0238 3.36903 31.0238H17.5357V35.2404C17.5347 36.2642 16.7047 37.0942 15.6809 37.0953H13.4762C12.9239 37.0953 12.4762 37.543 12.4762 38.0953V38.1191C12.4762 38.6714 12.9239 39.1191 13.4762 39.1191H31.7143C32.2666 39.1191 32.7143 38.6714 32.7143 38.1191V38.0953C32.7143 37.543 32.2666 37.0953 31.7143 37.0953H29.5096C28.4858 37.0942 27.6558 36.2642 27.6547 35.2404V31.0238H43.8452C45.5217 31.0238 46.8809 29.6646 46.8809 27.9881V3.7024C46.8809 2.02593 45.5217 0.666687 43.8452 0.666687ZM19.0862 37.0953C19.3976 36.5267 19.5604 35.8887 19.5595 35.2404V31.0238H21.5833V35.3244H23.6071V31.0238H25.6309V35.2404C25.6301 35.8887 25.7929 36.5267 26.1043 37.0953H19.0862ZM44.8571 27.9881C44.8571 28.2565 44.7505 28.5139 44.5607 28.7036C44.371 28.8934 44.1136 29 43.8452 29H3.36903C3.10065 29 2.84327 28.8934 2.6535 28.7036C2.46373 28.5139 2.35712 28.2565 2.35712 27.9881V22.9286H44.8571V27.9881ZM44.8571 20.9048H2.35712V3.7024C2.35712 3.43403 2.46373 3.17665 2.6535 2.98688C2.84327 2.79711 3.10065 2.6905 3.36903 2.6905H43.8452C44.1136 2.6905 44.371 2.79711 44.5607 2.98688C44.7505 3.17665 44.8571 3.43403 44.8571 3.7024V20.9048Z" fill="#50AB09"/>
<path d="M58.0119 27.12V25.9524C58.0119 25.4001 57.5642 24.9524 57.0119 24.9524H56.9881C56.4358 24.9524 55.9881 25.4001 55.9881 25.9524V27.12C54.0146 27.6294 52.7276 29.5272 52.9845 31.549C53.2414 33.5708 54.9619 35.0869 57 35.0869C59.0381 35.0869 60.7586 33.5709 61.0155 31.549C61.2724 29.5271 59.9854 27.6294 58.0119 27.12ZM57 33.0476C56.0855 33.0502 55.2835 32.4369 55.0464 31.5534C54.8092 30.6699 55.1956 29.7377 55.9881 29.2812V31.0238H58.0119V29.2812C58.8045 29.7377 59.1908 30.67 58.9536 31.5534C58.7164 32.4368 57.9145 33.0502 57 33.0476ZM21.5833 25.9524C21.5833 25.4001 22.031 24.9524 22.5833 24.9524H22.6071C23.1594 24.9524 23.6071 25.4001 23.6071 25.9524V25.9762C23.6071 26.5285 23.1594 26.9762 22.6071 26.9762H22.5833C22.031 26.9762 21.5833 26.5285 21.5833 25.9762V25.9524Z" fill="#50AB09"/>
</svg>
