<svg width="75" height="72" viewBox="0 0 75 72" fill="none" xmlns="http://www.w3.org/2000/svg">
<path d="M54.64 71.6813C52.79 71.6813 50.8912 71.2063 49.1075 70.255C41.3825 66.1388 33.6162 66.1388 25.8925 70.255C22.3025 72.17 18.2462 72.1525 15.0375 70.2088C11.4425 68.1475 8.96873 64.29 8.44498 59.905C7.91748 55.4913 9.36748 51.2988 12.425 48.4C14.2119 46.6075 16.4548 45.3376 18.9112 44.7275C20.8775 44.2838 22.5125 42.91 23.4187 40.955C23.6737 40.4938 23.845 40.0413 24.0037 39.4413C25.4525 33.92 31.76 29.0763 37.5 29.0763C43.24 29.0763 49.5475 33.92 50.9962 39.4425C51.155 40.0413 51.3262 40.4938 51.5375 40.8688C52.4887 42.9113 54.1225 44.2838 56.0637 44.7225C58.5413 45.3343 60.8029 46.6156 62.6012 48.4263C65.6325 51.2988 67.0825 55.4913 66.555 59.905C66.0312 64.2888 63.5575 68.1463 59.9362 70.2238C58.3378 71.186 56.5056 71.6902 54.64 71.6813ZM37.5 64.6525C41.7537 64.6525 46.0562 65.795 50.285 68.0488C53.0887 69.5438 56.2225 69.5538 58.6662 68.0713C61.6312 66.37 63.6425 63.2125 64.0737 59.6088C64.5062 55.9875 63.3325 52.5638 60.855 50.2138C59.3806 48.7213 57.5241 47.6632 55.4887 47.155C52.8087 46.5513 50.55 44.6725 49.3137 42.0075C49.04 41.53 48.7937 40.8888 48.58 40.0788C47.4112 35.6275 42.1312 31.5763 37.5012 31.5763C32.8712 31.5763 27.59 35.6288 26.4225 40.0775C26.2087 40.8888 25.9625 41.53 25.645 42.0938C24.4525 44.6713 22.1925 46.55 19.4875 47.16C17.4729 47.6656 15.6349 48.7125 14.1725 50.1875C11.6687 52.5625 10.4962 55.9863 10.9275 59.6075C11.3587 63.21 13.37 66.3675 16.31 68.0538C18.7787 69.55 21.9125 69.5438 24.7175 68.0475C28.9462 65.7938 33.2475 64.6513 37.5025 64.6513L37.5 64.6525ZM26.8475 23.1675C24.4975 23.1675 22.5262 22.6738 20.9737 21.6938C18.7812 20.31 17.5562 18.065 17.3312 15.0225C17.1075 12.0088 17.9137 8.52126 19.4887 5.69376C21.295 2.45001 23.7912 0.551256 26.5175 0.350006C29.315 0.137506 34.0962 1.44251 34.9112 12.4475C35.16 15.8075 34.8837 18.0563 34.0112 19.74C32.96 21.7713 31.0062 22.9075 28.2037 23.115C27.7387 23.15 27.2862 23.1675 26.8475 23.1675ZM27.025 2.83126C26.917 2.83132 26.809 2.83508 26.7012 2.84251C24.8687 2.97876 23.035 4.46001 21.6725 6.90876C20.3275 9.32751 19.6362 12.2913 19.8237 14.8375C19.99 17.0775 20.8025 18.6275 22.3075 19.5788C23.6675 20.4375 25.6475 20.7938 28.0162 20.6213C30.5262 20.435 31.3512 19.4388 31.79 18.59C32.4287 17.3575 32.6275 15.4638 32.4175 12.63C32.0837 8.12126 30.8725 2.82876 27.025 2.82876V2.83126ZM9.46623 41.8063C8.30998 41.8063 7.24498 41.6288 6.27623 41.2738C3.84248 40.38 2.17373 38.4425 1.31498 35.515C0.464982 32.615 0.522482 29.035 1.46998 25.9413C2.55498 22.39 4.59873 20.0113 7.22373 19.2425C9.07498 18.6988 11.8087 18.6863 14.3275 21.7088C15.7725 23.4438 16.9975 26.0013 17.9675 29.3125C19.295 33.8438 20.0037 39.285 13.6437 41.1488C12.1475 41.5875 10.7512 41.8063 9.46623 41.8063ZM9.10248 21.4625C8.70429 21.4658 8.30862 21.5259 7.92748 21.6413C6.16373 22.1588 4.68123 23.9925 3.86123 26.6725C3.05248 29.3188 2.99748 32.3613 3.71623 34.8125C4.34748 36.9675 5.46623 38.3138 7.13873 38.9275C8.64873 39.4813 10.655 39.4213 12.9412 38.75C16.04 37.8413 17.375 36.1813 15.5687 30.015C14.7087 27.0763 13.6162 24.7575 12.4087 23.3088C11.3737 22.0663 10.3025 21.4625 9.10373 21.4625H9.10248ZM65.535 41.8063C64.2512 41.8063 62.8537 41.5875 61.3575 41.1488C54.9975 39.285 55.7062 33.8438 57.0337 29.3125C58.0037 26.0025 59.2287 23.4438 60.6737 21.7088C63.1912 18.6863 65.9262 18.7 67.7775 19.2425C70.4025 20.0113 72.445 22.39 73.5312 25.9413C74.4787 29.0363 74.5362 32.615 73.6862 35.515C72.8275 38.4425 71.16 40.38 68.725 41.2738C67.7575 41.6288 66.6912 41.8063 65.535 41.8063ZM65.8987 21.4625C64.7 21.4625 63.63 22.0663 62.5937 23.3088C61.3862 24.7588 60.2937 27.0775 59.4337 30.015C57.6275 36.1813 58.9625 37.8413 62.0612 38.75C64.3462 39.42 66.3537 39.4813 67.8637 38.9275C69.5362 38.3138 70.655 36.9675 71.2862 34.8125C72.005 32.3625 71.95 29.3188 71.1412 26.6725C70.3212 23.9925 68.8387 22.1588 67.075 21.6413C66.6938 21.526 66.2969 21.4658 65.8987 21.4625ZM48.1537 23.1675C47.715 23.1675 47.2637 23.15 46.7987 23.115C43.9962 22.9075 42.0412 21.7725 40.9912 19.74C40.12 18.0563 39.8425 15.8075 40.0912 12.4475C40.9037 1.44251 45.71 0.136256 48.4837 0.350006C51.2112 0.551256 53.7075 2.45001 55.5137 5.69376C57.0887 8.52126 57.8937 12.0088 57.6712 15.0225C57.4462 18.065 56.2212 20.3088 54.0287 21.6938C52.4762 22.6738 50.5037 23.1675 48.1537 23.1675ZM47.9762 2.83126C44.1275 2.83126 42.9162 8.12251 42.5837 12.6325C42.3737 15.4663 42.5725 17.36 43.2112 18.5925C43.65 19.44 44.475 20.4375 46.985 20.6238C49.3575 20.795 51.3337 20.4388 52.6937 19.5813C54.1987 18.63 55.0112 17.08 55.1775 14.84C55.365 12.2938 54.675 9.33001 53.3287 6.91126C51.965 4.46251 50.1312 2.98001 48.2987 2.84501C48.1914 2.83758 48.0838 2.83382 47.9762 2.83376V2.83126Z" fill="#50AB09"/>
</svg>
