<svg width="72" height="70" viewBox="0 0 72 70" fill="none" xmlns="http://www.w3.org/2000/svg">
<path d="M69.6 1.07997C67.7867 -0.306696 65.2267 0.0133037 63.7333 1.82664L33.9733 39.6933L31.3067 37.56C29.4933 36.1733 26.8267 36.3866 25.3333 38.3066L23.4133 40.76C17.76 48.0133 11.5733 46.6266 2.08 45.0266C1.44 44.92 0.906665 45.3466 0.799998 45.9866C-0.160002 57.2933 23.0933 72.0133 27.4667 69.56C33.76 65.9333 35.4667 63.8 39.9467 58.04C41.6533 55.9066 41.3333 56.2266 44.1067 52.8133C45.4933 51 45.1733 48.3333 43.36 46.84L40.6933 44.7066L70.4533 6.7333C71.7333 5.02664 71.4133 2.46664 69.6 1.07997ZM7.84 56.12C9.65333 56.3333 11.36 56.2266 12.7467 55.9066C11.5733 57.08 10.5067 57.9333 9.86666 58.2533C9.22666 57.6133 8.48 56.8666 7.84 56.12ZM20.2133 65.6133C18.9333 65.08 17.76 64.3333 16.5867 63.5866C19.36 62.9466 22.4533 61.56 24.6933 60.3866C23.4133 62.4133 21.7067 64.6533 20.2133 65.6133ZM38.24 56.76C33.9733 62.3066 32.48 64.2266 26.72 67.5333C25.3333 67.4266 23.9467 67 22.56 66.4666C25.5467 63.8 28.2133 58.7866 28.5333 58.04C28.96 57.08 28 56.12 27.04 56.6533C26.9333 56.6533 18.8267 61.56 14.1333 61.7733C13.28 61.1333 12.4267 60.3866 11.5733 59.7466C13.7067 58.36 16.2667 55.3733 17.2267 54.3066C17.9733 53.4533 16.9067 52.1733 15.9467 52.7066C15.9467 52.7066 11.1467 55.16 5.92 53.56C4.32 51.32 3.36 49.1866 3.14666 47.3733C11.68 48.8666 18.5067 49.9333 24.5867 43L39.7333 54.84C39.2 55.5866 38.6667 56.2266 38.24 56.76ZM42.2933 51.5333L41.0133 53.1333L25.76 41.1866L27.04 39.5866C27.7867 38.6266 29.0667 38.52 29.92 39.2666L41.8667 48.6533C42.8267 49.2933 43.04 50.5733 42.2933 51.5333ZM68.64 5.55997L38.88 43.4266L35.68 40.9733L65.44 3.10664C66.08 2.2533 67.36 2.03997 68.32 2.78664C69.1733 3.42664 69.28 4.70664 68.64 5.55997Z" fill="#50AB09"/>
</svg>
