<svg width="80" height="80" viewBox="0 0 80 80" fill="none" xmlns="http://www.w3.org/2000/svg">
<path d="M75.715 24.0469H73.0275V21.6963C73.0266 20.8917 72.7066 20.1202 72.1377 19.5512C71.5687 18.9823 70.7973 18.6622 69.9927 18.6613H51.67C50.2667 16.9153 48.4896 15.5064 46.4696 14.5383C44.4496 13.5703 42.2381 13.0677 39.9981 13.0677C37.7581 13.0677 35.5466 13.5703 33.5266 14.5383C31.5066 15.5064 29.7295 16.9153 28.3262 18.6613H10.0031C9.19858 18.6624 8.42731 18.9825 7.85846 19.5515C7.28962 20.1204 6.96966 20.8918 6.96875 21.6963V24.0469H4.285C3.48029 24.0478 2.70881 24.3679 2.13983 24.937C1.57084 25.506 1.25083 26.2775 1.25 27.0822V72.6855C1.25091 73.4902 1.57097 74.2616 2.13995 74.8305C2.70893 75.3995 3.48036 75.7195 4.285 75.7204H35.2123L36.2803 77.311C36.3946 77.4812 36.5491 77.6208 36.7301 77.7172C36.9111 77.8137 37.113 77.8641 37.3181 77.8641H42.6819C42.8872 77.8641 43.0895 77.8135 43.2706 77.7168C43.4518 77.6201 43.6064 77.4802 43.7206 77.3096L44.7844 75.7204H75.715C76.5196 75.7195 77.2911 75.3995 77.8601 74.8305C78.429 74.2616 78.7491 73.4902 78.75 72.6855V27.0822C78.7492 26.2775 78.4292 25.506 77.8602 24.937C77.2912 24.3679 76.5197 24.0478 75.715 24.0469ZM9.46875 65.263H34.6125C35.4633 65.2641 36.2931 65.5271 36.9892 66.0164C37.6853 66.5056 38.2139 67.1973 38.5031 67.9974C38.1433 67.889 37.7695 67.834 37.3938 67.8341H10.0031C9.86181 67.8322 9.72681 67.7753 9.62688 67.6754C9.52695 67.5754 9.46999 67.4404 9.46813 67.2991L9.46875 65.263ZM39.9978 15.5672C43.3102 15.571 46.4859 16.8885 48.8282 19.2307C51.1704 21.5729 52.488 24.7486 52.4917 28.061C52.4917 31.9974 50.7245 34.7193 48.8536 37.6008C47.5622 39.5897 46.2333 41.6402 45.4373 44.1515H43.8748V35.8919C43.8747 35.7988 43.8643 35.706 43.8436 35.6152C44.8329 35.389 45.7042 34.8062 46.2912 33.9783C46.8781 33.1504 47.1395 32.1353 47.0255 31.1268C46.9115 30.1184 46.43 29.1873 45.673 28.5113C44.916 27.8353 43.9366 27.4619 42.9217 27.4622C42.5902 27.4622 42.2723 27.5939 42.0378 27.8284C41.8034 28.0628 41.6717 28.3807 41.6717 28.7122C41.6717 29.0438 41.8034 29.3617 42.0378 29.5961C42.2723 29.8305 42.5902 29.9622 42.9217 29.9622C43.137 29.9601 43.3505 30.0007 43.55 30.0816C43.7495 30.1625 43.931 30.2822 44.0839 30.4337C44.2369 30.5851 44.3583 30.7654 44.4412 30.9641C44.5241 31.1628 44.5667 31.3759 44.5667 31.5912C44.5667 31.8065 44.5241 32.0196 44.4412 32.2183C44.3583 32.417 44.2369 32.5973 44.0839 32.7488C43.931 32.9002 43.7495 33.0199 43.55 33.1008C43.3505 33.1817 43.137 33.2223 42.9217 33.2202H37.0795C36.8643 33.2223 36.6507 33.1817 36.4512 33.1008C36.2517 33.0199 36.0703 32.9002 35.9173 32.7488C35.7643 32.5973 35.6429 32.417 35.5601 32.2183C35.4772 32.0196 35.4345 31.8065 35.4345 31.5912C35.4345 31.3759 35.4772 31.1628 35.5601 30.9641C35.6429 30.7654 35.7643 30.5851 35.9173 30.4337C36.0703 30.2822 36.2517 30.1625 36.4512 30.0816C36.6507 30.0007 36.8643 29.9601 37.0795 29.9622C37.4111 29.9622 37.729 29.8305 37.9634 29.5961C38.1978 29.3617 38.3295 29.0438 38.3295 28.7122C38.3295 28.3807 38.1978 28.0628 37.9634 27.8284C37.729 27.5939 37.4111 27.4622 37.0795 27.4622C36.0647 27.4619 35.0852 27.8353 34.3282 28.5113C33.5713 29.1873 33.0898 30.1184 32.9758 31.1268C32.8617 32.1353 33.1231 33.1504 33.7101 33.9783C34.297 34.8062 35.1683 35.389 36.1577 35.6152C36.137 35.706 36.1265 35.7988 36.1264 35.8919V44.1515H34.5588C33.7637 41.6386 32.4338 39.5872 31.1416 37.5972C29.2708 34.7166 27.5039 31.9957 27.5039 28.061C27.5077 24.7486 28.8252 21.5729 31.1675 19.2307C33.5097 16.8885 36.6854 15.571 39.9978 15.5672ZM45.1303 49.0733C45.1303 49.1086 45.1284 49.1435 45.1277 49.1786H34.868C34.868 49.1435 34.8653 49.1086 34.8653 49.0733V46.6515H45.1309L45.1303 49.0733ZM44.4173 51.6786C43.9645 52.4482 43.3185 53.0862 42.5434 53.5295C41.7682 53.9727 40.8907 54.2059 39.9978 54.2059C39.1049 54.2059 38.2274 53.9727 37.4523 53.5295C36.6771 53.0862 36.0311 52.4482 35.5783 51.6786H44.4173ZM38.6125 35.7202H41.3875C41.3791 35.7771 41.3747 35.8345 41.3742 35.8921V44.1516H38.6258V35.8919C38.6253 35.8344 38.6209 35.7771 38.6125 35.7202ZM10.0031 21.1613H26.6887C25.5792 23.2918 25.0012 25.6589 25.0039 28.061C25.0039 32.7363 27.0581 35.8996 29.0448 38.9588C30.4189 41.0747 31.7183 43.0755 32.3653 45.558V49.0736C32.3653 51.098 33.1695 53.0394 34.6009 54.4709C36.0323 55.9023 37.9738 56.7065 39.9981 56.7065C42.0225 56.7065 43.9639 55.9023 45.3953 54.4709C46.8268 53.0394 47.6309 51.098 47.6309 49.0736V45.558C48.2794 43.0766 49.5778 41.0769 50.9511 38.9619C52.9378 35.9018 54.9923 32.7375 54.9923 28.0607C54.9951 25.6586 54.417 23.2915 53.3075 21.161H69.9925C70.1343 21.1612 70.2703 21.2176 70.3705 21.3179C70.4708 21.4182 70.5272 21.5542 70.5273 21.696V62.763H45.3838C43.8798 62.7622 42.4207 63.2748 41.2478 64.2161V60.1463C41.2478 59.8148 41.1161 59.4968 40.8817 59.2624C40.6473 59.028 40.3293 58.8963 39.9978 58.8963C39.6663 58.8963 39.3484 59.028 39.1139 59.2624C38.8795 59.4968 38.7478 59.8148 38.7478 60.1463V64.2152C37.5747 63.2743 36.1157 62.762 34.6119 62.763H9.46875V21.6963C9.47061 21.5551 9.52748 21.4202 9.62728 21.3203C9.72708 21.2204 9.86192 21.1633 10.0031 21.1613ZM70.5273 65.263V67.2996C70.5272 67.4414 70.4708 67.5773 70.3705 67.6776C70.2703 67.7779 70.1343 67.8344 69.9925 67.8346H42.6019C42.2261 67.8344 41.8523 67.8895 41.4925 67.9979C41.7818 67.1977 42.3104 66.5061 43.0064 66.0169C43.7025 65.5277 44.5323 65.2646 45.3831 65.2635L70.5273 65.263ZM76.25 72.6855C76.2481 72.8268 76.1912 72.9618 76.0912 73.0617C75.9913 73.1616 75.8563 73.2185 75.715 73.2204H44.117C43.9116 73.2204 43.7094 73.271 43.5282 73.3677C43.3471 73.4645 43.1925 73.6044 43.0783 73.775L42.0145 75.3641H37.9844L36.9164 73.7736C36.8021 73.6034 36.6476 73.4638 36.4666 73.3673C36.2856 73.2708 36.0837 73.2204 35.8786 73.2204H4.285C4.14317 73.2202 4.00719 73.1638 3.90689 73.0636C3.80659 72.9633 3.75017 72.8273 3.75 72.6855V27.0822C3.75017 26.9404 3.80658 26.8044 3.90688 26.7041C4.00718 26.6038 4.14316 26.5474 4.285 26.5472H6.96875V67.2996C6.9697 68.1041 7.28968 68.8754 7.85851 69.4444C8.42734 70.0133 9.19859 70.3335 10.0031 70.3346H37.3938C37.7528 70.335 38.0971 70.4778 38.351 70.7317C38.6049 70.9856 38.7477 71.3299 38.7481 71.6889C38.7481 72.0205 38.8798 72.3384 39.1142 72.5728C39.3487 72.8073 39.6666 72.9389 39.9981 72.9389C40.3296 72.9389 40.6476 72.8073 40.882 72.5728C41.1164 72.3384 41.2481 72.0205 41.2481 71.6889C41.2528 71.3312 41.397 70.9894 41.65 70.7364C41.903 70.4834 42.2447 70.3392 42.6025 70.3346H69.9931C70.7978 70.3336 71.5691 70.0136 72.1381 69.4446C72.707 68.8756 73.0271 68.1042 73.028 67.2996V26.5469H75.7155C75.8568 26.5489 75.9917 26.606 76.0915 26.706C76.1914 26.8059 76.2482 26.941 76.25 27.0822V72.6855ZM13.3772 33.8633C13.3772 33.5318 13.5089 33.2139 13.7433 32.9794C13.9777 32.745 14.2957 32.6133 14.6272 32.6133H22.5113C22.8428 32.6133 23.1607 32.745 23.3951 32.9794C23.6296 33.2139 23.7613 33.5318 23.7613 33.8633C23.7613 34.1949 23.6296 34.5128 23.3951 34.7472C23.1607 34.9816 22.8428 35.1133 22.5113 35.1133H14.6272C14.2957 35.1133 13.9777 34.9816 13.7433 34.7472C13.5089 34.5128 13.3772 34.1949 13.3772 33.8633ZM13.3772 39.2626C13.3772 38.931 13.5089 38.6131 13.7433 38.3787C13.9777 38.1442 14.2957 38.0126 14.6272 38.0126H25.1598C25.4914 38.0126 25.8093 38.1442 26.0437 38.3787C26.2781 38.6131 26.4098 38.931 26.4098 39.2626C26.4098 39.5941 26.2781 39.912 26.0437 40.1464C25.8093 40.3809 25.4914 40.5126 25.1598 40.5126H14.6272C14.2957 40.5126 13.9777 40.3809 13.7433 40.1464C13.5089 39.912 13.3772 39.5941 13.3772 39.2626ZM13.3772 44.6618C13.3772 44.3302 13.5089 44.0123 13.7433 43.7779C13.9777 43.5435 14.2957 43.4118 14.6272 43.4118H28.402C28.7336 43.4118 29.0515 43.5435 29.2859 43.7779C29.5203 44.0123 29.652 44.3302 29.652 44.6618C29.652 44.9933 29.5203 45.3112 29.2859 45.5456C29.0515 45.7801 28.7336 45.9118 28.402 45.9118H14.6272C14.2957 45.9118 13.9777 45.7801 13.7433 45.5456C13.5089 45.3112 13.3772 44.9933 13.3772 44.6618ZM13.3772 50.0566C13.3772 49.7251 13.5089 49.4071 13.7433 49.1727C13.9777 48.9383 14.2957 48.8066 14.6272 48.8066H28.9734C29.305 48.8066 29.6229 48.9383 29.8573 49.1727C30.0917 49.4071 30.2234 49.7251 30.2234 50.0566C30.2234 50.3881 30.0917 50.7061 29.8573 50.9405C29.6229 51.1749 29.305 51.3066 28.9734 51.3066H14.6272C14.2957 51.3066 13.9777 51.1749 13.7433 50.9405C13.5089 50.7061 13.3772 50.3881 13.3772 50.0566ZM13.3772 55.4558C13.3772 55.1243 13.5089 54.8064 13.7433 54.5719C13.9777 54.3375 14.2957 54.2058 14.6272 54.2058H30.9622C31.2937 54.2058 31.6117 54.3375 31.8461 54.5719C32.0805 54.8064 32.2122 55.1243 32.2122 55.4558C32.2122 55.7873 32.0805 56.1053 31.8461 56.3397C31.6117 56.5741 31.2937 56.7058 30.9622 56.7058H14.6272C14.2957 56.7058 13.9777 56.5741 13.7433 56.3397C13.5089 56.1053 13.3772 55.7873 13.3772 55.4558ZM56.2388 33.8633C56.2388 33.5318 56.3704 33.2139 56.6049 32.9794C56.8393 32.745 57.1572 32.6133 57.4888 32.6133H65.3683C65.6998 32.6133 66.0177 32.745 66.2522 32.9794C66.4866 33.2139 66.6183 33.5318 66.6183 33.8633C66.6183 34.1949 66.4866 34.5128 66.2522 34.7472C66.0177 34.9816 65.6998 35.1133 65.3683 35.1133H57.4888C57.1572 35.1133 56.8393 34.9816 56.6049 34.7472C56.3704 34.5128 56.2388 34.1949 56.2388 33.8633ZM53.5902 39.2626C53.5902 38.931 53.7219 38.6131 53.9563 38.3787C54.1907 38.1442 54.5086 38.0126 54.8402 38.0126H65.3683C65.6998 38.0126 66.0177 38.1442 66.2522 38.3787C66.4866 38.6131 66.6183 38.931 66.6183 39.2626C66.6183 39.5941 66.4866 39.912 66.2522 40.1464C66.0177 40.3809 65.6998 40.5126 65.3683 40.5126H54.8402C54.5086 40.5126 54.1907 40.3809 53.9563 40.1464C53.7219 39.912 53.5902 39.5941 53.5902 39.2626ZM50.348 44.6618C50.348 44.3302 50.4797 44.0123 50.7141 43.7779C50.9485 43.5435 51.2664 43.4118 51.598 43.4118H65.3683C65.6998 43.4118 66.0177 43.5435 66.2522 43.7779C66.4866 44.0123 66.6183 44.3302 66.6183 44.6618C66.6183 44.9933 66.4866 45.3112 66.2522 45.5456C66.0177 45.7801 65.6998 45.9118 65.3683 45.9118H51.598C51.2664 45.9118 50.9485 45.7801 50.7141 45.5456C50.4797 45.3112 50.348 44.9933 50.348 44.6618ZM49.7766 50.0566C49.7766 49.7251 49.9083 49.4071 50.1427 49.1727C50.3771 48.9383 50.695 48.8066 51.0266 48.8066H65.3683C65.6998 48.8066 66.0177 48.9383 66.2522 49.1727C66.4866 49.4071 66.6183 49.7251 66.6183 50.0566C66.6183 50.3881 66.4866 50.7061 66.2522 50.9405C66.0177 51.1749 65.6998 51.3066 65.3683 51.3066H51.0266C50.695 51.3066 50.3771 51.1749 50.1427 50.9405C49.9083 50.7061 49.7766 50.3881 49.7766 50.0566ZM47.7834 55.4558C47.7834 55.1243 47.9151 54.8064 48.1496 54.5719C48.384 54.3375 48.7019 54.2058 49.0334 54.2058H65.3683C65.6998 54.2058 66.0177 54.3375 66.2522 54.5719C66.4866 54.8064 66.6183 55.1243 66.6183 55.4558C66.6183 55.7873 66.4866 56.1053 66.2522 56.3397C66.0177 56.5741 65.6998 56.7058 65.3683 56.7058H49.0334C48.7019 56.7058 48.384 56.5741 48.1496 56.3397C47.9151 56.1053 47.7834 55.7873 47.7834 55.4558ZM15.9506 26.1875C15.9506 25.856 16.0823 25.5381 16.3167 25.3037C16.5512 25.0692 16.8691 24.9375 17.2006 24.9375H20.3764C20.7079 24.9375 21.0259 25.0692 21.2603 25.3037C21.4947 25.5381 21.6264 25.856 21.6264 26.1875C21.6264 26.5191 21.4947 26.837 21.2603 27.0714C21.0259 27.3059 20.7079 27.4375 20.3764 27.4375H17.2006C16.8691 27.4375 16.5512 27.3059 16.3167 27.0714C16.0823 26.837 15.9506 26.5191 15.9506 26.1875ZM52.9709 14.4688C52.7238 14.4688 52.4822 14.3955 52.2767 14.2582C52.0712 14.1209 51.911 13.9258 51.8163 13.6975C51.7217 13.4692 51.6968 13.218 51.7449 12.9755C51.793 12.7331 51.9119 12.5104 52.0866 12.3355L55.2356 9.18192C55.4704 8.94966 55.7874 8.81971 56.1177 8.82046C56.4479 8.82121 56.7644 8.95259 56.9981 9.18591C57.2317 9.41923 57.3636 9.73554 57.3648 10.0658C57.3661 10.396 57.2366 10.7133 57.0047 10.9483L53.8555 14.1021C53.7395 14.2185 53.6016 14.3108 53.4498 14.3738C53.298 14.4367 53.1353 14.469 52.9709 14.4688ZM39.9978 9.59661C39.6663 9.59661 39.3484 9.46492 39.1139 9.23049C38.8795 8.99607 38.7478 8.67813 38.7478 8.34661V3.38599C38.7478 3.05447 38.8795 2.73652 39.1139 2.5021C39.3484 2.26768 39.6663 2.13599 39.9978 2.13599C40.3293 2.13599 40.6473 2.26768 40.8817 2.5021C41.1161 2.73652 41.2478 3.05447 41.2478 3.38599V8.34661C41.2478 8.67813 41.1161 8.99607 40.8817 9.23049C40.6473 9.46492 40.3293 9.59661 39.9978 9.59661ZM26.1452 14.1027L22.9916 10.949C22.7615 10.7137 22.6335 10.3971 22.6353 10.068C22.6371 9.73893 22.7687 9.42384 23.0014 9.19114C23.2341 8.95843 23.5492 8.82688 23.8783 8.82504C24.2074 8.8232 24.5239 8.95121 24.7592 9.1813L27.913 12.3349C28.1474 12.5693 28.2791 12.8873 28.2791 13.2188C28.2791 13.5503 28.1474 13.8683 27.913 14.1027C27.6785 14.3371 27.3606 14.4688 27.0291 14.4688C26.6975 14.4688 26.3796 14.3371 26.1452 14.1027ZM58.3736 26.1875C58.3736 25.856 58.5053 25.5381 58.7397 25.3037C58.9741 25.0692 59.2921 24.9375 59.6236 24.9375H62.7995C63.1311 24.9375 63.449 25.0692 63.6834 25.3037C63.9178 25.5381 64.0495 25.856 64.0495 26.1875C64.0495 26.5191 63.9178 26.837 63.6834 27.0714C63.449 27.3059 63.1311 27.4375 62.7995 27.4375H59.6236C59.2921 27.4375 58.9741 27.3059 58.7397 27.0714C58.5053 26.837 58.3736 26.5191 58.3736 26.1875Z" fill="#50AB09"/>
</svg>
